<?xml version="1.0" encoding="UTF-8"?><svg xmlns="http://www.w3.org/2000/svg" viewBox="0 0 204 188"><defs><style>.c{fill:#cda8ec;}.d{fill:#a880cf;}</style></defs><g id="a"/><g id="b"><g><path class="d" d="M111.23,21.37c10.79-3.93,72.45,65.71,63.38,74.34-5.55,5.36-32.39-.92-52.4-6.58,.12-3.73-.84-7.49-2.8-10.8-.88-1.48-1.98-2.89-3.25-4.14-4.39-4.26-10.36-6.12-16.12-5.5,1.02-17.06,3.82-44.7,11.18-47.33Z"/><path class="c" d="M96.67,123.13c-1.99,2.04-4.31,3.62-6.86,4.6-7.14,2.9-15.61,1.53-21.49-4.12-1.27-1.25-2.37-2.66-3.25-4.14-4.53-7.64-3.65-17.62,2.81-24.25l.57-.61,19.36-19.93c2.56-2.65,5.65-4.41,8.89-5.34,1.08-.31,2.22-.52,3.34-.65,5.76-.62,11.73,1.24,16.12,5.5,1.27,1.25,2.37,2.66,3.25,4.14,1.96,3.3,2.92,7.06,2.8,10.8-.07,4.83-1.93,9.67-5.62,13.45l-19.93,20.54Z"/><path class="d" d="M67.87,95.23c-6.46,6.63-7.34,16.61-2.81,24.25,.88,1.48,1.98,2.89,3.25,4.14,5.88,5.64,14.35,7.02,21.49,4.12,1.14,19.57,1.22,42.18-4.46,46.08-10.31,7.11-66.13-67.19-60.2-76.96,3.68-6.04,26.46-4.36,43.31-2.22l-.57,.61Z"/></g></g></svg>