<?xml version="1.0" encoding="UTF-8"?><svg xmlns="http://www.w3.org/2000/svg" viewBox="0 0 645 345"><defs><style>.c{fill:#214449;}.d{fill:#93d4db;}.e{fill:#76c7d4;}</style></defs><g id="a"><g><path class="e" d="M613.05,33.9c1.06-.29,2.05-.66,2.99-.9-50.15,53.96-136.62,92.69-238.12,102.72v-1.06c.04-6.47-5.16-11.67-11.59-11.67l-17.28-.08,.08-17.48c79.02-3.48,150.54-24.2,205.24-56.25,1.8-.41,3.6-.86,5.4-1.27,7.49-1.64,14.82-3.56,22.15-5.32,5.85-1.47,11.55-3.11,17.28-4.75,4.75-1.23,9.38-2.58,13.84-3.93Z"/><path class="e" d="M418.37,310.26c1.84,9.62-5.57,18.55-15.35,18.51l-144.03-.41c-9.99,0-17.36-9.29-15.15-19l16.13-72.14c72.84-5.65,52.57,31.93,51.79,33.37,2.21-1.72,85.81-65.67,89.29-43.07,.49,3.11-.57,7.9-3.6,14.78-25.14,57.03-19.37,66.78,17.07,47.74l3.85,20.23Z"/><path class="c" d="M402.48,227.23l12.04,62.8c-36.44,19.04-42.21,9.29-17.07-47.74,3.03-6.88,4.09-11.67,3.6-14.78l1.43-.29Z"/><path class="c" d="M402.48,227.23l-1.43,.29c-3.48-22.6-87.08,41.35-89.29,43.07,.78-1.43,21.04-39.02-51.79-33.37l13.35-59.82c1.64-7.21,7.98-12.24,15.31-12.24h.2l.08-28v-2.74c.04-6.47,5.24-11.67,11.67-11.63l13.39,.04-.04,9.99h-4.18c-.37,0-.78,0-1.11,.08-.2,0-.37,.04-.53,.08-1.15,.2-2.17,.7-3.07,1.31-.29,.2-.53,.45-.82,.7-.57,.53-1.06,1.15-1.47,1.8-.2,.37-.37,.7-.53,1.06-.2,.45-.37,.98-.45,1.51-.08,.33-.12,.7-.12,1.06-.08,.16-.08,.33-.08,.53l-.04,20.47c0,.33,.04,.74,.08,1.06l63.46,.16c.04-.33,.12-.7,.12-1.02l.04-20.51c0-.61-.08-1.19-.2-1.76-.04-.25-.12-.45-.16-.66-.12-.49-.33-.94-.57-1.39-.04-.12-.12-.29-.2-.41-.16-.33-.41-.57-.61-.86s-.45-.53-.7-.78c-.49-.49-1.02-.9-1.64-1.23-.49-.33-1.06-.57-1.64-.74-.78-.25-1.56-.37-2.42-.37l-8.02-.04v-9.99l17.28,.08c6.43,0,11.63,5.2,11.59,11.67v1.06l-.08,29.68c7.45,.04,13.76,5.36,15.19,12.65l9.46,49.17Z"/><path class="c" d="M365.22,141.13l-.04,20.51c0,.33-.08,.7-.12,1.02,0-.33,.08-.74,.08-1.06l.08-20.47Z"/><path class="e" d="M364.08,136.91c.08,.12,.16,.29,.2,.41-.08-.12-.16-.29-.25-.41h.04Z"/><path class="e" d="M364.08,136.91h-.04c-.2-.29-.37-.57-.57-.86,.2,.29,.45,.53,.61,.86Z"/><path class="e" d="M363.46,136.05c.2,.29,.37,.57,.57,.86-4.99,.41-9.99,.7-15.03,.9v-.45l.04-4.46,8.02,.04c.86,0,1.64,.12,2.42,.37,.57,.16,1.15,.41,1.64,.74,.61,.33,1.15,.74,1.64,1.23,.25,.25,.49,.49,.7,.78Z"/><path class="d" d="M349.13,99v6.43h-.04l-.04,17.48-.04,9.99v7.04c0,1.35-1.11,2.46-2.46,2.46l-30.17-.08c-1.35,0-2.46-1.11-2.46-2.46v-7.04l.04-9.99,.04-16.95,.04-6.96c0-1.35,1.11-2.46,2.46-2.46l30.17,.08c1.35,0,2.46,1.11,2.46,2.46Z"/><polygon class="e" points="349.13 105.43 349.05 122.91 349.09 105.43 349.13 105.43"/><polygon class="e" points="349.05 122.91 349.05 132.9 349.01 132.9 349.05 122.91"/><polygon class="e" points="349.05 132.9 349.01 137.36 349.01 132.9 349.05 132.9"/><path class="e" d="M314.01,105.88l-.04,16.95-13.39-.04c-6.43-.04-11.63,5.16-11.67,11.63v2.74c-98.75-6.67-184.89-40.25-239.88-88.93,1.11,.25,2.17,.49,3.28,.74,21.62,4.95,44.01,9.25,67.1,12.86,54.33,26.37,121.56,42.54,194.6,44.05Z"/><path class="e" d="M313.92,132.82v5.4c-3.93-.08-7.82-.2-11.71-.37,.16-.37,.33-.7,.53-1.06,.41-.66,.9-1.27,1.47-1.8,.29-.25,.53-.49,.82-.7,.9-.61,1.92-1.11,3.07-1.31,.16-.04,.33-.08,.53-.08,.33-.08,.74-.08,1.11-.08h4.18Z"/><path class="c" d="M301.64,140.43c-.04,.16-.04,.37-.04,.53l-.08,20.47,.04-20.47c0-.2,0-.37,.08-.53Z"/></g></g><g id="b"/></svg>