<?xml version="1.0" encoding="UTF-8"?><svg xmlns="http://www.w3.org/2000/svg" viewBox="0 0 623 323"><defs><style>.c{fill:#fff;}.d{fill:#edd234;}.e{fill:#93d4db;}.f{fill:#76c7d4;}</style></defs><g id="a"><g><path class="f" d="M591.14,.98c1.06-.29,2.05-.65,2.99-.9-50.18,53.93-136.68,92.61-238.18,102.59v-1.06c.05-6.47-5.15-11.67-11.58-11.68l-17.28-.09,.09-17.48c79.02-3.43,150.56-24.11,205.27-56.14,1.8-.41,3.6-.86,5.41-1.27,7.49-1.63,14.82-3.55,22.15-5.31,5.86-1.47,11.55-3.1,17.28-4.74,4.75-1.23,9.38-2.57,13.84-3.92Z"/><path class="d" d="M396.3,277.23c1.84,9.62-5.58,18.54-15.36,18.5l-144.03-.49c-9.99,0-17.35-9.3-15.14-19.01l16.17-72.13,13.38-59.81c1.64-7.2,7.99-12.24,15.32-12.23h.2l.1-28v-2.74c.05-6.47,5.25-11.67,11.68-11.62l13.39,.05-.05,9.99h-4.18c-.37,0-.78,0-1.11,.08-.2,0-.37,.04-.53,.08-1.15,.2-2.17,.69-3.07,1.31-.29,.2-.53,.45-.82,.7-.57,.53-1.07,1.15-1.47,1.8-.2,.37-.37,.7-.53,1.06-.2,.45-.37,.98-.45,1.51-.08,.33-.12,.7-.12,1.06-.08,.16-.08,.33-.08,.53l-.05,20.47c0,.33,.04,.74,.08,1.06l63.46,.2c.04-.33,.12-.7,.12-1.02l.05-20.51c0-.61-.08-1.19-.2-1.76-.04-.25-.12-.45-.16-.66-.12-.49-.33-.94-.57-1.39-.04-.12-.12-.29-.2-.41-.16-.33-.41-.57-.61-.86s-.45-.53-.7-.78c-.49-.49-1.02-.9-1.64-1.23-.49-.33-1.06-.57-1.64-.74-.78-.25-1.56-.37-2.42-.37l-8.02-.05v-9.99l17.28,.09c6.43,0,11.62,5.21,11.58,11.68v1.06l-.1,29.68c7.45,.05,13.75,5.37,15.18,12.66l21.43,111.99,3.84,20.23Zm-123.9-124.41c4.14-5.36,12.45-11.46,12.45-11.46,0,0-18.67,1.22-20.76,9.73-2.05,8.51-4.15,18.26-4.15,18.26,0,0,9.63-12.89,12.46-16.53Z"/><path class="f" d="M341.5,102.99c.2,.29,.37,.57,.57,.86-5,.41-9.99,.69-15.03,.89v-.45l.04-4.46,8.02,.05c.86,0,1.64,.12,2.42,.37,.57,.16,1.15,.41,1.64,.74,.61,.33,1.15,.74,1.64,1.23,.25,.25,.49,.49,.7,.78Z"/><path class="e" d="M327.19,65.93v6.43h-.04l-.05,17.48-.05,9.99v7.04c0,1.35-1.11,2.46-2.46,2.46l-30.17-.1c-1.35,0-2.46-1.11-2.46-2.46v-7.04l.05-9.99,.05-16.95,.04-6.96c0-1.35,1.11-2.46,2.46-2.46l30.17,.1c1.35,0,2.46,1.11,2.46,2.46Z"/><path class="f" d="M292.06,72.79l-.05,16.95-13.39-.05c-6.43-.04-11.63,5.15-11.68,11.62v2.74C168.19,97.32,82.07,63.7,27.11,14.99c1.11,.25,2.17,.49,3.27,.74,21.61,4.97,44.01,9.28,67.1,12.89,54.31,26.4,121.53,42.61,194.57,44.16Z"/><path class="f" d="M291.96,99.73v5.4c-3.93-.08-7.82-.21-11.71-.38,.16-.37,.33-.7,.53-1.06,.41-.65,.9-1.27,1.47-1.8,.29-.25,.53-.49,.82-.7,.9-.61,1.92-1.1,3.07-1.31,.16-.04,.33-.08,.53-.08,.33-.08,.74-.08,1.11-.08h4.18Z"/><path class="c" d="M284.85,141.36s-8.31,6.1-12.45,11.46c-2.83,3.64-12.46,16.53-12.46,16.53,0,0,2.09-9.74,4.15-18.26,2.09-8.51,20.76-9.73,20.76-9.73Z"/></g></g><g id="b"/></svg>