<?xml version="1.0" encoding="UTF-8"?><svg xmlns="http://www.w3.org/2000/svg" viewBox="0 0 326 145"><defs><style>.c{fill:#f8d7d9;}.d{fill:#d6bd7f;}</style></defs><g id="a"/><g id="b"><g><path class="d" d="M91.07,96.33c17.19,1.35,37.17,2.3,58.74,2.65,2.43,3.38,6.41,5.6,10.89,5.6h8.11c3.73,0,7.08-1.51,9.54-3.97,.46-.46,.87-.95,1.24-1.46,22.68-.16,43.9-.95,62.42-2.16,7.89-.54,15.33-1.16,22.14-1.87h.05c29.36,2.97,47.88,7.33,47.88,12.16,0,5.97-28.14,11.19-70.07,14.03-20.9,1.38-45.23,2.19-71.18,2.19-29.6,0-57.09-1.05-79.77-2.84-37.12-2.92-61.47-7.84-61.47-13.38,0-4.87,18.52-9.19,47.88-12.16,4.3,.43,8.84,.84,13.6,1.22Z"/><path class="d" d="M252.38,85.38c-3.35,.27-6.81,.54-10.35,.78-17.84,1.19-38.22,1.95-59.96,2.14-1.3-6.11-6.76-10.76-13.25-10.76h-8.11c-3.73,0-7.08,1.51-9.54,3.97-1.81,1.81-3.08,4.08-3.65,6.62-20.68-.41-39.85-1.32-56.45-2.62-3.38-.27-6.65-.54-9.79-.84,.51-4.81,1.7-9.73,3.43-14.6,1.41-3.78,3.14-7.57,5.19-11.25,13.89-24.98,42.63-46.17,76.21-46.17s62.5,20.84,76.91,45.55c2.16,3.65,3.97,7.41,5.43,11.19,2.05,5.33,3.38,10.71,3.92,15.98Z"/><path class="c" d="M182.06,88.3c21.73-.19,42.12-.95,59.96-2.14,3.54-.24,7-.51,10.35-.78,.16,1.68,.24,3.35,.24,5,0,1.24-.05,2.46-.14,3.68,4.05,.32,7.95,.68,11.68,1.05-6.81,.7-14.25,1.32-22.14,1.87-18.52,1.22-39.74,2-62.42,2.16,1.7-2.24,2.73-5,2.73-8.03v-.05c0-.95-.11-1.87-.27-2.76Z"/><path class="c" d="M182.33,91.11c0,3.03-1.03,5.79-2.73,8.03-.38,.51-.78,1-1.24,1.46-2.46,2.46-5.81,3.97-9.54,3.97h-8.11c-4.49,0-8.46-2.22-10.89-5.6-1.62-2.16-2.57-4.81-2.62-7.7v-.22c0-1,.11-1.97,.32-2.92,.57-2.54,1.84-4.81,3.65-6.62,2.46-2.46,5.81-3.97,9.54-3.97h8.11c6.49,0,11.95,4.65,13.25,10.76,.16,.89,.27,1.81,.27,2.76v.05Z"/><path class="c" d="M149.81,98.98c-21.57-.35-41.55-1.3-58.74-2.65-4.76-.38-9.3-.78-13.6-1.22,1.22-.14,2.43-.27,3.68-.38-.14-1.43-.19-2.89-.19-4.35,0-1.89,.11-3.78,.32-5.7,3.14,.3,6.41,.57,9.79,.84,16.6,1.3,35.76,2.22,56.45,2.62-.22,.95-.32,1.92-.32,2.92v.22c.05,2.89,1,5.54,2.62,7.7Z"/></g></g></svg>