<?xml version="1.0" encoding="UTF-8"?><svg xmlns="http://www.w3.org/2000/svg" viewBox="0 0 633 219"><defs><style>.c{fill:#fff;}.d{fill:#25252d;}.e{fill:#76c7d4;}</style></defs><g id="a"/><g id="b"><g><rect class="d" x="74.2" y="42.55" width="208.8" height="96.58"/><polygon class="d" points="532.98 139.14 334.13 139.14 328.45 36.87 515.93 36.87 532.98 139.14"/><path class="e" d="M538.19,131.18l-15.16-90.08c-1.07-6.38-3.85-10.69-6.99-10.87l-187.81-10.4c-11.15,5.68-8.19,8.09-7.81,17.88l1.32,34.2c-3.97-.53-7.95-.96-10.33-.96-4.3,0-14.88,1.18-21.85,2.02l1.47-35.27c.41-9.8-3.52-18.13-8.42-17.88L80.13,30.24c-3.39,.17-6.38,4.48-7.53,10.87l-16.34,90.07c-1.95,10.77,2.03,22.16,7.75,22.16h214.64c4.29,0,7.86-6.58,8.21-15.14l1.42-34.2,3.68-.74c10.23-2.05,20.71-2.17,30.98-.56l1.37,35.5c.33,8.56,3.64,15.14,7.62,15.14h199.09c5.31,0,9-11.39,7.18-22.16ZM276.19,59.53l-5.07,54.17c-.94,10.03-5.31,17.3-10.4,17.3H78.99c-2.24,0-3.86-4.3-3.25-8.62l8.6-60.32c.78-5.49,3.25-9.33,6.09-9.49l178.37-10.36c4.65-.27,8.24,8.14,7.38,17.32Zm240.91,71.48h-168.57c-4.72,0-8.78-7.27-9.65-17.3l-4.7-54.17c-.8-9.17,2.53-17.58,6.85-17.31l165.45,10.36c2.64,.17,4.93,4,5.65,9.49l7.98,60.32c.57,4.32-.93,8.62-3.01,8.62Z"/><path class="c" d="M394.09,68.75h-32.92c-.71,0-1.37-.4-1.69-1.04l-3.55-7.1c-.68-1.36,.45-2.93,1.95-2.71l36.21,5.17v5.68Z"/><path class="c" d="M221.84,68.75h32.92c.71,0,1.37-.4,1.69-1.04l3.55-7.1c.68-1.36-.45-2.93-1.95-2.71l-36.21,5.17v5.68Z"/></g></g></svg>