<?xml version="1.0" encoding="UTF-8"?><svg xmlns="http://www.w3.org/2000/svg" viewBox="0 0 606 338"><defs><style>.c{fill:#fff;}.d{fill:#333;}.e{fill:#c19246;}.f{fill:#c99e61;}</style></defs><g id="a"><g><path class="e" d="M580.05,16c1.06-.29,2.05-.66,2.99-.9-50.15,53.96-136.62,92.69-238.12,102.72v-1.06c.04-6.47-5.16-11.67-11.59-11.67l-17.28-.08,.08-17.48c79.02-3.48,150.54-24.2,205.24-56.25,1.8-.41,3.6-.86,5.4-1.27,7.49-1.64,14.82-3.56,22.15-5.32,5.85-1.47,11.55-3.11,17.28-4.75,4.75-1.23,9.38-2.58,13.84-3.93Z"/><path class="d" d="M385.37,292.35c1.84,9.62-5.57,18.55-15.35,18.51l-144.03-.41c-9.99,0-17.36-9.29-15.15-19l16.13-72.14,13.35-59.82c1.64-7.21,7.98-12.24,15.31-12.24h.2l.08-28v-2.74c.04-6.47,5.24-11.67,11.67-11.63l13.39,.04-.04,9.99h-4.18c-.37,0-.78,0-1.11,.08-.2,0-.37,.04-.53,.08-1.15,.2-2.17,.7-3.07,1.31-.29,.2-.53,.45-.82,.7-.57,.53-1.06,1.15-1.47,1.8-.2,.37-.37,.7-.53,1.06-.2,.45-.37,.98-.45,1.51-.08,.33-.12,.7-.12,1.06-.08,.16-.08,.33-.08,.53l-.04,20.47c0,.33,.04,.74,.08,1.06l63.46,.16c.04-.33,.12-.7,.12-1.02l.04-20.51c0-.61-.08-1.19-.2-1.76-.04-.25-.12-.45-.16-.66-.12-.49-.33-.94-.57-1.39-.04-.12-.12-.29-.2-.41-.16-.33-.41-.57-.61-.86s-.45-.53-.7-.78c-.49-.49-1.02-.9-1.64-1.23-.49-.33-1.06-.57-1.64-.74-.78-.25-1.56-.37-2.42-.37l-8.02-.04v-9.99l17.28,.08c6.43,0,11.63,5.2,11.59,11.67v1.06l-.08,29.68c7.45,.04,13.76,5.36,15.19,12.65l21.49,111.98,3.85,20.23Zm-26.65-64.28c0-5.85-4.83-16.95-17.4-16.95-9.95,0-17.65,6.84-17.65,16.5s7.49,16.7,17.07,16.7,17.97-6.47,17.97-16.25Zm-37.26,0c0-5.85-4.83-16.95-17.4-16.95-9.95,0-17.65,6.84-17.65,16.5s7.49,16.7,17.07,16.7,17.97-6.47,17.97-16.25Zm-36.77,13.22c0-2.05-2.74-1.35-2.87-4.67-.2-4.22-.49-9.25-.49-9.91,0-2.05,.33-7.41,.7-8.72,.45-1.56,2.5-1.88,2.5-3.73,0-2.87-4.54-2.99-6.55-2.99-6.02,0-6.06,1.35-8.39,5.65-1.64,2.99-3.48,8.52-4.91,8.19-2.01-.45-4.83-7.94-6.39-10.6-1.39-2.33-1.31-3.23-6.63-3.23-3.64,0-7.86,.61-7.86,3.23,0,1.84,2.58,2.17,3.03,3.11,.53,1.06,.7,2.5,.7,5.2,0,6.63-.41,10.85-.78,14.66-.37,3.77-3.11,1.6-3.11,4.22,0,2.37,4.18,2.5,5.77,2.5,1.76,0,6.63-.08,6.63-2.7,0-2.46-2.91-.16-2.91-5.04,0-1.51-.45-7.53,.94-7.53,.82,0,1.31,1.39,1.6,1.97l2.66,5.94c2.7,6.14,3.07,6.06,3.81,6.14,1.47,.16,3.11-4.99,4.09-7.12,1.11-2.29,2.54-6.31,3.97-6.31,1.6,0,.7,7.82,.49,8.6-.33,1.47-2.37,1.72-2.37,3.32,0,2.91,6.26,2.74,8.11,2.74,2.01,0,8.27,.12,8.27-2.91Z"/><path class="c" d="M341.31,211.13c12.57,0,17.4,11.1,17.4,16.95,0,9.79-8.68,16.25-17.97,16.25s-17.07-7-17.07-16.7,7.7-16.5,17.65-16.5Zm5.69,21.54c0-4.14-2.46-14.74-7.78-14.74-2.58,0-3.85,2.66-3.85,4.87,0,3.89,2.74,14.78,7.66,14.78,2.78,0,3.97-2.42,3.97-4.91Z"/><path class="d" d="M339.23,217.92c5.32,0,7.78,10.6,7.78,14.74,0,2.5-1.19,4.91-3.97,4.91-4.91,0-7.66-10.89-7.66-14.78,0-2.21,1.27-4.87,3.85-4.87Z"/><path class="e" d="M330.46,118.15c.2,.29,.37,.57,.57,.86-4.99,.41-9.99,.7-15.03,.9v-.45l.04-4.46,8.02,.04c.86,0,1.64,.12,2.42,.37,.57,.16,1.15,.41,1.64,.74,.61,.33,1.15,.74,1.64,1.23,.25,.25,.49,.49,.7,.78Z"/><path class="c" d="M304.06,211.13c12.57,0,17.4,11.1,17.4,16.95,0,9.79-8.68,16.25-17.97,16.25s-17.07-7-17.07-16.7,7.7-16.5,17.65-16.5Zm5.69,21.54c0-4.14-2.46-14.74-7.78-14.74-2.58,0-3.85,2.66-3.85,4.87,0,3.89,2.74,14.78,7.66,14.78,2.78,0,3.97-2.42,3.97-4.91Z"/><path class="f" d="M316.13,81.09v6.43h-.04l-.04,17.48-.04,9.99v7.04c0,1.35-1.11,2.46-2.46,2.46l-30.17-.08c-1.35,0-2.46-1.11-2.46-2.46v-7.04l.04-9.99,.04-16.95,.04-6.96c0-1.35,1.11-2.46,2.46-2.46l30.17,.08c1.35,0,2.46,1.11,2.46,2.46Z"/><path class="d" d="M301.97,217.92c5.32,0,7.78,10.6,7.78,14.74,0,2.5-1.19,4.91-3.97,4.91-4.91,0-7.66-10.89-7.66-14.78,0-2.21,1.27-4.87,3.85-4.87Z"/><path class="c" d="M281.82,236.63c.12,3.32,2.87,2.62,2.87,4.67,0,3.03-6.26,2.91-8.27,2.91-1.84,0-8.11,.16-8.11-2.74,0-1.6,2.05-1.84,2.37-3.32,.2-.78,1.11-8.6-.49-8.6-1.43,0-2.87,4.01-3.97,6.31-.98,2.13-2.62,7.29-4.09,7.12-.74-.08-1.11,0-3.81-6.14l-2.66-5.94c-.29-.57-.78-1.97-1.6-1.97-1.39,0-.94,6.02-.94,7.53,0,4.87,2.91,2.58,2.91,5.04,0,2.62-4.87,2.7-6.63,2.7-1.6,0-5.77-.12-5.77-2.5,0-2.62,2.74-.45,3.11-4.22,.37-3.81,.78-8.02,.78-14.66,0-2.7-.16-4.14-.7-5.2-.45-.94-3.03-1.27-3.03-3.11,0-2.62,4.22-3.23,7.86-3.23,5.32,0,5.24,.9,6.63,3.23,1.56,2.66,4.38,10.15,6.39,10.6,1.43,.33,3.28-5.2,4.91-8.19,2.33-4.3,2.37-5.65,8.39-5.65,2.01,0,6.55,.12,6.55,2.99,0,1.84-2.05,2.17-2.5,3.73-.37,1.31-.7,6.67-.7,8.72,0,.66,.29,5.69,.49,9.91Z"/><path class="e" d="M281.01,87.97l-.04,16.95-13.39-.04c-6.43-.04-11.63,5.16-11.67,11.63v2.74C157.16,112.58,71.01,79.01,16.03,30.33c1.11,.25,2.17,.49,3.28,.74,21.62,4.95,44.01,9.25,67.1,12.86,54.33,26.37,121.56,42.54,194.6,44.05Z"/><path class="e" d="M280.92,114.91v5.4c-3.93-.08-7.82-.2-11.71-.37,.16-.37,.33-.7,.53-1.06,.41-.66,.9-1.27,1.47-1.8,.29-.25,.53-.49,.82-.7,.9-.61,1.92-1.11,3.07-1.31,.16-.04,.33-.08,.53-.08,.33-.08,.74-.08,1.11-.08h4.18Z"/></g></g><g id="b"/></svg>