<?xml version="1.0" encoding="UTF-8"?><svg xmlns="http://www.w3.org/2000/svg" viewBox="0 0 636 328"><defs><style>.c{fill:#fff;}.d{fill:#333;}.e{fill:#c19246;}.f{fill:#c99e61;}</style></defs><g id="a"><g><path class="e" d="M591.14,13.74c1.06-.29,2.05-.66,2.99-.9-50.15,53.96-136.62,92.69-238.12,102.72v-1.06c.04-6.47-5.16-11.67-11.59-11.67l-17.28-.08,.08-17.48c79.02-3.48,150.54-24.2,205.24-56.25,1.8-.41,3.6-.86,5.4-1.27,7.49-1.64,14.82-3.56,22.15-5.32,5.85-1.47,11.55-3.11,17.28-4.75,4.75-1.23,9.38-2.58,13.84-3.93Z"/><path class="d" d="M396.46,290.1c1.84,9.62-5.57,18.55-15.35,18.51l-29.72-.08c-1.68-1.68-32.59-32.59-23.46-38.24,9.38-5.81,14.33-6.14,19.65-22.52,5.32-16.38,42.33,8.07,42.33,8.07l2.7,14.04,3.85,20.23Z"/><path class="c" d="M385.32,231.88l4.59,23.95s-37.01-24.44-42.33-8.07c-5.32,16.38-10.28,16.7-19.65,22.52-9.13,5.65,21.78,36.56,23.46,38.24l-33.94-.08h-.04c-.82-.2-9.7-2.46-9.95-9.5-.25-7.37-10.24-10.24-30.71-6.14-20.47,4.09-12.28-8.19-18.06-16.58-5.65-8.19-31.53-5.04-32.75-4.87l5.24-23.58h12.81c4.09,0,59.37,14.33,67.55-6.14,8.19-20.47-26.61-30.71-25.38-51.1,1.23-20.43-37.91-19.2-37.91-19.2l3.15-14.08c1.64-7.21,7.98-12.24,15.31-12.24h.2l.08-28v-2.74c.04-6.47,5.24-11.67,11.67-11.63l13.39,.04-.04,9.99h-4.18c-.37,0-.78,0-1.11,.08-.2,0-.37,.04-.53,.08-1.15,.2-2.17,.7-3.07,1.31-.29,.2-.53,.45-.82,.7-.57,.53-1.06,1.15-1.47,1.8-.2,.37-.37,.7-.53,1.06-.2,.45-.37,.98-.45,1.51-.08,.33-.12,.7-.12,1.06-.08,.16-.08,.33-.08,.53l-.04,20.47c0,.33,.04,.74,.08,1.06l47.53,.12v.04s-27.96,17.24-11.59,29.52c16.38,12.28,9.66,20.47,16.38,45.04s16.38,4.09,32.75,4.09c15.35,0,19.98,9.42,20.51,10.6,.04,.08,.04,.12,.04,.12Z"/><path class="d" d="M371.12,157.9l14.17,73.86c-.53-1.19-5.16-10.6-20.51-10.6-16.38,0-26.04,20.47-32.75-4.09s0-32.75-16.38-45.04c-16.38-12.28,11.59-29.52,11.59-29.52v-.04l15.93,.04c.04-.33,.12-.7,.12-1.02l.04-20.51c0-.61-.08-1.19-.2-1.76-.04-.25-.12-.45-.16-.66-.12-.49-.33-.94-.57-1.39-.04-.12-.12-.29-.2-.41-.16-.33-.41-.57-.61-.86s-.45-.53-.7-.78c-.49-.49-1.02-.9-1.64-1.23-.49-.33-1.06-.57-1.64-.74-.78-.25-1.56-.37-2.42-.37l-8.02-.04v-9.99l17.28,.08c6.43,0,11.63,5.2,11.59,11.67v1.06l-.08,29.68c7.45,.04,13.76,5.36,15.19,12.65Z"/><path class="e" d="M341.56,115.89c.2,.29,.37,.57,.57,.86-4.99,.41-9.99,.7-15.03,.9v-.45l.04-4.46,8.02,.04c.86,0,1.64,.12,2.42,.37,.57,.16,1.15,.41,1.64,.74,.61,.33,1.15,.74,1.64,1.23,.25,.25,.49,.49,.7,.78Z"/><path class="f" d="M327.23,78.84v6.43h-.04l-.04,17.48-.04,9.99v7.04c0,1.35-1.11,2.46-2.46,2.46l-30.17-.08c-1.35,0-2.46-1.11-2.46-2.46v-7.04l.04-9.99,.04-16.95,.04-6.96c0-1.35,1.11-2.46,2.46-2.46l30.17,.08c1.35,0,2.46,1.11,2.46,2.46Z"/><path class="d" d="M317.4,308.44l-80.33-.25c-9.99,0-17.36-9.29-15.15-19l3.97-17.85h.04c1.23-.16,27.1-3.32,32.75,4.87,5.77,8.39-2.42,20.68,18.06,16.58,20.47-4.09,30.46-1.23,30.71,6.14,.25,7.04,9.13,9.29,9.95,9.5Z"/><path class="d" d="M286.16,190.53c-1.23,20.39,33.57,30.62,25.38,51.1-8.19,20.47-63.46,6.14-67.55,6.14h-12.81l6.88-30.71,10.19-45.73s39.14-1.23,37.91,19.2Z"/><path class="e" d="M292.1,85.72l-.04,16.95-13.39-.04c-6.43-.04-11.63,5.16-11.67,11.63v2.74C168.25,110.33,82.11,76.75,27.12,28.07c1.11,.25,2.17,.49,3.28,.74,21.62,4.95,44.01,9.25,67.1,12.86,54.33,26.37,121.56,42.54,194.6,44.05Z"/><path class="e" d="M292.02,112.66v5.4c-3.93-.08-7.82-.2-11.71-.37,.16-.37,.33-.7,.53-1.06,.41-.66,.9-1.27,1.47-1.8,.29-.25,.53-.49,.82-.7,.9-.61,1.92-1.11,3.07-1.31,.16-.04,.33-.08,.53-.08,.33-.08,.74-.08,1.11-.08h4.18Z"/></g></g><g id="b"/></svg>