<?xml version="1.0" encoding="UTF-8"?><svg xmlns="http://www.w3.org/2000/svg" viewBox="0 0 443 417"><defs><style>.c{fill:#f8d7d9;}.d{fill:#efa7aa;}.e{fill:#f0eeef;}.f{fill:#c19246;}.g{fill:#a96b50;}.h{fill:#25252d;}.i{fill:#955c41;}.j{fill:#723f3f;}</style></defs><g id="a"><g><path class="j" d="M351.3,188.11s4.19,29.33-10.47,35.61c-.67,.29-1.3,.65-1.89,1.09l-.04,.02-4.36,.98-2.09-4.19h-2.09c-2.79-5.72,1.03-13.51,10.47-18.85,9.45-5.34,10.47-14.66,10.47-14.66Z"/><path class="i" d="M334.54,225.82l4.36-.98c-5.45,4.02-3.04,15.33-4.36,26.12-1.65,13.55-6.54,27.09-10.47,33.52-2.62,4.27-3.46,10.22-3.44,16.11-.25-1.86-.5-3.75-.75-5.64-.59-4.42-1.17-8.86-1.76-13.2,2.16-8.19,7.5-21.35,10.14-32.89,3.08-13.43,3.25-24.89,2.09-27.23h2.09l2.09,4.19Z"/><path class="j" d="M326.55,91.72c1.82-.44,3.29,1.47,2.41,3.12-.48,.9-.98,1.99-1.57,3.21-1.36,2.95-2.95,6.79-4.55,11.56-.61,1.8-1.55,3.62-2.77,5.4-1.15,1.72-2.49,3.41-4,5.05-2.3,2.56-4.92,4.99-7.5,7.19-1.49,1.24-3.79,.69-4.53-1.13-.13-.27-.23-.54-.36-.82-.19-.48-.42-.96-.65-1.42-.02-.06-.06-.17-.13-.25-.02-.04-.04-.13-.06-.17-.23-.61-.5-1.17-.8-1.72-.04-.04-.06-.1-.08-.15-.02-.08-.08-.15-.1-.21-.4-.86-.84-1.68-1.28-2.53-.63-1.17-1.3-2.35-2.01-3.46-.31-.52-.67-1.05-.98-1.57-.02-.06-.08-.15-.15-.23-.34-.52-.67-1.03-1.03-1.55-.4-.57-.78-1.11-1.17-1.63-.31-.48-.69-.98-1.07-1.49-.04-.02-.04-.04-.06-.06l-.06-.06c-.8-1.05-1.63-2.09-2.49-3.08-.86-1.03-1.74-1.99-2.66-2.97-.92-.96-1.84-1.89-2.81-2.81,0,0,0-.02-.02-.02-.82-.82-1.13-2.07-.69-3.16,0-.02,.02-.04,.02-.08,.02-.02,.02-.06,.04-.08,.04-.1,.1-.21,.15-.31,.38-.86,1.15-1.51,2.07-1.72,2.56-.57,5.49-.73,8.88-.23,1.61,.21,3.27,.36,4.92,.42,3.96,.15,8.02-.1,11.79-.59,.61-.06,1.22-.15,1.78-.21,4.48-.65,8.53-1.51,11.5-2.22Z"/><path class="j" d="M326.3,350.57c.1,2.81,.1,5.38,0,7.69-.25,4.42-.94,7.83-2.24,10.01-6.28,10.47-12.57,9.43-27.23,9.43-13.28,0-25.14,0-33.6-6.98-3.5-2.87-5.4-9.22-6.31-16.97-.23-1.72-.38-3.5-.48-5.34l.92,1.09s2.01,.44,5.43,1.01c6.31,1.05,17.43,2.53,29.73,2.6,2.95,.02,5.97-.04,9.01-.23,11.84-.71,19.84-1.61,24.78-2.3Z"/><path class="g" d="M323.54,322.06c1.4,10.85,2.49,20.61,2.77,28.51-4.94,.69-12.95,1.59-24.78,2.3-3.04,.19-6.05,.25-9.01,.23-12.3-.06-23.42-1.55-29.73-2.6-3.41-.57-5.43-1.01-5.43-1.01l-.92-1.09c-.23-3.27-.29-6.7-.25-10.14,0-2.87,.08-5.76,.21-8.57,.71-15.13,2.72-28.47,2.72-28.47,0,0-1.19-9.09-8.38-10.47s-25.14-2.09-39.8,0-12.65,11.84-12.65,11.84c0,0,3.81,22.58,2.91,42.57-.04,1.24-.13,2.45-.21,3.65-.02,.27-.04,.52-.06,.8-1.13,.13-2.7,.34-4.4,.57-.4,.06-.84,.13-1.26,.19-4.76,.73-12.97,1.74-25.73,2.51-22.54,1.34-44.16-3.37-44.16-3.37l-.17-.19c0-13.16,1.22-30.44,1.93-48.08,.17-3.88,.36-7.69,.57-11.35,.08-1.34,.15-2.68,.23-4,.1-1.74,.23-3.44,.34-5.09,.06-.88,.13-1.74,.19-2.6l.13-1.76c.1-1.57,.23-3.12,.36-4.63,.13-1.7,.27-3.33,.4-4.92,.13-1.45,.25-2.83,.38-4.19l.13-1.45c.02-.06,.02-.13,.02-.17,0-.06,0-.1,.02-.19v-.02c0-.06,.02-.15,.02-.25,0-.04,0-.1,.02-.15,.02-.1,.02-.23,.04-.36,1.22-12.99,2.33-21.16,2.33-21.16,5.03,3.44,11.02,6.54,17.87,9.24,.15,.04,.27,.1,.42,.17,6.33,2.49,13.43,4.67,21.03,6.35,13.85,3.16,29.5,4.94,46.11,4.94,1.63,0,3.27-.04,4.88-.06h.46c1.57-.04,3.14-.1,4.69-.17,1.63-.08,3.29-.15,4.9-.27,3.67-.25,7.25-.59,10.77-.98,1.17-.15,2.33-.29,3.5-.44,2.83-.38,5.61-.82,8.34-1.3,3.21-.54,6.33-1.19,9.32-1.91,1.38-.29,2.72-.65,4.06-.98,1.07-.27,2.12-.57,3.16-.86,.88-.23,1.72-.48,2.53-.73,.21-.04,.4-.13,.57-.17,.65-.19,1.32-.4,1.95-.63,.78-.21,1.53-.46,2.26-.73,.78-.25,1.57-.52,2.33-.8,2.12-.75,4.15-1.55,6.12-2.37,1.8-.73,3.52-1.55,5.17-2.37,.34-.13,.63-.29,.94-.44,5.2-2.58,9.72-5.47,13.47-8.53,1.59-1.3,3.06-2.64,4.36-4.02,0,0,3.08,23.36,6.6,49.86,.59,4.34,1.17,8.78,1.76,13.2,.25,1.89,.5,3.77,.75,5.64,1.01,7.46,2.03,14.69,2.91,21.47Z"/><path class="c" d="M317.9,206.04c1.09,2.64,1.65,5.38,1.65,8.15,0,3.56-.92,7.04-2.68,10.37-1.32,2.53-3.12,4.99-5.36,7.33-1.3,1.38-2.77,2.72-4.36,4.02-3.75,3.06-8.27,5.95-13.47,8.53-.31,.15-.61,.31-.94,.44-1.65,.82-3.37,1.63-5.17,2.37-1.97,.82-4,1.61-6.12,2.37-.75,.27-1.55,.54-2.33,.8-.73,.27-1.49,.52-2.26,.73-.63,.23-1.3,.44-1.95,.63-.17,.04-.36,.13-.57,.17-.82,.25-1.65,.5-2.53,.73-1.05,.29-2.09,.59-3.16,.86-1.34,.34-2.68,.69-4.06,.98-3,.71-6.12,1.36-9.32,1.91-2.72,.48-5.51,.92-8.34,1.3-1.17,.15-2.33,.29-3.5,.44-3.52,.4-7.1,.73-10.77,.98-1.61,.13-3.27,.19-4.9,.27-1.55,.06-3.12,.13-4.69,.17h-.46c-1.61,.02-3.25,.06-4.88,.06-16.61,0-32.26-1.78-46.11-4.94-7.6-1.68-14.71-3.85-21.03-6.35-.15-.06-.27-.13-.42-.17-6.85-2.7-12.84-5.8-17.87-9.24-.27-.19-.54-.4-.82-.57-.61-.42-1.15-.82-1.72-1.26-8.82-6.75-13.87-14.58-13.87-22.94,0-6.98,3.52-13.6,9.87-19.48,.98-.96,2.05-1.89,3.23-2.81,2.43-1.93,5.26-3.81,8.32-5.59,.63-.34,1.24-.69,1.95-1.07,2.83-1.51,5.89-2.95,9.15-4.34,1.03-.42,2.09-.84,3.16-1.24,1.59-.63,3.23-1.19,4.92-1.76,.15-.06,.29-.1,.44-.17,.1-.02,.19-.04,.27-.08,.71-.23,1.45-.46,2.18-.67,.54-.19,1.09-.36,1.63-.52l1.34-.38c2.35-.69,4.8-1.34,7.27-1.93,1.05-.25,2.09-.48,3.14-.71,.9-.21,1.8-.4,2.72-.57,.92-.21,1.84-.38,2.74-.57,1.11-.19,2.24-.4,3.37-.59,2.26-.4,4.59-.75,6.91-1.05,.8-.13,1.59-.23,2.41-.29,.69-.1,1.38-.19,2.05-.25,1.24-.15,2.51-.27,3.79-.4,.34-.02,.67-.08,1.01-.1,1.07-.1,2.14-.17,3.25-.25,.21-.02,.42-.02,.65-.04,.96-.08,1.95-.13,2.95-.21,.57-.02,1.17-.04,1.74-.08,1.34-.06,2.68-.1,4.06-.17,2.41-.06,4.86-.13,7.29-.13,10.45,0,20.55,.73,30.06,2.07,1.82,.25,3.62,.52,5.38,.82h.02c1.78,.29,3.52,.61,5.24,.92,1.72,.36,3.39,.71,5.09,1.07,1.26,.27,2.49,.59,3.71,.88,.13,.02,.25,.08,.38,.1,.5,.13,.96,.25,1.45,.38,.48,.1,.94,.21,1.42,.36,.13,.04,.27,.06,.4,.1,1.05,.27,2.05,.57,3.06,.88,1.15,.34,2.28,.69,3.39,1.05,.92,.29,1.8,.59,2.7,.88,.75,.27,1.47,.52,2.2,.8,1.4,.52,2.83,1.07,4.19,1.63,.86,.34,1.72,.69,2.56,1.07s1.65,.71,2.45,1.11c.82,.38,1.61,.75,2.39,1.15,.78,.38,1.55,.78,2.3,1.17v.02c.71,.38,1.4,.75,2.07,1.15,.61,.34,1.24,.69,1.82,1.07,1.07,.67,2.09,1.32,3.1,2.01,2.43,1.65,4.63,3.44,6.58,5.26,.67,.59,1.32,1.26,1.93,1.89,1.59,1.7,2.97,3.46,4.11,5.26,.9,1.36,1.61,2.79,2.18,4.19Zm-76.07,8.04c.1-.27,.13-.57,.13-.86,0-1.78-1.26-3.31-3.18-4.21-1.05-.48-2.28-.75-3.6-.75-3.77,0-6.79,2.22-6.79,4.96,0,.67,.19,1.32,.54,1.89v.02c.15,.25,.29,.48,.48,.69,1.19,1.4,3.31,2.33,5.76,2.33,3.33,0,6.12-1.78,6.66-4.06Zm-32.85-.86c0-2.51-2.6-4.61-5.95-4.9-.27-.04-.57-.06-.84-.06-3.77,0-6.81,2.22-6.81,4.96,0,.8,.27,1.51,.73,2.18,1.09,1.61,3.39,2.74,6.08,2.74,3.73,0,6.79-2.22,6.79-4.92Z"/><path class="g" d="M309.69,154.95v39.76c-1.95-1.82-4.15-3.6-6.58-5.26-1.01-.69-2.03-1.34-3.1-2.01-.59-.38-1.22-.73-1.82-1.07-.67-.4-1.36-.78-2.07-1.17-.75-.4-1.53-.8-2.3-1.17-.78-.4-1.57-.8-2.39-1.15-.8-.4-1.61-.73-2.45-1.11s-1.7-.73-2.56-1.07c-1.36-.57-2.79-1.11-4.19-1.63-.73-.27-1.45-.52-2.2-.8-.9-.29-1.78-.59-2.7-.88-1.11-.36-2.24-.71-3.39-1.05-1.01-.31-2.01-.61-3.06-.88-.13-.04-.27-.06-.4-.1-.48-.15-.94-.25-1.42-.36-.48-.13-.94-.25-1.45-.38-.13-.02-.25-.08-.38-.1-1.22-.29-2.45-.61-3.71-.88-1.7-.36-3.37-.71-5.09-1.07-1.72-.34-3.46-.65-5.24-.92h-.02c-1.76-.29-3.56-.57-5.38-.82-9.51-1.34-19.61-2.07-30.06-2.07-2.43,0-4.88,.06-7.29,.13-1.38,.06-2.72,.1-4.06,.17-.57,.04-1.17,.06-1.74,.08-1.01,.08-1.99,.13-2.95,.21-.23,.02-.44,.02-.65,.04-1.11,.08-2.18,.15-3.25,.25-.34,.02-.67,.08-1.01,.1-1.28,.13-2.56,.25-3.79,.4-.67,.06-1.36,.15-2.05,.25-.82,.06-1.61,.17-2.41,.29-2.33,.29-4.65,.65-6.91,1.05-1.13,.19-2.26,.4-3.37,.59-.9,.19-1.82,.36-2.74,.57-.92,.17-1.82,.36-2.72,.57-1.05,.23-2.09,.46-3.14,.71-2.47,.59-4.92,1.24-7.27,1.93l-1.34,.38c-.54,.17-1.09,.34-1.63,.52-.73,.21-1.47,.44-2.18,.67-.08,.04-.17,.06-.27,.08-.15,.06-.29,.1-.44,.17-1.7,.57-3.33,1.13-4.92,1.76-1.07,.4-2.14,.82-3.16,1.24-3.27,1.38-6.33,2.83-9.15,4.34-.71,.38-1.32,.73-1.95,1.07-3.06,1.78-5.89,3.67-8.32,5.59-1.17,.92-2.24,1.84-3.23,2.81v-39.76c0-9.53,1.74-18.64,4.94-27.07,.15-.36,.31-.75,.48-1.13v-.02l.44-1.13v-.02c.15-.36,.27-.67,.44-1.01,.21-.46,.4-.94,.63-1.38l.17-.36c.19-.38,.34-.73,.52-1.11,.08-.19,.19-.38,.27-.57s.19-.36,.29-.54c.21-.42,.44-.86,.69-1.28,0-.02,0-.06,.02-.08,.36-.65,.67-1.3,1.03-1.91,.04-.06,.06-.13,.08-.19,.06-.08,.1-.17,.17-.27,.06-.13,.15-.25,.21-.38,.31-.44,.59-.92,.86-1.38,.42-.67,.84-1.34,1.28-2.05,.44-.61,.88-1.26,1.3-1.89,.23-.29,.42-.57,.65-.86,.08-.1,.13-.19,.21-.29,.48-.69,.98-1.38,1.53-2.03,.65-.82,1.28-1.61,1.97-2.39,.23-.31,.5-.61,.75-.9,.27-.29,.54-.57,.8-.86,.52-.59,1.05-1.15,1.59-1.7,.15-.17,.29-.34,.46-.48,.34-.34,.69-.69,1.03-1.01,.06-.06,.13-.13,.17-.19,.52-.52,1.05-1.05,1.61-1.49,.27-.27,.54-.52,.84-.8,.31-.27,.67-.61,1.03-.9,.31-.27,.67-.57,1.01-.84,.13-.1,.25-.21,.38-.29,.34-.29,.63-.52,.94-.78,4.61-3.67,9.62-6.79,15-9.26,.54-.27,1.11-.52,1.65-.78,1.4-.63,2.83-1.19,4.25-1.72,5.61-2.07,11.54-3.52,17.7-4.19,2.79-.31,5.66-.46,8.57-.46h33.04c2.53,.04,5.05,.19,7.54,.46,8.11,.9,15.86,3.1,23,6.37,.8,.38,1.59,.75,2.37,1.15,5.26,2.62,10.14,5.82,14.62,9.55,.75,.63,1.55,1.28,2.24,1.97t.04,.02c.52,.48,1.03,.92,1.51,1.4,.02,0,.02,.02,.02,.02,.96,.92,1.89,1.84,2.81,2.81,.92,.98,1.8,1.95,2.66,2.97,.86,.98,1.7,2.03,2.49,3.08l.06,.06s.02,.04,.06,.06c.36,.5,.73,.98,1.07,1.49,.4,.52,.78,1.07,1.17,1.63,.36,.52,.69,1.03,1.03,1.55,.06,.08,.13,.17,.15,.23,.31,.52,.67,1.05,.98,1.57,.71,1.11,1.38,2.28,2.01,3.46,.44,.86,.88,1.68,1.28,2.53,.02,.06,.08,.13,.1,.21,.02,.04,.04,.1,.08,.15,.27,.57,.54,1.15,.8,1.72,.02,.04,.04,.13,.06,.17,.06,.08,.1,.19,.13,.25,.23,.46,.46,.94,.65,1.42,.13,.27,.23,.54,.36,.82,.48,1.19,.94,2.45,1.38,3.67,.42,1.19,.8,2.39,1.15,3.6,.38,1.28,.71,2.53,1.03,3.83,.4,1.63,.73,3.31,.98,5.01,.17,.86,.29,1.74,.4,2.62,.21,1.34,.36,2.72,.44,4.11,.19,1.97,.25,3.98,.25,5.99Zm-48.29-5.53c.08-.59,.1-1.24,.1-1.89,0-5.7-2.43-10.31-5.47-10.31s-5.49,4.61-5.49,10.31c0,.88,.06,1.72,.19,2.53,.59,4.46,2.74,7.75,5.3,7.75,2.68,0,4.9-3.62,5.36-8.4Zm-83.11-1.89c0-5.7-2.45-10.31-5.49-10.31s-5.47,4.61-5.47,10.31,2.47,10.29,5.47,10.29,5.49-4.61,5.49-10.29Z"/><path class="e" d="M302.86,123.46c-.25-.57-.52-1.15-.8-1.72,.29,.54,.57,1.11,.8,1.72Z"/><path class="e" d="M298.19,186.37c-.67-.4-1.36-.78-2.07-1.15v-.02c.71,.4,1.4,.78,2.07,1.17Z"/><path class="e" d="M294.19,108.92c.38,.5,.75,1.01,1.07,1.49-.34-.5-.71-.98-1.07-1.49Z"/><path class="e" d="M293.81,184.02c-.78-.4-1.57-.78-2.39-1.15,.82,.36,1.61,.75,2.39,1.15Z"/><path class="f" d="M288.78,83.95c0,.34-.02,.67-.04,1.05-.29,3.31-1.84,7.81-3.65,12.15-.17,.44-.36,.9-.57,1.34-.69-.69-1.49-1.34-2.24-1.97-4.48-3.73-9.36-6.93-14.62-9.55,2.22-1.32,4.59-2.91,6.7-4.63,2.6-2.09,4.84-4.4,6.03-6.77,4.17-8.4,4.17-12.57,4.17-12.57,0,0,4.21,12.57,4.21,20.95Z"/><path class="h" d="M261.51,147.53c0,.65-.02,1.3-.1,1.89-.46,4.78-2.68,8.4-5.36,8.4s-4.71-3.29-5.3-7.75c-.13-.82-.19-1.65-.19-2.53,0-5.7,2.47-10.31,5.49-10.31s5.47,4.61,5.47,10.31Zm-3.44-4.46c0-1.15-.94-2.09-2.09-2.09s-2.09,.94-2.09,2.09,.94,2.09,2.09,2.09,2.09-.94,2.09-2.09Z"/><path class="d" d="M259.12,301.23s-2.01,13.34-2.72,28.47c-.13,2.81-.21,5.7-.21,8.57-.04,3.44,.02,6.87,.25,10.14,.1,1.84,.25,3.62,.48,5.34-6.18,2.87-15.15,5.49-27.21,5.4-12.78-.1-22.52-3.06-29.14-6.05,.15-1.15,.25-2.33,.36-3.5,.02-.27,.04-.52,.06-.8,.08-1.19,.17-2.41,.21-3.65,.9-19.99-2.91-42.57-2.91-42.57,0,0-2.01-9.74,12.65-11.84s32.62-1.38,39.8,0,8.38,10.47,8.38,10.47Z"/><circle class="e" cx="255.98" cy="143.07" r="2.09"/><path class="e" d="M253.19,171.64c1.78,.27,3.52,.59,5.24,.92-1.72-.31-3.46-.63-5.24-.92Z"/><path class="d" d="M241.96,213.23c0,.29-.02,.59-.13,.86-.54,2.28-3.33,4.06-6.66,4.06-2.45,0-4.57-.92-5.76-2.33-.19-.21-.34-.44-.48-.69v-.02c-.36-.57-.54-1.22-.54-1.89,0-2.74,3.02-4.96,6.79-4.96,1.32,0,2.56,.27,3.6,.75,1.93,.9,3.18,2.43,3.18,4.21Z"/><path class="d" d="M203.04,208.32c3.35,.29,5.95,2.39,5.95,4.9,0,2.7-3.06,4.92-6.79,4.92-2.68,0-4.99-1.13-6.08-2.74-.46-.67-.73-1.38-.73-2.18,0-2.74,3.04-4.96,6.81-4.96,.27,0,.57,.02,.84,.06Z"/><path class="j" d="M200.92,349.6c-.1,1.17-.21,2.35-.36,3.5-1.28,10.39-4.34,18.94-10.58,21.45-9.2,3.69-18.54,3.92-27.23,4.19-11.08,.36-21.47-.38-32.85-6.18-3.62-1.84-4.69-10.68-4.69-23.25l.17,.19s21.62,4.71,44.16,3.37c12.76-.78,20.97-1.78,25.73-2.51,.42-.06,.86-.13,1.26-.19,1.7-.23,3.27-.44,4.4-.57Z"/><path class="h" d="M172.81,137.22c3.04,0,5.49,4.61,5.49,10.31s-2.45,10.29-5.49,10.29-5.47-4.61-5.47-10.29,2.47-10.31,5.47-10.31Zm1.47,5.84c0-1.15-.94-2.09-2.09-2.09s-2.09,.94-2.09,2.09,.94,2.09,2.09,2.09,2.09-.94,2.09-2.09Z"/><circle class="e" cx="172.18" cy="143.07" r="2.09"/><path class="f" d="M160.37,78.67c2.37,2.77,5.82,5.36,9.18,7.46-5.38,2.47-10.39,5.59-15,9.26-.31,.25-.61,.48-.94,.78-.13,.08-.25,.19-.38,.29-.02-.08-.06-.19-.08-.25-1.82-4.5-3.29-9.11-3.29-12.26,0-.84,.04-1.74,.13-2.66,.67-8.13,4.04-18.29,4.04-18.29,0,0,0,4.17,4.21,12.57,.52,1.05,1.28,2.09,2.14,3.1Z"/><path class="j" d="M151.67,96.06c.31,.73,.1,1.61-.48,2.14-.29,.27-.57,.52-.84,.8-.57,.44-1.09,.96-1.61,1.49-.04,.06-.1,.13-.17,.19-.34,.31-.69,.67-1.03,1.01-.17,.15-.31,.31-.46,.48-.54,.54-1.07,1.11-1.59,1.7-.25,.29-.52,.57-.8,.86-.25,.29-.52,.59-.75,.9-.69,.78-1.32,1.57-1.97,2.39-.54,.65-1.05,1.34-1.53,2.03-.08,.1-.13,.19-.21,.29-.23,.29-.42,.57-.65,.86-.42,.63-.86,1.28-1.3,1.89-.44,.71-.86,1.38-1.28,2.05-.27,.46-.54,.94-.86,1.38-.06,.13-.15,.25-.21,.38-.06,.1-.1,.19-.17,.27-.02,.06-.04,.13-.08,.19-.36,.61-.67,1.26-1.03,1.91-.02,.02-.02,.06-.02,.08-.25,.42-.48,.86-.69,1.28-.1,.19-.21,.36-.29,.54-.02,.02-.04,.06-.06,.08l-.21,.48c-.19,.38-.34,.73-.52,1.11l-.17,.36c-.23,.44-.42,.92-.63,1.38-.17,.34-.29,.65-.44,1.01v.02c-.54,1.13-1.97,1.45-2.93,.63-2.05-1.74-4.09-3.65-5.97-5.61h-.04c-1.63-1.7-3.18-3.5-4.46-5.3-.31-.36-.57-.71-.8-1.09v-.02c-1.19-1.8-2.18-3.6-2.77-5.4-.67-2.03-1.36-3.94-2.05-5.66-.57-1.51-1.17-2.87-1.72-4.15l-.42-1.01c-.84-1.8-1.59-3.33-2.24-4.55-.78-1.45,.52-3.08,2.12-2.72,6.68,1.68,19.73,4.32,30.59,2.74,2.6-.38,4.96-.34,7.06-.04h.06c.65,.06,1.26,.19,1.82,.31,.59,.15,1.07,.59,1.3,1.15,.17,.4,.31,.8,.5,1.17Z"/><path class="e" d="M133.66,121.15c-.08,.19-.19,.38-.27,.57l.21-.48s.04-.06,.06-.08Z"/></g></g><g id="b"/></svg>