<?xml version="1.0" encoding="UTF-8"?><svg xmlns="http://www.w3.org/2000/svg" viewBox="0 0 623 343"><defs><style>.c{fill:#f7d0f1;}.d{fill:#fff;}.e{fill:#c19246;}.f{fill:#c99e61;}</style></defs><g id="a"><g><path class="e" d="M591.05,28.93c1.06-.29,2.05-.66,2.99-.9-50.15,53.96-136.62,92.69-238.12,102.72v-1.06c.04-6.47-5.16-11.67-11.59-11.67l-17.28-.08,.08-17.48c79.02-3.48,150.54-24.2,205.24-56.25,1.8-.41,3.6-.86,5.4-1.27,7.49-1.64,14.82-3.56,22.15-5.32,5.85-1.47,11.55-3.11,17.28-4.75,4.75-1.23,9.38-2.58,13.84-3.93Z"/><path class="c" d="M396.37,305.28c1.84,9.62-5.57,18.55-15.35,18.51l-144.03-.41c-9.99,0-17.36-9.29-15.15-19l16.13-72.14,13.35-59.82c1.64-7.21,7.98-12.24,15.31-12.24h.2l.08-28v-2.74c.04-6.47,5.24-11.67,11.67-11.63l13.39,.04-.04,9.99h-4.18c-.37,0-.78,0-1.11,.08-.2,0-.37,.04-.53,.08-1.15,.2-2.17,.7-3.07,1.31-.29,.2-.53,.45-.82,.7-.57,.53-1.06,1.15-1.47,1.8-.2,.37-.37,.7-.53,1.06-.2,.45-.37,.98-.45,1.51-.08,.33-.12,.7-.12,1.06-.08,.16-.08,.33-.08,.53l-.04,20.47c0,.33,.04,.74,.08,1.06l63.46,.16c.04-.33,.12-.7,.12-1.02l.04-20.51c0-.61-.08-1.19-.2-1.76-.04-.25-.12-.45-.16-.66-.12-.49-.33-.94-.57-1.39-.04-.12-.12-.29-.2-.41-.16-.33-.41-.57-.61-.86s-.45-.53-.7-.78c-.49-.49-1.02-.9-1.64-1.23-.49-.33-1.06-.57-1.64-.74-.78-.25-1.56-.37-2.42-.37l-8.02-.04v-9.99l17.28,.08c6.43,0,11.63,5.2,11.59,11.67v1.06l-.08,29.68c7.45,.04,13.76,5.36,15.19,12.65l21.49,111.98,3.85,20.23Zm-121.39-126.47c6.02-4.71,18.06-10.03,18.06-10.03,0,0-27.1,1.06-30.09,8.56-3.03,7.45-6.02,16.01-6.02,16.01,0,0,13.92-11.3,18.06-14.53Z"/><path class="e" d="M341.46,131.08c.2,.29,.37,.57,.57,.86-4.99,.41-9.99,.7-15.03,.9v-.45l.04-4.46,8.02,.04c.86,0,1.64,.12,2.42,.37,.57,.16,1.15,.41,1.64,.74,.61,.33,1.15,.74,1.64,1.23,.25,.25,.49,.49,.7,.78Z"/><path class="f" d="M327.13,94.02v6.43h-.04l-.04,17.48-.04,9.99v7.04c0,1.35-1.11,2.46-2.46,2.46l-30.17-.08c-1.35,0-2.46-1.11-2.46-2.46v-7.04l.04-9.99,.04-16.95,.04-6.96c0-1.35,1.11-2.46,2.46-2.46l30.17,.08c1.35,0,2.46,1.11,2.46,2.46Z"/><path class="e" d="M292.01,100.9l-.04,16.95-13.39-.04c-6.43-.04-11.63,5.16-11.67,11.63v2.74c-98.75-6.67-184.89-40.25-239.88-88.93,1.11,.25,2.17,.49,3.28,.74,21.62,4.95,44.01,9.25,67.1,12.86,54.33,26.37,121.56,42.54,194.6,44.05Z"/><path class="e" d="M291.92,127.84v5.4c-3.93-.08-7.82-.2-11.71-.37,.16-.37,.33-.7,.53-1.06,.41-.66,.9-1.27,1.47-1.8,.29-.25,.53-.49,.82-.7,.9-.61,1.92-1.11,3.07-1.31,.16-.04,.33-.08,.53-.08,.33-.08,.74-.08,1.11-.08h4.18Z"/><path class="d" d="M293.03,168.78s-12.04,5.32-18.06,10.03c-4.14,3.23-18.06,14.53-18.06,14.53,0,0,2.99-8.56,6.02-16.01,2.99-7.49,30.09-8.56,30.09-8.56Z"/></g></g><g id="b"/></svg>