<?xml version="1.0" encoding="UTF-8"?><svg xmlns="http://www.w3.org/2000/svg" viewBox="0 0 443 417"><defs><style>.c{fill:#f8d7d9;}.d{fill:#efa7aa;}.e{fill:#fff;}.f{fill:#8d543c;}.g{fill:#c19246;}.h{fill:#a96b50;}.i{fill:#25252d;}.j{fill:#955c41;}.k{fill:#723f3f;}</style></defs><g id="a"><g><path class="k" d="M407.92,258.08c2.88,10.66-.72,22.08-2.16,26.66-1.44,4.56-4.34,6.09-4.34,6.09,0,0-5.05-9.91-7.93-29.7-.18-1.31,3.23-4.94,5.07-8.89l3.98-1.07,3.19-3.67c.98,5.22,1.75,8.98,2.18,10.59Z"/><path class="j" d="M332.45,285.01s0-.02-.02,0c-.02,0-.04,.02-.06,.04-.85,.5-8.15,4.8-23.91,9.24-1.46,.42-3.01,.83-4.61,1.25-3.95,1.01-8.36,2.01-13.23,2.99-8.34,1.64-18.06,3.14-29.28,4.28-2.66,.26-5.41,.52-8.23,.74-38.02,3.03-56.47,.68-64.57-1.24v-.09c-.68-.15-1.29-.31-1.84-.44-.68-.18-1.25-.35-1.72-.5l-.17-.06c-.07-.02-.11-.04-.17-.06-.18-.06-.35-.13-.48-.17-.04-.02-.06-.02-.07-.02-.26-.11-.46-.18-.63-.26-.31-.15-.46-.22-.46-.22,0,0-1.31,.17-3.25,.39-.24,.02-.48,.06-.72,.09-.26,.02-.5,.04-.76,.07-.28,.04-.53,.06-.81,.09-.11,0-.2,.02-.31,.04s-.22,.04-.33,.04c-.07,0-.15,0-.2,.02-.42,.04-.85,.09-1.29,.13-1.46,.13-2.99,.28-4.45,.37-.46,.04-.94,.07-1.38,.09-.39,.04-.76,.06-1.13,.06-.44,.02-.87,.04-1.27,.04-.24,.02-.48,.02-.7,.02-.15,0-.3,.04-.42,.11-.74,.44-1.09,2.12-1.16,4.67-.02,.22-.02,.46-.02,.7-.02,.46-.02,.98-.02,1.51,0,.46,0,.94,.02,1.44,0,.48,.02,1,.04,1.51,.02,.57,.06,1.18,.07,1.79,.18,4.28,.59,9.35,.96,14.52,0,.06,.02,.11,.02,.17,.26,3.3,.5,6.64,.66,9.81,.06,1.14,.11,2.27,.15,3.38h-.3l-14.76-.02-18.56-.04-14.06-.02c-.13-9.59,.02-25.03,.17-35.27,.09-6.18,.17-10.48,.17-10.48,0,0-20.03-3.51-31.62-18.5-1.66-2.12-3.14-4.48-4.35-7.08-14.78-31.55-19.39-46.34-20.27-54.09,4.69,1.84,9.94,3.45,15.59,4.7,10.26,2.34,21.86,3.65,34.16,3.65,1.22,0,2.42-.02,3.62-.04h.35c1.16-.04,2.32-.07,3.47-.13,1.22-.06,2.44-.11,3.63-.2,2.71-.17,5.37-.41,7.99-.72,.87-.11,1.72-.22,2.58-.33,2.1-.28,4.15-.59,6.18-.96,2.38-.41,4.69-.89,6.92-1.42,1.01-.22,2.01-.48,3.01-.72,.79-.2,1.57-.42,2.34-.65,.65-.17,1.27-.35,1.88-.53,.15-.04,.3-.09,.42-.13,.48-.15,.98-.3,1.44-.46,.57-.17,1.13-.35,1.68-.55,.57-.18,1.16-.39,1.72-.59,1.57-.55,3.08-1.14,4.54-1.75,1.59-.65,3.1-1.37,4.54-2.08,3.84-1.9,7.19-4.04,9.98-6.31,5.85-4.78,9.19-10.28,9.19-16.1,0-2.05-.42-4.08-1.22-6.03-.98-2.44-2.56-4.78-4.67-7.01-.44-.46-.92-.96-1.42-1.4v-29.46c0-1.49-.06-2.99-.18-4.45,7.67,.24,15.81,.72,24.2,1.49,11.88,1.11,24.11,1.7,36.34,1.97,52.46,1.16,104.52-3.8,124.74-1.88,.06,0,.09,.02,.15,.02h.06c12.23-.46,23,8.23,25.01,20.38,4.13,24.74,10.74,63.88,14.37,83.12l-3.19,3.67-3.98,1.07c.28-.57,.52-1.18,.7-1.77,.11-.39,.18-.96,.22-1.66,.3-7.82-7.88-61.28-7.88-61.28,0,0-.13-6.46-8.8-25.33l5.48,61.65c.72,13.04,3.19,31.01-2.31,38.26-2.18,2.86-5.98,7.6-10.18,10.77-6.46,4.87-10.15,4.87-8.3,18.52,.24,1.75,.57,3.63,1,5.55,2.79,13.04,8.91,28.58,8.91,28.58,0,0,2.01,7.27,2.45,14.85h-47.41v-55.36Z"/><path class="k" d="M379.91,341.56c.15,3.82-.15,7.62-1.35,10.55-2.4,5.9-1.84,5.17-6.46,5.63-3.78,.39-21.4,.85-29.83,.42-1.84-.09-3.25-.22-3.97-.42-1.03-.28-1.9-1.16-2.66-2.34-.81-1.29-1.48-2.9-1.97-4.43-.83-2.58-1.24-4.93-1.24-4.93v-5.66h47.41l.06,1.11v.07Z"/><path class="k" d="M335.66,355.39h-28.3c-1.94,0-3.51-1.57-3.51-3.51v-14.09h28.59v8.25s.41,2.34,1.24,4.93c.5,1.53,1.16,3.14,1.97,4.43Z"/><path class="f" d="M332.45,301.84v35.95h-28.59v-31.55l.44,.11s.2,4.72,3.52,4.72c3.52,0,3.39-3.78,3.39-3.78h1.77s.77,6.25,3.04,5.66c3.51-.92,2.75-6.44,4.69-6.92,3.52-.87,3.52,4.41,5.87,3.51,1.83-.68,2.23-4.04,2.32-5.46,.02-.35,.02-.55,.02-.55l3.52-1.7Z"/><path class="d" d="M332.45,285.01v16.82l-3.52,1.7s0,.2-.02,.55c-.09,1.42-.5,4.78-2.32,5.46-2.34,.9-2.34-4.37-5.87-3.51-1.94,.48-1.18,6-4.69,6.92-2.27,.59-3.04-5.66-3.04-5.66h-1.77s.13,3.78-3.39,3.78c-3.32,0-3.52-4.72-3.52-4.72l-.44-.11-3.06-.83s-4.7,4.72-7.05,3.78c-2.34-.96,0-7.55-1.16-8.49-.41-.31-1.14-1.18-1.96-2.18,4.87-.98,9.28-1.97,13.23-2.99,1.6-.42,3.15-.83,4.61-1.25,15.75-4.45,23.06-8.74,23.91-9.24,.02-.02,.04-.04,.06-.04,.02-.02,.02,0,.02,0Z"/><path class="k" d="M193.46,99.03c1.4-.35,2.53,1.13,1.86,2.38-1.27,2.45-2.97,6.2-4.69,11.35-.46,1.38-1.18,2.77-2.12,4.15-2.21,3.34-5.55,6.6-8.8,9.37-.72,.61-1.68,.66-2.44,.26-.13-.37-.28-.72-.42-1.07-.09-.2-.17-.41-.26-.61-.15-.35-.31-.72-.48-1.05-.02-.06-.06-.13-.09-.18-.02-.04-.04-.09-.06-.13-.18-.42-.39-.85-.59-1.27l-.06-.11c-.02-.06-.06-.11-.07-.15-.3-.65-.63-1.25-.96-1.88-.46-.87-.96-1.73-1.48-2.56-.24-.39-.5-.77-.74-1.16-.02-.06-.06-.11-.11-.17-.24-.39-.5-.77-.76-1.16-.3-.41-.57-.81-.87-1.2-.24-.37-.52-.74-.79-1.11h-.02s-.06-.06-.07-.09c-.59-.77-1.22-1.55-1.84-2.29-.65-.76-1.29-1.48-1.97-2.2s-1.37-1.4-2.08-2.08c0,0,0-.02-.02-.02-.35-.35-.72-.68-1.11-1.03t-.04-.02c.15-.33,.3-.66,.42-1,.39-.94,.76-1.88,1.11-2.82,1.9-.41,4.08-.52,6.59-.17,4.57,.66,9.65,.35,14.15-.28,3.43-.5,6.55-1.14,8.8-1.7Z"/><path class="j" d="M188.56,302.23v.09c-.68-.17-1.31-.33-1.84-.48v-.06c.55,.13,1.16,.3,1.84,.44Z"/><path class="c" d="M187.14,184.7c.79,1.96,1.22,3.98,1.22,6.03,0,5.83-3.34,11.33-9.19,16.1-2.79,2.27-6.14,4.41-9.98,6.31-1.44,.72-2.95,1.44-4.54,2.08-1.46,.61-2.97,1.2-4.54,1.75-.55,.2-1.14,.41-1.72,.59-.55,.2-1.11,.39-1.68,.55-.46,.17-.96,.31-1.44,.46-.13,.04-.28,.09-.42,.13-.61,.18-1.24,.37-1.88,.53-.77,.22-1.55,.44-2.34,.65-1,.24-1.99,.5-3.01,.72-2.23,.53-4.54,1.01-6.92,1.42-2.01,.35-4.08,.68-6.18,.96-.87,.11-1.72,.22-2.58,.33-2.62,.3-5.28,.53-7.99,.72-1.2,.09-2.42,.15-3.63,.2-1.14,.06-2.31,.09-3.47,.13h-.35c-1.2,.02-2.4,.04-3.62,.04-12.3,0-23.91-1.31-34.16-3.65-5.64-1.25-10.9-2.86-15.59-4.7-.11-.06-.2-.09-.31-.13-5.07-2.01-9.52-4.3-13.25-6.84-.2-.15-.41-.3-.61-.42-7.32-5.2-11.55-11.35-11.55-17.93,0-5.17,2.6-10.07,7.31-14.44,.74-.7,1.53-1.38,2.4-2.07,1.81-1.44,3.89-2.84,6.16-4.15,.46-.26,.92-.52,1.44-.79,2.1-1.13,4.37-2.2,6.79-3.21,12.23-5.05,28.26-8.36,45.97-8.91,1.79-.06,3.6-.09,5.41-.09,7.75,0,15.24,.53,22.28,1.53,10.77,1.46,20.51,3.98,28.63,7.31,.63,.26,1.27,.52,1.88,.79,.63,.28,1.24,.53,1.83,.83,.61,.28,1.2,.55,1.77,.85,.57,.28,1.14,.57,1.7,.87v.02c.53,.28,1.05,.55,1.55,.85,.44,.26,.9,.52,1.35,.79,.79,.5,1.55,.98,2.29,1.49,1.81,1.24,3.43,2.55,4.89,3.89,.5,.44,.98,.94,1.42,1.4,2.1,2.23,3.69,4.57,4.67,7.01Zm-56.38,5.96c.07-.2,.09-.42,.09-.65,0-1.31-.94-2.45-2.36-3.12-.77-.35-1.7-.55-2.67-.55-2.79,0-5.04,1.64-5.04,3.67,0,.5,.15,.98,.41,1.4v.02c.11,.18,.22,.35,.37,.52,.89,1.03,2.45,1.72,4.26,1.72,2.47,0,4.54-1.31,4.94-3.01Zm-24.35-.65c0-1.86-1.92-3.41-4.41-3.63-.2-.02-.42-.04-.63-.04-2.79,0-5.04,1.64-5.04,3.67,0,.59,.2,1.13,.53,1.62,.81,1.2,2.53,2.03,4.5,2.03,2.77,0,5.04-1.64,5.04-3.65Z"/><path class="k" d="M186.71,338.18v12.91c0,2.88-2.34,5.22-5.22,5.22h-15.75l.11-.28c1-2.88,1.11-8.23,.87-14.48-.04-1.11-.09-2.23-.15-3.38h20.14Z"/><path class="f" d="M186.71,301.84v36.34h-20.14c-.17-3.17-.41-6.51-.66-9.81,0-.06-.02-.11-.02-.17-.31-5.17-.74-10.24-.96-14.52-.02-.61-.06-1.22-.07-1.79-.02-.52-.04-1.03-.04-1.51-.02-.5-.02-.98-.02-1.44,0-.53,0-1.05,.02-1.51,0-.24,0-.48,.02-.7,.15-2.93,.59-4.7,1.59-4.7,2.95,0,7.49-.42,11.07-.85,.02,0,.06,0,.09-.02,.52-.06,1.01-.11,1.48-.17,.24-.04,.48-.07,.72-.09,1.94-.22,3.25-.39,3.25-.39,0,0,.15,.07,.46,.22,.17,.07,.37,.15,.63,.26,.02,.02,.04,.02,.07,.04,.11,.02,.22,.06,.33,.11,.04,.02,.09,.04,.15,.06,.02,0,.06,.02,.07,.02,.52,.18,1.16,.41,1.97,.63Z"/><path class="j" d="M186.71,301.78v.06c-.81-.22-1.46-.44-1.97-.63,.04,0,.06,0,.09,.02l.17,.06c.46,.15,1.03,.31,1.72,.5Z"/><path class="j" d="M184.83,301.23s-.06-.02-.09-.02c-.02,0-.06-.02-.07-.02v-.02c.06,.02,.09,.04,.17,.06Z"/><path class="j" d="M184.66,301.17v.02c-.06-.02-.11-.04-.15-.06,.06,0,.09,.02,.15,.04Z"/><path class="j" d="M184.66,301.17c-.06-.02-.09-.04-.15-.04-.11-.06-.22-.09-.33-.11v-.02c.13,.04,.3,.11,.48,.17Z"/><path class="j" d="M184.18,301.01v.02s-.06-.02-.07-.04c.02,0,.04,0,.07,.02Z"/><path class="h" d="M181.05,146.82v29.46c-1.46-1.35-3.08-2.66-4.89-3.89-.74-.52-1.49-1-2.29-1.49-.44-.28-.9-.53-1.35-.79-.5-.3-1.01-.57-1.55-.87-.55-.3-1.13-.59-1.7-.87-.57-.3-1.16-.59-1.77-.85-.59-.3-1.2-.55-1.83-.83-.61-.28-1.25-.53-1.88-.79-8.12-3.32-17.86-5.85-28.63-7.31-7.05-1-14.54-1.53-22.28-1.53-1.81,0-3.62,.04-5.41,.09-17.71,.55-33.74,3.86-45.97,8.91-2.42,1.01-4.69,2.08-6.79,3.21-.52,.28-.98,.53-1.44,.79-2.27,1.31-4.35,2.71-6.16,4.15-.87,.68-1.66,1.37-2.4,2.07v-29.46c0-7.07,1.29-13.82,3.67-20.05,.11-.28,.24-.57,.35-.85v-.02s.02-.06,.04-.09c.39-.11,.74-.37,.94-.77v-.02c.11-.28,.22-.53,.37-.77,.17-.39,.33-.76,.52-1.11l.15-.28c.13-.3,.26-.59,.42-.89l.17-.37c.11-.18,.18-.33,.28-.5,.18-.35,.41-.72,.61-1.07,.28-.52,.55-1.01,.83-1.51,.04-.04,.06-.09,.09-.13l.11-.22c.07-.09,.13-.18,.18-.3,.24-.35,.46-.72,.7-1.09,.33-.53,.68-1.05,1.05-1.6,.35-.48,.7-1,1.05-1.48,.18-.24,.35-.46,.52-.68,.07-.09,.11-.15,.17-.22,.41-.55,.81-1.09,1.25-1.6,.52-.63,1.03-1.25,1.59-1.86,.18-.26,.41-.46,.61-.7,.22-.22,.44-.44,.65-.68,.41-.44,.83-.89,1.27-1.31,.13-.13,.24-.26,.39-.37,.26-.28,.53-.53,.81-.79,.04-.04,.11-.09,.15-.13,.42-.41,.83-.81,1.27-1.16,.22-.22,.44-.41,.68-.63,.28-.22,.44-.55,.5-.9,3.39-2.71,7.1-5,11.07-6.84,.41-.2,.83-.39,1.24-.57,5.07-2.23,10.53-3.74,16.27-4.37,2.07-.24,4.19-.35,6.35-.35h23.72c2.14,0,4.26,.11,6.35,.35,6.01,.66,11.75,2.29,17.05,4.72,.59,.28,1.18,.55,1.75,.85,3.91,1.94,7.53,4.32,10.85,7.08,.44,.37,.89,.74,1.31,1.14,.11,.22,.26,.44,.44,.63,.02,0,.02,.02,.02,.02,.74,.72,1.44,1.42,2.16,2.16,.7,.76,1.37,1.49,2.03,2.29,.65,.76,1.29,1.55,1.9,2.36,.06,.04,.07,.07,.11,.09,.28,.39,.57,.77,.81,1.14,.31,.41,.59,.83,.9,1.25,.26,.39,.53,.79,.77,1.2,.06,.06,.09,.11,.11,.17,.26,.41,.52,.81,.76,1.2,.53,.87,1.05,1.77,1.53,2.66,.35,.65,.68,1.29,1,1.96,.02,.04,.06,.09,.07,.15l.06,.11c.22,.42,.44,.87,.61,1.33,.02,.04,.04,.09,.06,.13,.04,.06,.07,.13,.09,.18,.18,.35,.35,.74,.5,1.09,.09,.22,.17,.42,.28,.63,.22,.52,.59,.9,1.03,1.13,.2,.55,.41,1.09,.61,1.64,.63,1.81,1.16,3.63,1.6,5.52,.44,1.84,.79,3.73,1.03,5.64,.15,1,.26,2.03,.33,3.04,.13,1.46,.18,2.95,.18,4.45Zm-35.79-4.1c.06-.44,.07-.92,.07-1.4,0-4.22-1.81-7.64-4.06-7.64s-4.06,3.41-4.06,7.64c0,.65,.04,1.27,.13,1.88,.44,3.3,2.05,5.74,3.93,5.74,1.99,0,3.63-2.67,3.98-6.22Zm-61.6-1.4c0-4.22-1.81-7.64-4.06-7.64s-4.06,3.41-4.06,7.64,1.83,7.62,4.06,7.62,4.06-3.41,4.06-7.62Z"/><path class="j" d="M178.3,301.06c.26-.04,.5-.06,.76-.07-.46,.06-.96,.11-1.48,.17,.24-.04,.48-.06,.72-.09Z"/><path class="j" d="M178.3,301.06c-.24,.04-.48,.06-.72,.09h-.09c.28-.04,.53-.06,.81-.09Z"/><path class="j" d="M177.58,301.16s-.07,.02-.09,.02v-.02h.09Z"/><path class="j" d="M177.49,301.16v.02c-.11,0-.2,.02-.31,.02,.11-.02,.2-.04,.31-.04Z"/><path class="j" d="M177.17,301.19c.11,0,.2-.02,.31-.02-3.58,.42-8.12,.85-11.07,.85-1,0-1.44,1.77-1.59,4.7,.07-2.55,.42-4.22,1.16-4.67,.13-.07,.28-.11,.42-.11,.22,0,.46,0,.7-.02,.41,0,.83-.02,1.27-.04,.37,0,.74-.02,1.13-.06,.44-.02,.92-.06,1.38-.09,1.46-.09,2.99-.24,4.45-.37,.44-.04,.87-.09,1.29-.13,.06-.02,.13-.02,.2-.02,.11,0,.22-.02,.33-.04Z"/><path class="k" d="M176.86,125.46c.15,.35,.3,.7,.42,1.07-.44-.22-.81-.61-1.03-1.13-.11-.2-.18-.41-.28-.63-.15-.35-.31-.74-.5-1.09-.02-.06-.06-.13-.09-.18-.02-.04-.04-.09-.06-.13-.17-.46-.39-.9-.61-1.33l-.06-.11c-.02-.06-.06-.11-.07-.15-.31-.66-.65-1.31-1-1.96-.48-.89-1-1.79-1.53-2.66-.24-.39-.5-.79-.76-1.2-.02-.06-.06-.11-.11-.17-.24-.41-.52-.81-.77-1.2-.31-.42-.59-.85-.9-1.25-.24-.37-.53-.76-.81-1.14-.04-.02-.06-.06-.11-.09-.61-.81-1.25-1.6-1.9-2.36-.66-.79-1.33-1.53-2.03-2.29-.72-.74-1.42-1.44-2.16-2.16,0,0,0-.02-.02-.02-.18-.18-.33-.41-.44-.63,.13,.09,.24,.2,.35,.31t.04,.02c.39,.35,.76,.68,1.11,1.03,.02,0,.02,.02,.02,.02,.72,.68,1.4,1.37,2.08,2.08s1.33,1.44,1.97,2.2c.63,.74,1.25,1.51,1.84,2.29,.02,.04,.06,.06,.07,.09,.28,.37,.55,.74,.81,1.11,.3,.39,.57,.79,.87,1.2,.26,.39,.52,.77,.76,1.16,.06,.06,.09,.11,.11,.17,.24,.39,.5,.77,.74,1.16,.52,.83,1.01,1.7,1.48,2.56,.33,.63,.66,1.24,.96,1.88,.02,.04,.06,.09,.07,.15l.06,.11c.2,.42,.41,.85,.59,1.27,.02,.04,.04,.09,.06,.13,.04,.06,.07,.13,.09,.18,.17,.33,.33,.7,.48,1.05,.09,.2,.17,.41,.26,.61Z"/><path class="j" d="M172.53,170.1c-.5-.3-1.01-.57-1.55-.85v-.02c.53,.3,1.05,.57,1.55,.87Z"/><path class="j" d="M170.35,113.82c-.26-.37-.53-.74-.81-1.11h.02c.28,.37,.55,.74,.79,1.11Z"/><path class="j" d="M169.28,168.37c-.57-.3-1.16-.57-1.77-.85,.61,.26,1.2,.55,1.77,.85Z"/><path class="k" d="M166.71,341.56c.24,6.25,.13,11.6-.87,14.48l-.11,.28c-.35,.94-.79,1.57-1.38,1.84-.24,.11-.48,.17-.74,.17-8.26-.13-38.72,0-38.72,0,0,0-4.59-1.66-5.52-8.91-.02-.22-.06-.46-.07-.76-.13-1.51-.2-4.04-.26-7.18l14.06,.02,18.56,.04,14.76,.02h.3Z"/><path class="j" d="M164.92,313.68c.22,4.28,.65,9.35,.96,14.52-.37-5.17-.77-10.24-.96-14.52Z"/><path class="g" d="M165.55,94.21c0,1.83-.68,4.34-1.62,6.95-.07,0-.15,.02-.22,.04-.7,.15-1.29,.65-1.59,1.31-.04,.07-.07,.15-.11,.24-.02,.02-.02,.06-.04,.07,0,.02-.02,.04-.02,.06-.24,.59-.18,1.24,.09,1.79-.42-.41-.87-.77-1.31-1.14-3.32-2.77-6.94-5.15-10.85-7.08,3.65-2.2,7.82-5.24,9.45-8.45,3.1-6.22,3.1-9.32,3.1-9.32,0,0,3.12,9.32,3.12,15.53Z"/><path class="k" d="M163.71,101.2c.07-.02,.15-.04,.22-.04-.35,.94-.72,1.88-1.11,2.82-.13,.33-.28,.66-.42,1-.11-.11-.22-.22-.35-.31-.28-.55-.33-1.2-.09-1.79,0-.02,.02-.04,.02-.06,.02-.02,.02-.06,.04-.07,.04-.09,.07-.17,.11-.24,.3-.66,.89-1.16,1.59-1.31Z"/><path class="i" d="M145.33,141.33c0,.48-.02,.96-.07,1.4-.35,3.54-1.99,6.22-3.98,6.22-1.88,0-3.49-2.44-3.93-5.74-.09-.61-.13-1.24-.13-1.88,0-4.22,1.83-7.64,4.06-7.64s4.06,3.41,4.06,7.64Zm-1.97-3.62c0-1.01-.83-1.84-1.84-1.84s-1.84,.83-1.84,1.84,.83,1.84,1.84,1.84,1.84-.83,1.84-1.84Z"/><circle class="e" cx="141.51" cy="137.71" r="1.84"/><path class="j" d="M134.52,222.99c2.1-.28,4.17-.61,6.18-.96-2.03,.37-4.08,.68-6.18,.96Z"/><path class="d" d="M130.85,190.01c0,.22-.02,.44-.09,.65-.41,1.7-2.47,3.01-4.94,3.01-1.81,0-3.38-.68-4.26-1.72-.15-.17-.26-.33-.37-.52v-.02c-.26-.42-.41-.9-.41-1.4,0-2.03,2.25-3.67,5.04-3.67,.98,0,1.9,.2,2.67,.55,1.42,.66,2.36,1.81,2.36,3.12Z"/><path class="j" d="M123.95,224.04c2.71-.18,5.37-.42,7.99-.72-2.62,.31-5.28,.55-7.99,.72Z"/><path class="d" d="M102,186.37c2.49,.22,4.41,1.77,4.41,3.63,0,2.01-2.27,3.65-5.04,3.65-1.97,0-3.69-.83-4.5-2.03-.33-.5-.53-1.03-.53-1.62,0-2.03,2.25-3.67,5.04-3.67,.2,0,.42,.02,.63,.04Z"/><path class="i" d="M79.61,133.69c2.25,0,4.06,3.41,4.06,7.64s-1.81,7.62-4.06,7.62-4.06-3.41-4.06-7.62,1.83-7.64,4.06-7.64Zm1.03,4.02c0-1.01-.83-1.84-1.84-1.84s-1.84,.83-1.84,1.84,.83,1.84,1.84,1.84,1.84-.83,1.84-1.84Z"/><circle class="e" cx="78.79" cy="137.71" r="1.84"/><path class="g" d="M68.79,87.99c1.46,2.91,5,5.7,8.38,7.82-3.97,1.84-7.67,4.13-11.07,6.84,.04-.26,.02-.53-.09-.79-.13-.3-.22-.61-.35-.94-.17-.46-.53-.81-1-.94-.3-.07-.61-.15-.94-.2-.68-2.1-1.14-4.06-1.14-5.57,0-6.22,3.1-15.53,3.1-15.53,0,0,0,3.1,3.12,9.32Z"/><path class="k" d="M66.01,101.87c.11,.26,.13,.53,.09,.79t-.04,.02c-.24,.18-.46,.37-.7,.57l-.28,.22c-.02-.06-.06-.13-.07-.18-.48-1.18-.92-2.36-1.29-3.51,.33,.06,.65,.13,.94,.2,.46,.13,.83,.48,1,.94,.13,.33,.22,.65,.35,.94Z"/><path class="k" d="M66.06,102.68s.02-.02,.04-.02c-.06,.35-.22,.68-.5,.9-.24,.22-.46,.41-.68,.63-.44,.35-.85,.76-1.27,1.16-.04,.04-.11,.09-.15,.13-.28,.26-.55,.52-.81,.79-.15,.11-.26,.24-.39,.37-.44,.42-.87,.87-1.27,1.31-.2,.24-.42,.46-.65,.68-.2,.24-.42,.44-.61,.7-.55,.61-1.07,1.24-1.59,1.86-.44,.52-.85,1.05-1.25,1.6-.06,.07-.09,.13-.17,.22-.17,.22-.33,.44-.52,.68-.35,.48-.7,1-1.05,1.48-.37,.55-.72,1.07-1.05,1.6-.24,.37-.46,.74-.7,1.09-.06,.11-.11,.2-.18,.3l-.11,.22s-.06,.09-.09,.13c-.28,.5-.55,1-.83,1.51-.2,.35-.42,.72-.61,1.07-.09,.17-.17,.31-.28,.5l-.17,.37c-.17,.3-.3,.59-.42,.89l-.15,.28c-.18,.35-.35,.72-.52,1.11-.15,.24-.26,.5-.37,.77v.02c-.2,.41-.55,.66-.94,.77,.09-.24,.2-.5,.3-.74v-.02c.11-.26,.2-.5,.33-.74,.15-.35,.3-.7,.46-1.03l.13-.26c.13-.28,.24-.55,.39-.83,.07-.17,.17-.33,.24-.5,.06-.11,.11-.2,.17-.31,.17-.33,.35-.68,.53-1.01,.26-.48,.5-.96,.76-1.42,.04-.04,.06-.09,.07-.13,.04-.07,.07-.13,.11-.2l.17-.28c.22-.33,.42-.68,.63-1.03,.31-.5,.63-1,.96-1.51,.31-.46,.65-.94,.96-1.4,.17-.22,.31-.42,.48-.65,.06-.07,.09-.13,.15-.2,.37-.52,.74-1.03,1.14-1.51,.48-.61,.94-1.2,1.46-1.77,.17-.24,.37-.44,.55-.66,.2-.22,.41-.42,.59-.65,.39-.42,.77-.85,1.18-1.25,.11-.13,.22-.24,.35-.35,.24-.26,.5-.52,.76-.76l.13-.13c.39-.39,.77-.77,1.18-1.11,.2-.2,.41-.39,.63-.59,.24-.2,.5-.44,.76-.66,.24-.2,.5-.42,.76-.63l.28-.22c.24-.2,.46-.39,.7-.57Z"/><path class="k" d="M65.01,103.29c.02,.06,.06,.13,.07,.18-.26,.2-.52,.42-.76,.63-.26,.22-.52,.46-.76,.66-.22,.2-.42,.39-.63,.59-.41,.33-.79,.72-1.18,1.11l-.13,.13c-.26,.24-.52,.5-.76,.76-.13,.11-.24,.22-.35,.35-.41,.41-.79,.83-1.18,1.25-.18,.22-.39,.42-.59,.65-.18,.22-.39,.42-.55,.66-.52,.57-.98,1.16-1.46,1.77-.41,.48-.77,1-1.14,1.51-.06,.07-.09,.13-.15,.2-.17,.22-.31,.42-.48,.65-.31,.46-.65,.94-.96,1.4-.33,.52-.65,1.01-.96,1.51-.2,.35-.41,.7-.63,1.03l-.17,.28c-.04,.07-.07,.13-.11,.2-.02,.04-.04,.09-.07,.13-.26,.46-.5,.94-.76,1.42-.18,.33-.37,.68-.53,1.01-.06,.11-.11,.2-.17,.31-.04,.04-.06,.09-.09,.15l-.15,.35c-.15,.28-.26,.55-.39,.83l-.13,.26c-.17,.33-.31,.68-.46,1.03-.13,.24-.22,.48-.33,.74v.02c-.09,.24-.2,.5-.3,.74-.46,.13-.98,.04-1.38-.33-1.55-1.44-3.12-2.99-4.56-4.59h-.02c-1.51-1.7-2.9-3.45-4-5.22v-.02c-.89-1.46-1.6-2.91-2.05-4.37-.9-3.1-1.84-5.72-2.73-7.9l-.31-.81c-.63-1.46-1.18-2.69-1.66-3.67-.57-1.16,.48-2.45,1.72-2.12,5.18,1.46,15.37,3.84,23.89,2.8,2.03-.24,3.89-.17,5.52,.11h.06c.17,.02,.33,.06,.48,.09,.37,1.14,.81,2.32,1.29,3.51Z"/><path class="j" d="M50.62,121.7c-.07,.17-.17,.33-.24,.5l.15-.35c.04-.06,.06-.11,.09-.15Z"/></g></g><g id="b"/></svg>