<?xml version="1.0" encoding="UTF-8"?><svg xmlns="http://www.w3.org/2000/svg" viewBox="0 0 443 417"><defs><style>.c{fill:#f8d7d9;}.d{fill:#efa7aa;}.e{fill:#fff;}.f{fill:#c19246;}.g{fill:#25252d;}.h{fill:#23201a;}.i{fill:#955c41;}.j{fill:#723f3f;}.k{fill:#562f2f;}.l{fill:#2d2922;}</style></defs><g id="a"><g><path class="l" d="M416.47,260.19c2.87,10.65-.72,22.06-2.16,26.63-1.44,4.55-4.33,6.08-4.33,6.08,0,0-5.05-9.89-7.92-29.67-.18-1.31,3.22-4.94,5.07-8.88l3.98-1.07,3.19-3.67c.98,5.21,1.75,8.97,2.17,10.58Z"/><path class="j" d="M341.09,287.09s0-.02-.02,0c-.02,0-.04,.02-.06,.04-.85,.5-8.14,4.79-23.88,9.23-1.46,.42-3,.83-4.61,1.25-3.94,1.01-8.35,2.01-13.21,2.98-8.33,1.64-18.04,3.13-29.24,4.27-2.65,.26-5.4,.52-8.22,.74-37.98,3.02-56.4,.68-64.49-1.23v-.09c-.68-.15-1.29-.31-1.84-.44-.68-.18-1.25-.35-1.71-.5l-.17-.06c-.07-.02-.11-.04-.17-.06-.18-.06-.35-.13-.48-.17-.04-.02-.06-.02-.07-.02-.26-.11-.46-.18-.63-.26-.31-.15-.46-.22-.46-.22,0,0-1.31,.17-3.24,.39-.24,.02-.48,.06-.72,.09-.26,.02-.5,.04-.76,.07-.28,.04-.53,.06-.81,.09-.11,0-.2,.02-.31,.04s-.22,.04-.33,.04c-.07,0-.15,0-.2,.02-.42,.04-.85,.09-1.29,.13-1.46,.13-2.98,.28-4.44,.37-.46,.04-.94,.07-1.38,.09-.39,.04-.76,.06-1.12,.06-.44,.02-.87,.04-1.27,.04-.24,.02-.48,.02-.7,.02-.15,0-.29,.04-.42,.11-.74,.44-1.09,2.12-1.16,4.66-.02,.22-.02,.46-.02,.7-.02,.46-.02,.98-.02,1.51,0,.46,0,.94,.02,1.44,0,.48,.02,.99,.04,1.51,.02,.57,.06,1.18,.07,1.79,.18,4.27,.59,9.34,.96,14.5,0,.06,.02,.11,.02,.17,.26,3.3,.5,6.63,.66,9.8,.06,1.14,.11,2.27,.15,3.37h-.29l-14.74-.02-18.54-.04-14.04-.02c-.13-9.58,.02-25,.17-35.23,.09-6.17,.17-10.47,.17-10.47,0,0-20.01-3.5-31.58-18.48-1.66-2.12-3.13-4.48-4.35-7.08-14.76-31.51-19.37-46.29-20.25-54.02,4.68,1.84,9.93,3.45,15.57,4.7,10.24,2.34,21.83,3.65,34.12,3.65,1.22,0,2.41-.02,3.61-.04h.35c1.16-.04,2.32-.07,3.46-.13,1.22-.06,2.43-.11,3.63-.2,2.71-.17,5.36-.41,7.98-.72,.87-.11,1.71-.22,2.58-.33,2.1-.28,4.15-.59,6.17-.96,2.38-.41,4.68-.88,6.91-1.42,1.01-.22,2.01-.48,3-.72,.79-.2,1.57-.42,2.34-.64,.64-.17,1.27-.35,1.88-.53,.15-.04,.29-.09,.42-.13,.48-.15,.98-.29,1.44-.46,.57-.17,1.12-.35,1.68-.55,.57-.18,1.16-.39,1.71-.59,1.57-.55,3.08-1.14,4.53-1.75,1.58-.64,3.1-1.36,4.53-2.08,3.83-1.9,7.19-4.04,9.97-6.3,5.84-4.77,9.18-10.26,9.18-16.09,0-2.05-.42-4.07-1.22-6.03-.98-2.43-2.56-4.77-4.66-7-.44-.46-.92-.96-1.42-1.4v-29.43c0-1.49-.06-2.98-.18-4.44,7.67,.24,15.79,.72,24.17,1.49,11.87,1.11,24.08,1.7,36.3,1.97,52.4,1.16,104.4-3.8,124.59-1.88,.06,0,.09,.02,.15,.02h.06c12.22-.46,22.98,8.22,24.99,20.36,4.13,24.71,10.72,63.81,14.35,83.03l-3.19,3.67-3.98,1.07c.28-.57,.52-1.18,.7-1.77,.11-.39,.18-.96,.22-1.66,.29-7.81-7.87-61.21-7.87-61.21,0,0-.13-6.45-8.79-25.3l5.47,61.58c.72,13.03,3.19,30.97-2.3,38.21-2.17,2.86-5.97,7.59-10.17,10.76-6.45,4.86-10.13,4.86-8.29,18.5,.24,1.75,.57,3.63,.99,5.55,2.78,13.03,8.9,28.54,8.9,28.54,0,0,2.01,7.26,2.45,14.83h-47.35v-55.3Z"/><path class="l" d="M388.5,343.57c.15,3.81-.15,7.61-1.35,10.54-2.4,5.9-1.84,5.16-6.45,5.62-3.78,.39-21.37,.85-29.79,.42-1.84-.09-3.24-.22-3.96-.42-1.03-.28-1.9-1.16-2.65-2.34-.81-1.29-1.47-2.89-1.97-4.42-.83-2.58-1.23-4.92-1.23-4.92v-5.66h47.35l.06,1.11v.07Z"/><path class="h" d="M344.3,357.39h-28.26c-1.93,0-3.5-1.57-3.5-3.5v-14.08h28.56v8.24s.41,2.34,1.23,4.92c.5,1.53,1.16,3.13,1.97,4.42Z"/><path class="k" d="M341.09,303.9v35.91h-28.56v-31.51l.44,.11s.2,4.72,3.52,4.72c3.52,0,3.39-3.78,3.39-3.78h1.77s.77,6.25,3.04,5.66c3.5-.92,2.75-6.43,4.68-6.91,3.52-.87,3.52,4.4,5.86,3.5,1.82-.68,2.23-4.04,2.32-5.45,.02-.35,.02-.55,.02-.55l3.52-1.7Z"/><path class="d" d="M341.09,287.09v16.8l-3.52,1.7s0,.2-.02,.55c-.09,1.42-.5,4.77-2.32,5.45-2.34,.9-2.34-4.37-5.86-3.5-1.93,.48-1.18,5.99-4.68,6.91-2.27,.59-3.04-5.66-3.04-5.66h-1.77s.13,3.78-3.39,3.78c-3.32,0-3.52-4.72-3.52-4.72l-.44-.11-3.06-.83s-4.7,4.72-7.04,3.78c-2.34-.96,0-7.54-1.16-8.48-.41-.31-1.14-1.18-1.95-2.17,4.86-.98,9.27-1.97,13.21-2.98,1.6-.42,3.15-.83,4.61-1.25,15.74-4.44,23.03-8.73,23.88-9.23,.02-.02,.04-.04,.06-.04,.02-.02,.02,0,.02,0Z"/><path class="l" d="M202.27,101.32c1.4-.35,2.52,1.12,1.86,2.38-1.27,2.45-2.97,6.19-4.68,11.33-.46,1.38-1.18,2.76-2.12,4.15-2.21,3.34-5.55,6.6-8.79,9.36-.72,.61-1.68,.66-2.43,.26-.13-.37-.28-.72-.42-1.07-.09-.2-.17-.41-.26-.61-.15-.35-.31-.72-.48-1.05-.02-.06-.06-.13-.09-.18-.02-.04-.04-.09-.06-.13-.18-.42-.39-.85-.59-1.27l-.06-.11c-.02-.06-.06-.11-.07-.15-.29-.64-.63-1.25-.96-1.88-.46-.87-.96-1.73-1.47-2.56-.24-.39-.5-.77-.74-1.16-.02-.06-.06-.11-.11-.17-.24-.39-.5-.77-.76-1.16-.29-.41-.57-.81-.87-1.2-.24-.37-.52-.74-.79-1.11h-.02s-.06-.06-.07-.09c-.59-.77-1.22-1.55-1.84-2.28-.64-.76-1.29-1.47-1.97-2.19s-1.36-1.4-2.08-2.08c0,0,0-.02-.02-.02-.35-.35-.72-.68-1.11-1.03t-.04-.02c.15-.33,.29-.66,.42-.99,.39-.94,.76-1.88,1.11-2.82,1.9-.41,4.07-.52,6.58-.17,4.57,.66,9.64,.35,14.13-.28,3.43-.5,6.54-1.14,8.79-1.7Z"/><path class="j" d="M197.37,304.28v.09c-.68-.17-1.31-.33-1.84-.48v-.06c.55,.13,1.16,.29,1.84,.44Z"/><path class="c" d="M195.95,186.89c.79,1.95,1.22,3.98,1.22,6.03,0,5.82-3.34,11.31-9.18,16.09-2.78,2.27-6.14,4.4-9.97,6.3-1.44,.72-2.95,1.44-4.53,2.08-1.46,.61-2.97,1.2-4.53,1.75-.55,.2-1.14,.41-1.71,.59-.55,.2-1.11,.39-1.68,.55-.46,.17-.96,.31-1.44,.46-.13,.04-.28,.09-.42,.13-.61,.18-1.23,.37-1.88,.53-.77,.22-1.55,.44-2.34,.64-.99,.24-1.99,.5-3,.72-2.23,.53-4.53,1.01-6.91,1.42-2.01,.35-4.07,.68-6.17,.96-.87,.11-1.71,.22-2.58,.33-2.62,.29-5.27,.53-7.98,.72-1.2,.09-2.41,.15-3.63,.2-1.14,.06-2.3,.09-3.46,.13h-.35c-1.2,.02-2.4,.04-3.61,.04-12.29,0-23.88-1.31-34.12-3.65-5.64-1.25-10.89-2.86-15.57-4.7-.11-.06-.2-.09-.31-.13-5.07-2.01-9.51-4.29-13.23-6.84-.2-.15-.41-.29-.61-.42-7.31-5.2-11.53-11.33-11.53-17.91,0-5.16,2.6-10.06,7.3-14.43,.74-.7,1.53-1.38,2.4-2.06,1.81-1.44,3.89-2.84,6.15-4.15,.46-.26,.92-.52,1.44-.79,2.1-1.12,4.37-2.19,6.78-3.21,12.22-5.05,28.23-8.35,45.92-8.9,1.79-.06,3.59-.09,5.4-.09,7.74,0,15.22,.53,22.26,1.53,10.76,1.46,20.49,3.98,28.6,7.3,.63,.26,1.27,.52,1.88,.79,.63,.28,1.23,.53,1.82,.83,.61,.28,1.2,.55,1.77,.85,.57,.28,1.14,.57,1.7,.87v.02c.53,.28,1.05,.55,1.55,.85,.44,.26,.9,.52,1.35,.79,.79,.5,1.55,.98,2.28,1.49,1.81,1.23,3.43,2.54,4.88,3.89,.5,.44,.98,.94,1.42,1.4,2.1,2.23,3.69,4.57,4.66,7Zm-56.31,5.95c.07-.2,.09-.42,.09-.64,0-1.31-.94-2.45-2.36-3.11-.77-.35-1.7-.55-2.67-.55-2.78,0-5.03,1.64-5.03,3.67,0,.5,.15,.98,.41,1.4v.02c.11,.18,.22,.35,.37,.52,.88,1.03,2.45,1.71,4.26,1.71,2.47,0,4.53-1.31,4.94-3Zm-24.32-.64c0-1.86-1.92-3.41-4.4-3.63-.2-.02-.42-.04-.63-.04-2.78,0-5.03,1.64-5.03,3.67,0,.59,.2,1.12,.53,1.62,.81,1.2,2.52,2.03,4.5,2.03,2.76,0,5.03-1.64,5.03-3.65Z"/><path class="h" d="M195.53,340.19v12.9c0,2.87-2.34,5.21-5.21,5.21h-15.74l.11-.28c.99-2.87,1.11-8.22,.87-14.46-.04-1.11-.09-2.23-.15-3.37h20.12Z"/><path class="k" d="M195.53,303.9v36.3h-20.12c-.17-3.17-.41-6.5-.66-9.8,0-.06-.02-.11-.02-.17-.31-5.16-.74-10.23-.96-14.5-.02-.61-.06-1.22-.07-1.79-.02-.52-.04-1.03-.04-1.51-.02-.5-.02-.98-.02-1.44,0-.53,0-1.05,.02-1.51,0-.24,0-.48,.02-.7,.15-2.93,.59-4.7,1.58-4.7,2.95,0,7.48-.42,11.06-.85,.02,0,.06,0,.09-.02,.52-.06,1.01-.11,1.47-.17,.24-.04,.48-.07,.72-.09,1.93-.22,3.24-.39,3.24-.39,0,0,.15,.07,.46,.22,.17,.07,.37,.15,.63,.26,.02,.02,.04,.02,.07,.04,.11,.02,.22,.06,.33,.11,.04,.02,.09,.04,.15,.06,.02,0,.06,.02,.07,.02,.52,.18,1.16,.41,1.97,.63Z"/><path class="j" d="M195.53,303.84v.06c-.81-.22-1.46-.44-1.97-.63,.04,0,.06,0,.09,.02l.17,.06c.46,.15,1.03,.31,1.71,.5Z"/><path class="j" d="M193.65,303.29s-.06-.02-.09-.02c-.02,0-.06-.02-.07-.02v-.02c.06,.02,.09,.04,.17,.06Z"/><path class="j" d="M193.48,303.23v.02c-.06-.02-.11-.04-.15-.06,.06,0,.09,.02,.15,.04Z"/><path class="j" d="M193.48,303.23c-.06-.02-.09-.04-.15-.04-.11-.06-.22-.09-.33-.11v-.02c.13,.04,.29,.11,.48,.17Z"/><path class="j" d="M193,303.07v.02s-.06-.02-.07-.04c.02,0,.04,0,.07,.02Z"/><path class="j" d="M189.87,149.06v29.43c-1.46-1.35-3.08-2.65-4.88-3.89-.74-.52-1.49-.99-2.28-1.49-.44-.28-.9-.53-1.35-.79-.5-.29-1.01-.57-1.55-.87-.55-.29-1.12-.59-1.7-.87-.57-.29-1.16-.59-1.77-.85-.59-.29-1.2-.55-1.82-.83-.61-.28-1.25-.53-1.88-.79-8.11-3.32-17.84-5.84-28.6-7.3-7.04-.99-14.52-1.53-22.26-1.53-1.81,0-3.61,.04-5.4,.09-17.69,.55-33.7,3.85-45.92,8.9-2.41,1.01-4.68,2.08-6.78,3.21-.52,.28-.98,.53-1.44,.79-2.27,1.31-4.35,2.71-6.15,4.15-.87,.68-1.66,1.36-2.4,2.06v-29.43c0-7.06,1.29-13.8,3.67-20.03,.11-.28,.24-.57,.35-.85v-.02s.02-.06,.04-.09c.39-.11,.74-.37,.94-.77v-.02c.11-.28,.22-.53,.37-.77,.17-.39,.33-.76,.52-1.11l.15-.28c.13-.29,.26-.59,.42-.88l.17-.37c.11-.18,.18-.33,.28-.5,.18-.35,.41-.72,.61-1.07,.28-.52,.55-1.01,.83-1.51,.04-.04,.06-.09,.09-.13l.11-.22c.07-.09,.13-.18,.18-.29,.24-.35,.46-.72,.7-1.09,.33-.53,.68-1.05,1.05-1.6,.35-.48,.7-.99,1.05-1.47,.18-.24,.35-.46,.52-.68,.07-.09,.11-.15,.17-.22,.41-.55,.81-1.09,1.25-1.6,.52-.63,1.03-1.25,1.58-1.86,.18-.26,.41-.46,.61-.7,.22-.22,.44-.44,.64-.68,.41-.44,.83-.88,1.27-1.31,.13-.13,.24-.26,.39-.37,.26-.28,.53-.53,.81-.79,.04-.04,.11-.09,.15-.13,.42-.41,.83-.81,1.27-1.16,.22-.22,.44-.41,.68-.63,.28-.22,.44-.55,.5-.9,3.39-2.71,7.09-4.99,11.06-6.84,.41-.2,.83-.39,1.23-.57,5.07-2.23,10.52-3.74,16.25-4.37,2.06-.24,4.18-.35,6.34-.35h23.7c2.14,0,4.26,.11,6.34,.35,6.01,.66,11.74,2.28,17.03,4.72,.59,.28,1.18,.55,1.75,.85,3.91,1.93,7.52,4.31,10.83,7.08,.44,.37,.88,.74,1.31,1.14,.11,.22,.26,.44,.44,.63,.02,0,.02,.02,.02,.02,.74,.72,1.44,1.42,2.16,2.16,.7,.76,1.36,1.49,2.03,2.28,.64,.76,1.29,1.55,1.9,2.36,.06,.04,.07,.07,.11,.09,.28,.39,.57,.77,.81,1.14,.31,.41,.59,.83,.9,1.25,.26,.39,.53,.79,.77,1.2,.06,.06,.09,.11,.11,.17,.26,.41,.52,.81,.76,1.2,.53,.87,1.05,1.77,1.53,2.65,.35,.64,.68,1.29,.99,1.95,.02,.04,.06,.09,.07,.15l.06,.11c.22,.42,.44,.87,.61,1.33,.02,.04,.04,.09,.06,.13,.04,.06,.07,.13,.09,.18,.18,.35,.35,.74,.5,1.09,.09,.22,.17,.42,.28,.63,.22,.52,.59,.9,1.03,1.12,.2,.55,.41,1.09,.61,1.64,.63,1.81,1.16,3.63,1.6,5.51,.44,1.84,.79,3.72,1.03,5.64,.15,.99,.26,2.03,.33,3.04,.13,1.46,.18,2.95,.18,4.44Zm-35.75-4.09c.06-.44,.07-.92,.07-1.4,0-4.22-1.81-7.63-4.05-7.63s-4.05,3.41-4.05,7.63c0,.64,.04,1.27,.13,1.88,.44,3.3,2.05,5.73,3.92,5.73,1.99,0,3.63-2.67,3.98-6.21Zm-61.52-1.4c0-4.22-1.81-7.63-4.05-7.63s-4.05,3.41-4.05,7.63,1.82,7.61,4.05,7.61,4.05-3.41,4.05-7.61Z"/><path class="j" d="M187.13,303.12c.26-.04,.5-.06,.76-.07-.46,.06-.96,.11-1.47,.17,.24-.04,.48-.06,.72-.09Z"/><path class="j" d="M187.13,303.12c-.24,.04-.48,.06-.72,.09h-.09c.28-.04,.53-.06,.81-.09Z"/><path class="j" d="M186.41,303.21s-.07,.02-.09,.02v-.02h.09Z"/><path class="j" d="M186.31,303.21v.02c-.11,0-.2,.02-.31,.02,.11-.02,.2-.04,.31-.04Z"/><path class="j" d="M186,303.25c.11,0,.2-.02,.31-.02-3.57,.42-8.11,.85-11.06,.85-.99,0-1.44,1.77-1.58,4.7,.07-2.54,.42-4.22,1.16-4.66,.13-.07,.28-.11,.42-.11,.22,0,.46,0,.7-.02,.41,0,.83-.02,1.27-.04,.37,0,.74-.02,1.12-.06,.44-.02,.92-.06,1.38-.09,1.46-.09,2.98-.24,4.44-.37,.44-.04,.87-.09,1.29-.13,.06-.02,.13-.02,.2-.02,.11,0,.22-.02,.33-.04Z"/><path class="j" d="M185.69,127.73c.15,.35,.29,.7,.42,1.07-.44-.22-.81-.61-1.03-1.12-.11-.2-.18-.41-.28-.63-.15-.35-.31-.74-.5-1.09-.02-.06-.06-.13-.09-.18-.02-.04-.04-.09-.06-.13-.17-.46-.39-.9-.61-1.33l-.06-.11c-.02-.06-.06-.11-.07-.15-.31-.66-.64-1.31-.99-1.95-.48-.88-.99-1.79-1.53-2.65-.24-.39-.5-.79-.76-1.2-.02-.06-.06-.11-.11-.17-.24-.41-.52-.81-.77-1.2-.31-.42-.59-.85-.9-1.25-.24-.37-.53-.76-.81-1.14-.04-.02-.06-.06-.11-.09-.61-.81-1.25-1.6-1.9-2.36-.66-.79-1.33-1.53-2.03-2.28-.72-.74-1.42-1.44-2.16-2.16,0,0,0-.02-.02-.02-.18-.18-.33-.41-.44-.63,.13,.09,.24,.2,.35,.31t.04,.02c.39,.35,.76,.68,1.11,1.03,.02,0,.02,.02,.02,.02,.72,.68,1.4,1.36,2.08,2.08s1.33,1.44,1.97,2.19c.63,.74,1.25,1.51,1.84,2.28,.02,.04,.06,.06,.07,.09,.28,.37,.55,.74,.81,1.11,.29,.39,.57,.79,.87,1.2,.26,.39,.52,.77,.76,1.16,.06,.06,.09,.11,.11,.17,.24,.39,.5,.77,.74,1.16,.52,.83,1.01,1.7,1.47,2.56,.33,.63,.66,1.23,.96,1.88,.02,.04,.06,.09,.07,.15l.06,.11c.2,.42,.41,.85,.59,1.27,.02,.04,.04,.09,.06,.13,.04,.06,.07,.13,.09,.18,.17,.33,.33,.7,.48,1.05,.09,.2,.17,.41,.26,.61Z"/><path class="i" d="M181.36,172.32c-.5-.29-1.01-.57-1.55-.85v-.02c.53,.29,1.05,.57,1.55,.87Z"/><path class="i" d="M179.18,116.1c-.26-.37-.53-.74-.81-1.11h.02c.28,.37,.55,.74,.79,1.11Z"/><path class="i" d="M178.12,170.59c-.57-.29-1.16-.57-1.77-.85,.61,.26,1.2,.55,1.77,.85Z"/><path class="l" d="M175.55,343.57c.24,6.25,.13,11.59-.87,14.46l-.11,.28c-.35,.94-.79,1.57-1.38,1.84-.24,.11-.48,.17-.74,.17-8.25-.13-38.68,0-38.68,0,0,0-4.59-1.66-5.51-8.9-.02-.22-.06-.46-.07-.76-.13-1.51-.2-4.04-.26-7.17l14.04,.02,18.54,.04,14.74,.02h.29Z"/><path class="j" d="M173.77,315.72c.22,4.27,.64,9.34,.96,14.5-.37-5.16-.77-10.23-.96-14.5Z"/><path class="f" d="M174.39,96.51c0,1.82-.68,4.33-1.62,6.95-.07,0-.15,.02-.22,.04-.7,.15-1.29,.64-1.58,1.31-.04,.07-.07,.15-.11,.24-.02,.02-.02,.06-.04,.07,0,.02-.02,.04-.02,.06-.24,.59-.18,1.23,.09,1.79-.42-.41-.87-.77-1.31-1.14-3.32-2.76-6.93-5.14-10.83-7.08,3.65-2.19,7.81-5.23,9.43-8.44,3.1-6.21,3.1-9.3,3.1-9.3,0,0,3.11,9.3,3.11,15.51Z"/><path class="j" d="M172.55,103.5c.07-.02,.15-.04,.22-.04-.35,.94-.72,1.88-1.11,2.82-.13,.33-.28,.66-.42,.99-.11-.11-.22-.22-.35-.31-.28-.55-.33-1.2-.09-1.79,0-.02,.02-.04,.02-.06,.02-.02,.02-.06,.04-.07,.04-.09,.07-.17,.11-.24,.29-.66,.88-1.16,1.58-1.31Z"/><path class="g" d="M154.2,143.57c0,.48-.02,.96-.07,1.4-.35,3.54-1.99,6.21-3.98,6.21-1.88,0-3.48-2.43-3.92-5.73-.09-.61-.13-1.23-.13-1.88,0-4.22,1.82-7.63,4.05-7.63s4.05,3.41,4.05,7.63Zm-1.97-3.61c0-1.01-.83-1.84-1.84-1.84s-1.84,.83-1.84,1.84,.83,1.84,1.84,1.84,1.84-.83,1.84-1.84Z"/><circle class="e" cx="150.38" cy="139.96" r="1.84"/><path class="j" d="M143.4,225.14c2.1-.28,4.16-.61,6.17-.96-2.03,.37-4.07,.68-6.17,.96Z"/><path class="d" d="M139.73,192.2c0,.22-.02,.44-.09,.64-.41,1.7-2.47,3-4.94,3-1.81,0-3.37-.68-4.26-1.71-.15-.17-.26-.33-.37-.52v-.02c-.26-.42-.41-.9-.41-1.4,0-2.03,2.25-3.67,5.03-3.67,.98,0,1.9,.2,2.67,.55,1.42,.66,2.36,1.81,2.36,3.11Z"/><path class="j" d="M132.84,226.19c2.71-.18,5.36-.42,7.98-.72-2.62,.31-5.27,.55-7.98,.72Z"/><path class="d" d="M110.92,188.57c2.49,.22,4.4,1.77,4.4,3.63,0,2.01-2.27,3.65-5.03,3.65-1.97,0-3.69-.83-4.5-2.03-.33-.5-.53-1.03-.53-1.62,0-2.03,2.25-3.67,5.03-3.67,.2,0,.42,.02,.63,.04Z"/><path class="g" d="M88.55,135.95c2.25,0,4.05,3.41,4.05,7.63s-1.81,7.61-4.05,7.61-4.05-3.41-4.05-7.61,1.82-7.63,4.05-7.63Zm1.03,4.02c0-1.01-.83-1.84-1.84-1.84s-1.84,.83-1.84,1.84,.83,1.84,1.84,1.84,1.84-.83,1.84-1.84Z"/><circle class="e" cx="87.74" cy="139.96" r="1.84"/><path class="f" d="M77.75,90.3c1.46,2.91,4.99,5.69,8.37,7.81-3.96,1.84-7.67,4.13-11.06,6.84,.04-.26,.02-.53-.09-.79-.13-.29-.22-.61-.35-.94-.17-.46-.53-.81-.99-.94-.29-.07-.61-.15-.94-.2-.68-2.1-1.14-4.05-1.14-5.56,0-6.21,3.1-15.51,3.1-15.51,0,0,0,3.1,3.11,9.3Z"/><path class="j" d="M74.97,104.16c.11,.26,.13,.53,.09,.79t-.04,.02c-.24,.18-.46,.37-.7,.57l-.28,.22c-.02-.06-.06-.13-.07-.18-.48-1.18-.92-2.36-1.29-3.5,.33,.06,.64,.13,.94,.2,.46,.13,.83,.48,.99,.94,.13,.33,.22,.64,.35,.94Z"/><path class="j" d="M75.02,104.97s.02-.02,.04-.02c-.06,.35-.22,.68-.5,.9-.24,.22-.46,.41-.68,.63-.44,.35-.85,.76-1.27,1.16-.04,.04-.11,.09-.15,.13-.28,.26-.55,.52-.81,.79-.15,.11-.26,.24-.39,.37-.44,.42-.87,.87-1.27,1.31-.2,.24-.42,.46-.64,.68-.2,.24-.42,.44-.61,.7-.55,.61-1.07,1.23-1.58,1.86-.44,.52-.85,1.05-1.25,1.6-.06,.07-.09,.13-.17,.22-.17,.22-.33,.44-.52,.68-.35,.48-.7,.99-1.05,1.47-.37,.55-.72,1.07-1.05,1.6-.24,.37-.46,.74-.7,1.09-.06,.11-.11,.2-.18,.29l-.11,.22s-.06,.09-.09,.13c-.28,.5-.55,.99-.83,1.51-.2,.35-.42,.72-.61,1.07-.09,.17-.17,.31-.28,.5l-.17,.37c-.17,.29-.29,.59-.42,.88l-.15,.28c-.18,.35-.35,.72-.52,1.11-.15,.24-.26,.5-.37,.77v.02c-.2,.41-.55,.66-.94,.77,.09-.24,.2-.5,.29-.74v-.02c.11-.26,.2-.5,.33-.74,.15-.35,.29-.7,.46-1.03l.13-.26c.13-.28,.24-.55,.39-.83,.07-.17,.17-.33,.24-.5,.06-.11,.11-.2,.17-.31,.17-.33,.35-.68,.53-1.01,.26-.48,.5-.96,.76-1.42,.04-.04,.06-.09,.07-.13,.04-.07,.07-.13,.11-.2l.17-.28c.22-.33,.42-.68,.63-1.03,.31-.5,.63-.99,.96-1.51,.31-.46,.64-.94,.96-1.4,.17-.22,.31-.42,.48-.64,.06-.07,.09-.13,.15-.2,.37-.52,.74-1.03,1.14-1.51,.48-.61,.94-1.2,1.46-1.77,.17-.24,.37-.44,.55-.66,.2-.22,.41-.42,.59-.64,.39-.42,.77-.85,1.18-1.25,.11-.13,.22-.24,.35-.35,.24-.26,.5-.52,.76-.76l.13-.13c.39-.39,.77-.77,1.18-1.11,.2-.2,.41-.39,.63-.59,.24-.2,.5-.44,.76-.66,.24-.2,.5-.42,.76-.63l.28-.22c.24-.2,.46-.39,.7-.57Z"/><path class="l" d="M73.97,105.58c.02,.06,.06,.13,.07,.18-.26,.2-.52,.42-.76,.63-.26,.22-.52,.46-.76,.66-.22,.2-.42,.39-.63,.59-.41,.33-.79,.72-1.18,1.11l-.13,.13c-.26,.24-.52,.5-.76,.76-.13,.11-.24,.22-.35,.35-.41,.41-.79,.83-1.18,1.25-.18,.22-.39,.42-.59,.64-.18,.22-.39,.42-.55,.66-.52,.57-.98,1.16-1.46,1.77-.41,.48-.77,.99-1.14,1.51-.06,.07-.09,.13-.15,.2-.17,.22-.31,.42-.48,.64-.31,.46-.64,.94-.96,1.4-.33,.52-.64,1.01-.96,1.51-.2,.35-.41,.7-.63,1.03l-.17,.28c-.04,.07-.07,.13-.11,.2-.02,.04-.04,.09-.07,.13-.26,.46-.5,.94-.76,1.42-.18,.33-.37,.68-.53,1.01-.06,.11-.11,.2-.17,.31-.04,.04-.06,.09-.09,.15l-.15,.35c-.15,.28-.26,.55-.39,.83l-.13,.26c-.17,.33-.31,.68-.46,1.03-.13,.24-.22,.48-.33,.74v.02c-.09,.24-.2,.5-.29,.74-.46,.13-.98,.04-1.38-.33-1.55-1.44-3.11-2.98-4.55-4.59h-.02c-1.51-1.7-2.89-3.45-4-5.21v-.02c-.88-1.46-1.6-2.91-2.05-4.37-.9-3.1-1.84-5.71-2.73-7.89l-.31-.81c-.63-1.46-1.18-2.69-1.66-3.67-.57-1.16,.48-2.45,1.71-2.12,5.18,1.46,15.35,3.83,23.86,2.8,2.03-.24,3.89-.17,5.51,.11h.06c.17,.02,.33,.06,.48,.09,.37,1.14,.81,2.32,1.29,3.5Z"/><path class="i" d="M59.6,123.97c-.07,.17-.17,.33-.24,.5l.15-.35c.04-.06,.06-.11,.09-.15Z"/></g></g><g id="b"/></svg>