<?xml version="1.0" encoding="UTF-8"?><svg xmlns="http://www.w3.org/2000/svg" viewBox="0 0 443 417"><defs><style>.c{fill:#f8d7d9;}.d{fill:#efa7aa;}.e{fill:#fff;}.f{fill:#955c41;}.g{fill:#723f3f;}.h{fill:#2d2922;}</style></defs><g id="a"><g><path class="h" d="M351.43,174.51s4.33,30.31-10.83,36.81c-.69,.3-1.34,.67-1.95,1.13l-.04,.02-4.5,1.02-2.17-4.33h-2.17c-2.88-5.91,1.06-13.96,10.83-19.49,9.76-5.52,10.83-15.16,10.83-15.16Z"/><path class="g" d="M334.11,213.48l4.5-1.02c-5.63,4.16-3.14,15.85-4.5,27-1.71,14.01-6.76,27.99-10.83,34.64-2.71,4.42-3.57,10.57-3.55,16.65-.26-1.93-.52-3.88-.78-5.82-.61-4.57-1.21-9.16-1.82-13.64,2.23-8.47,7.75-22.06,10.48-33.99,3.18-13.88,3.36-25.72,2.17-28.15h2.17l2.17,4.33Z"/><path class="h" d="M325.86,74.89c1.88-.45,3.4,1.52,2.49,3.23-.5,.93-1.02,2.06-1.62,3.31-1.41,3.05-3.05,7.01-4.7,11.95-.63,1.86-1.6,3.75-2.86,5.59-1.19,1.78-2.58,3.53-4.14,5.22-2.38,2.64-5.09,5.15-7.75,7.43-1.54,1.28-3.92,.71-4.68-1.17-.13-.28-.24-.56-.37-.84-.19-.5-.43-1-.67-1.47-.02-.06-.06-.17-.13-.26-.02-.04-.04-.13-.06-.17-.24-.63-.52-1.21-.82-1.78-.04-.04-.06-.11-.09-.15-.02-.09-.09-.15-.11-.22-.41-.89-.87-1.73-1.32-2.62-.65-1.21-1.34-2.42-2.08-3.57-.32-.54-.69-1.08-1.02-1.62-.02-.06-.09-.15-.15-.24-.35-.54-.69-1.06-1.06-1.6-.41-.58-.8-1.15-1.21-1.69-.32-.5-.71-1.02-1.1-1.54-.04-.02-.04-.04-.06-.06l-.06-.06c-.82-1.08-1.69-2.17-2.58-3.18-.89-1.06-1.8-2.06-2.75-3.07-.95-1-1.91-1.95-2.9-2.9,0,0,0-.02-.02-.02-.84-.84-1.17-2.14-.71-3.27,0-.02,.02-.04,.02-.09,.02-.02,.02-.06,.04-.09,.04-.11,.11-.22,.15-.32,.39-.89,1.19-1.56,2.14-1.78,2.64-.58,5.67-.76,9.18-.24,1.67,.22,3.38,.37,5.09,.43,4.09,.15,8.29-.11,12.19-.61,.63-.06,1.26-.15,1.84-.22,4.63-.67,8.81-1.56,11.89-2.3Z"/><path class="h" d="M325.6,342.42c.11,2.9,.11,5.56,0,7.95-.26,4.57-.97,8.1-2.32,10.35-6.5,10.83-12.99,9.74-28.15,9.74-13.73,0-25.98,0-34.73-7.21-3.62-2.97-5.59-9.53-6.52-17.54-.24-1.78-.39-3.62-.5-5.52l.95,1.13s2.08,.45,5.61,1.04c6.52,1.08,18.01,2.62,30.72,2.68,3.05,.02,6.17-.04,9.31-.24,12.23-.74,20.5-1.67,25.61-2.38Z"/><path class="g" d="M322.74,312.95c1.45,11.22,2.58,21.3,2.86,29.47-5.11,.71-13.38,1.65-25.61,2.38-3.14,.19-6.26,.26-9.31,.24-12.71-.06-24.21-1.6-30.72-2.68-3.53-.58-5.61-1.04-5.61-1.04l-.95-1.13c-.24-3.38-.3-6.93-.26-10.48,0-2.97,.09-5.95,.22-8.86,.74-15.63,2.81-29.42,2.81-29.42,0,0-1.23-9.4-8.66-10.83s-25.98-2.17-41.14,0-13.08,12.23-13.08,12.23c0,0,3.94,23.34,3.01,44-.04,1.28-.13,2.53-.22,3.77-.02,.28-.04,.54-.06,.82-1.17,.13-2.79,.35-4.55,.58-.41,.06-.87,.13-1.3,.19-4.91,.76-13.4,1.8-26.59,2.6-23.3,1.39-45.64-3.49-45.64-3.49l-.17-.19c0-13.6,1.26-31.46,1.99-49.69,.17-4.01,.37-7.95,.58-11.73,.09-1.39,.15-2.77,.24-4.14,.11-1.8,.24-3.55,.35-5.26,.06-.91,.13-1.8,.19-2.68l.13-1.82c.11-1.62,.24-3.23,.37-4.78,.13-1.75,.28-3.44,.41-5.09,.13-1.49,.26-2.92,.39-4.33l.13-1.49c.02-.06,.02-.13,.02-.17,0-.06,0-.11,.02-.19v-.02c0-.06,.02-.15,.02-.26,0-.04,0-.11,.02-.15,.02-.11,.02-.24,.04-.37,1.26-13.42,2.4-21.87,2.4-21.87,5.2,3.55,11.39,6.76,18.47,9.55,.15,.04,.28,.11,.43,.17,6.54,2.58,13.88,4.83,21.74,6.56,14.31,3.27,30.48,5.11,47.65,5.11,1.69,0,3.38-.04,5.04-.06h.48c1.62-.04,3.25-.11,4.85-.17,1.69-.09,3.4-.15,5.07-.28,3.79-.26,7.49-.61,11.13-1.02,1.21-.15,2.4-.3,3.62-.45,2.92-.39,5.8-.84,8.62-1.34,3.31-.56,6.54-1.23,9.63-1.97,1.43-.3,2.81-.67,4.2-1.02,1.1-.28,2.19-.58,3.27-.89,.91-.24,1.78-.5,2.62-.76,.22-.04,.41-.13,.58-.17,.67-.19,1.36-.41,2.01-.65,.8-.22,1.58-.48,2.34-.76,.8-.26,1.62-.54,2.4-.82,2.19-.78,4.29-1.6,6.32-2.45,1.86-.76,3.64-1.6,5.35-2.45,.35-.13,.65-.3,.97-.45,5.37-2.66,10.05-5.65,13.92-8.81,1.65-1.34,3.16-2.73,4.5-4.16,0,0,3.18,24.14,6.82,51.53,.61,4.48,1.21,9.07,1.82,13.64,.26,1.95,.52,3.9,.78,5.82,1.04,7.71,2.1,15.18,3.01,22.19Z"/><path class="c" d="M316.92,193.04c1.13,2.73,1.71,5.56,1.71,8.42,0,3.68-.95,7.27-2.77,10.72-1.36,2.62-3.23,5.15-5.54,7.58-1.34,1.43-2.86,2.81-4.5,4.16-3.88,3.16-8.55,6.15-13.92,8.81-.32,.15-.63,.32-.97,.45-1.71,.84-3.49,1.69-5.35,2.45-2.04,.84-4.14,1.67-6.32,2.45-.78,.28-1.6,.56-2.4,.82-.76,.28-1.54,.54-2.34,.76-.65,.24-1.34,.45-2.01,.65-.17,.04-.37,.13-.58,.17-.84,.26-1.71,.52-2.62,.76-1.08,.3-2.17,.61-3.27,.89-1.39,.35-2.77,.71-4.2,1.02-3.1,.74-6.32,1.41-9.63,1.97-2.81,.5-5.69,.95-8.62,1.34-1.21,.15-2.4,.3-3.62,.45-3.64,.41-7.34,.76-11.13,1.02-1.67,.13-3.38,.19-5.07,.28-1.6,.06-3.23,.13-4.85,.17h-.48c-1.67,.02-3.36,.06-5.04,.06-17.17,0-33.34-1.84-47.65-5.11-7.86-1.73-15.2-3.98-21.74-6.56-.15-.06-.28-.13-.43-.17-7.08-2.79-13.27-6-18.47-9.55-.28-.19-.56-.41-.84-.58-.63-.43-1.19-.84-1.78-1.3-9.12-6.97-14.33-15.07-14.33-23.71,0-7.21,3.64-14.05,10.2-20.14,1.02-1,2.12-1.95,3.33-2.9,2.51-1.99,5.43-3.94,8.6-5.78,.65-.35,1.28-.71,2.01-1.1,2.92-1.56,6.08-3.05,9.46-4.48,1.06-.43,2.17-.87,3.27-1.28,1.65-.65,3.33-1.23,5.09-1.82,.15-.06,.3-.11,.45-.17,.11-.02,.19-.04,.28-.09,.74-.24,1.49-.48,2.25-.69,.56-.19,1.13-.37,1.69-.54l1.39-.39c2.42-.71,4.96-1.39,7.51-1.99,1.08-.26,2.17-.5,3.25-.74,.93-.22,1.86-.41,2.81-.58,.95-.22,1.91-.39,2.84-.58,1.15-.19,2.32-.41,3.49-.61,2.34-.41,4.74-.78,7.14-1.08,.82-.13,1.65-.24,2.49-.3,.71-.11,1.43-.19,2.12-.26,1.28-.15,2.6-.28,3.92-.41,.35-.02,.69-.09,1.04-.11,1.1-.11,2.21-.17,3.36-.26,.22-.02,.43-.02,.67-.04,1-.09,2.01-.13,3.05-.22,.58-.02,1.21-.04,1.8-.09,1.39-.06,2.77-.11,4.2-.17,2.49-.06,5.02-.13,7.53-.13,10.8,0,21.24,.76,31.07,2.14,1.88,.26,3.75,.54,5.56,.84h.02c1.84,.3,3.64,.63,5.41,.95,1.78,.37,3.51,.74,5.26,1.1,1.3,.28,2.58,.61,3.83,.91,.13,.02,.26,.09,.39,.11,.52,.13,1,.26,1.49,.39,.5,.11,.97,.22,1.47,.37,.13,.04,.28,.06,.41,.11,1.08,.28,2.12,.58,3.16,.91,1.19,.35,2.36,.71,3.51,1.08,.95,.3,1.86,.61,2.79,.91,.78,.28,1.52,.54,2.27,.82,1.45,.54,2.92,1.1,4.33,1.69,.89,.35,1.78,.71,2.64,1.1s1.71,.74,2.53,1.15c.84,.39,1.67,.78,2.47,1.19,.8,.39,1.6,.8,2.38,1.21v.02c.74,.39,1.45,.78,2.14,1.19,.63,.35,1.28,.71,1.88,1.1,1.1,.69,2.17,1.36,3.2,2.08,2.51,1.71,4.78,3.55,6.8,5.43,.69,.61,1.36,1.3,1.99,1.95,1.65,1.75,3.07,3.57,4.24,5.43,.93,1.41,1.67,2.88,2.25,4.33Zm-78.62,8.31c.11-.28,.13-.58,.13-.89,0-1.84-1.3-3.42-3.29-4.35-1.08-.5-2.36-.78-3.72-.78-3.9,0-7.01,2.3-7.01,5.13,0,.69,.19,1.36,.56,1.95v.02c.15,.26,.3,.5,.5,.71,1.23,1.45,3.42,2.4,5.95,2.4,3.44,0,6.32-1.84,6.89-4.2Zm-33.95-.89c0-2.6-2.68-4.76-6.15-5.07-.28-.04-.58-.06-.87-.06-3.9,0-7.04,2.3-7.04,5.13,0,.82,.28,1.56,.76,2.25,1.13,1.67,3.51,2.84,6.28,2.84,3.85,0,7.01-2.3,7.01-5.09Z"/><path class="g" d="M308.43,140.24v41.09c-2.01-1.88-4.29-3.72-6.8-5.43-1.04-.71-2.1-1.39-3.2-2.08-.61-.39-1.26-.76-1.88-1.1-.69-.41-1.41-.8-2.14-1.21-.78-.41-1.58-.82-2.38-1.21-.8-.41-1.62-.82-2.47-1.19-.82-.41-1.67-.76-2.53-1.15s-1.75-.76-2.64-1.1c-1.41-.58-2.88-1.15-4.33-1.69-.76-.28-1.49-.54-2.27-.82-.93-.3-1.84-.61-2.79-.91-1.15-.37-2.32-.74-3.51-1.08-1.04-.32-2.08-.63-3.16-.91-.13-.04-.28-.06-.41-.11-.5-.15-.97-.26-1.47-.37-.5-.13-.97-.26-1.49-.39-.13-.02-.26-.09-.39-.11-1.26-.3-2.53-.63-3.83-.91-1.75-.37-3.49-.74-5.26-1.1-1.78-.35-3.57-.67-5.41-.95h-.02c-1.82-.3-3.68-.58-5.56-.84-9.83-1.39-20.27-2.14-31.07-2.14-2.51,0-5.04,.06-7.53,.13-1.43,.06-2.81,.11-4.2,.17-.58,.04-1.21,.06-1.8,.09-1.04,.09-2.06,.13-3.05,.22-.24,.02-.45,.02-.67,.04-1.15,.09-2.25,.15-3.36,.26-.35,.02-.69,.09-1.04,.11-1.32,.13-2.64,.26-3.92,.41-.69,.06-1.41,.15-2.12,.26-.84,.06-1.67,.17-2.49,.3-2.4,.3-4.81,.67-7.14,1.08-1.17,.19-2.34,.41-3.49,.61-.93,.19-1.88,.37-2.84,.58-.95,.17-1.88,.37-2.81,.58-1.08,.24-2.17,.48-3.25,.74-2.55,.61-5.09,1.28-7.51,1.99l-1.39,.39c-.56,.17-1.13,.35-1.69,.54-.76,.22-1.52,.45-2.25,.69-.09,.04-.17,.06-.28,.09-.15,.06-.3,.11-.45,.17-1.75,.58-3.44,1.17-5.09,1.82-1.1,.41-2.21,.84-3.27,1.28-3.38,1.43-6.54,2.92-9.46,4.48-.74,.39-1.36,.76-2.01,1.1-3.16,1.84-6.08,3.79-8.6,5.78-1.21,.95-2.32,1.91-3.33,2.9v-41.09c0-9.85,1.8-19.27,5.11-27.97,.15-.37,.32-.78,.5-1.17v-.02l.45-1.17v-.02c.15-.37,.28-.69,.45-1.04,.22-.48,.41-.97,.65-1.43l.17-.37c.19-.39,.35-.76,.54-1.15,.09-.19,.19-.39,.28-.58s.19-.37,.3-.56c.22-.43,.45-.89,.71-1.32,0-.02,0-.06,.02-.09,.37-.67,.69-1.34,1.06-1.97,.04-.06,.06-.13,.09-.19,.06-.09,.11-.17,.17-.28,.06-.13,.15-.26,.22-.39,.32-.45,.61-.95,.89-1.43,.43-.69,.87-1.39,1.32-2.12,.45-.63,.91-1.3,1.34-1.95,.24-.3,.43-.58,.67-.89,.09-.11,.13-.19,.22-.3,.5-.71,1.02-1.43,1.58-2.1,.67-.84,1.32-1.67,2.04-2.47,.24-.32,.52-.63,.78-.93,.28-.3,.56-.58,.82-.89,.54-.61,1.08-1.19,1.65-1.75,.15-.17,.3-.35,.48-.5,.35-.35,.71-.71,1.06-1.04,.06-.06,.13-.13,.17-.19,.54-.54,1.08-1.08,1.67-1.54,.28-.28,.56-.54,.87-.82,.32-.28,.69-.63,1.06-.93,.32-.28,.69-.58,1.04-.87,.13-.11,.26-.22,.39-.3,.35-.3,.65-.54,.97-.8,4.76-3.79,9.94-7.01,15.5-9.57,.56-.28,1.15-.54,1.71-.8,1.45-.65,2.92-1.23,4.4-1.78,5.8-2.14,11.93-3.64,18.3-4.33,2.88-.32,5.85-.48,8.86-.48h34.14c2.62,.04,5.22,.19,7.79,.48,8.38,.93,16.39,3.2,23.77,6.58,.82,.39,1.65,.78,2.45,1.19,5.43,2.71,10.48,6.02,15.11,9.87,.78,.65,1.6,1.32,2.32,2.04t.04,.02c.54,.5,1.06,.95,1.56,1.45,.02,0,.02,.02,.02,.02,1,.95,1.95,1.91,2.9,2.9,.95,1.02,1.86,2.01,2.75,3.07,.89,1.02,1.75,2.1,2.58,3.18l.06,.06s.02,.04,.06,.06c.37,.52,.76,1.02,1.1,1.54,.41,.54,.8,1.1,1.21,1.69,.37,.54,.71,1.06,1.06,1.6,.06,.09,.13,.17,.15,.24,.32,.54,.69,1.08,1.02,1.62,.74,1.15,1.43,2.36,2.08,3.57,.45,.89,.91,1.73,1.32,2.62,.02,.06,.09,.13,.11,.22,.02,.04,.04,.11,.09,.15,.28,.58,.56,1.19,.82,1.78,.02,.04,.04,.13,.06,.17,.06,.09,.11,.19,.13,.26,.24,.48,.48,.97,.67,1.47,.13,.28,.24,.56,.37,.84,.5,1.23,.97,2.53,1.43,3.79,.43,1.23,.82,2.47,1.19,3.72,.39,1.32,.74,2.62,1.06,3.96,.41,1.69,.76,3.42,1.02,5.17,.17,.89,.3,1.8,.41,2.71,.22,1.39,.37,2.81,.45,4.24,.19,2.04,.26,4.11,.26,6.19Zm-49.91-5.72c.09-.61,.11-1.28,.11-1.95,0-5.89-2.51-10.65-5.65-10.65s-5.67,4.76-5.67,10.65c0,.91,.06,1.78,.19,2.62,.61,4.61,2.84,8.01,5.48,8.01,2.77,0,5.07-3.75,5.54-8.68Zm-85.89-1.95c0-5.89-2.53-10.65-5.67-10.65s-5.65,4.76-5.65,10.65,2.55,10.63,5.65,10.63,5.67-4.76,5.67-10.63Z"/><path class="f" d="M301.37,107.7c-.26-.58-.54-1.19-.82-1.78,.3,.56,.58,1.15,.82,1.78Z"/><path class="f" d="M296.54,172.71c-.69-.41-1.41-.8-2.14-1.19v-.02c.74,.41,1.45,.8,2.14,1.21Z"/><path class="f" d="M292.41,92.67c.39,.52,.78,1.04,1.1,1.54-.35-.52-.74-1.02-1.1-1.54Z"/><path class="f" d="M292.02,170.29c-.8-.41-1.62-.8-2.47-1.19,.84,.37,1.67,.78,2.47,1.19Z"/><path class="f" d="M286.82,66.86c0,.35-.02,.69-.04,1.08-.3,3.42-1.91,8.08-3.77,12.56-.17,.45-.37,.93-.58,1.39-.71-.71-1.54-1.39-2.32-2.04-4.63-3.85-9.68-7.17-15.11-9.87,2.3-1.36,4.74-3.01,6.93-4.78,2.68-2.17,5-4.55,6.24-6.99,4.31-8.68,4.31-12.99,4.31-12.99,0,0,4.35,12.99,4.35,21.65Z"/><path class="h" d="M258.63,132.57c0,.67-.02,1.34-.11,1.95-.48,4.94-2.77,8.68-5.54,8.68s-4.87-3.4-5.48-8.01c-.13-.84-.19-1.71-.19-2.62,0-5.89,2.55-10.65,5.67-10.65s5.65,4.76,5.65,10.65Zm-3.16-4.07c0-1.23-1.02-2.23-2.25-2.23s-2.23,1-2.23,2.23,1,2.23,2.23,2.23,2.25-1,2.25-2.23Z"/><path class="d" d="M256.16,291.43s-2.08,13.79-2.81,29.42c-.13,2.9-.22,5.89-.22,8.86-.04,3.55,.02,7.1,.26,10.48,.11,1.91,.26,3.75,.5,5.52-6.39,2.97-15.65,5.67-28.12,5.59-13.21-.11-23.27-3.16-30.12-6.26,.15-1.19,.26-2.4,.37-3.62,.02-.28,.04-.54,.06-.82,.09-1.23,.17-2.49,.22-3.77,.93-20.66-3.01-44-3.01-44,0,0-2.08-10.07,13.08-12.23s33.71-1.43,41.14,0,8.66,10.83,8.66,10.83Z"/><path class="e" d="M253.22,126.27c1.23,0,2.25,1,2.25,2.23s-1.02,2.23-2.25,2.23-2.23-1-2.23-2.23,1-2.23,2.23-2.23Z"/><path class="f" d="M250.04,157.49c1.84,.28,3.64,.61,5.41,.95-1.78-.32-3.57-.65-5.41-.95Z"/><path class="d" d="M238.43,200.47c0,.3-.02,.61-.13,.89-.56,2.36-3.44,4.2-6.89,4.2-2.53,0-4.72-.95-5.95-2.4-.19-.22-.35-.45-.5-.71v-.02c-.37-.58-.56-1.26-.56-1.95,0-2.84,3.12-5.13,7.01-5.13,1.36,0,2.64,.28,3.72,.78,1.99,.93,3.29,2.51,3.29,4.35Z"/><path class="d" d="M198.2,195.4c3.46,.3,6.15,2.47,6.15,5.07,0,2.79-3.16,5.09-7.01,5.09-2.77,0-5.15-1.17-6.28-2.84-.48-.69-.76-1.43-.76-2.25,0-2.84,3.14-5.13,7.04-5.13,.28,0,.58,.02,.87,.06Z"/><path class="h" d="M196.02,341.42c-.11,1.21-.22,2.42-.37,3.62-1.32,10.74-4.48,19.57-10.93,22.17-9.5,3.81-19.16,4.05-28.15,4.33-11.45,.37-22.19-.39-33.95-6.39-3.75-1.91-4.85-11.04-4.85-24.03l.17,.19s22.34,4.87,45.64,3.49c13.19-.8,21.67-1.84,26.59-2.6,.43-.06,.89-.13,1.3-.19,1.75-.24,3.38-.45,4.55-.58Z"/><path class="h" d="M166.96,121.92c3.14,0,5.67,4.76,5.67,10.65s-2.53,10.63-5.67,10.63-5.65-4.76-5.65-10.63,2.55-10.65,5.65-10.65Zm.74,6.95c0-1.45-1.15-2.6-2.6-2.6s-2.6,1.15-2.6,2.6,1.17,2.6,2.6,2.6,2.6-1.17,2.6-2.6Z"/><circle class="e" cx="165.1" cy="128.87" r="2.6"/><path class="f" d="M154.1,61.41c2.45,2.86,6.02,5.54,9.48,7.71-5.56,2.55-10.74,5.78-15.5,9.57-.32,.26-.63,.5-.97,.8-.13,.09-.26,.19-.39,.3-.02-.09-.06-.19-.09-.26-1.88-4.65-3.4-9.42-3.4-12.67,0-.87,.04-1.8,.13-2.75,.69-8.4,4.18-18.9,4.18-18.9,0,0,0,4.31,4.35,12.99,.54,1.08,1.32,2.17,2.21,3.2Z"/><path class="h" d="M145.11,79.38c.32,.76,.11,1.67-.5,2.21-.3,.28-.58,.54-.87,.82-.58,.45-1.13,1-1.67,1.54-.04,.06-.11,.13-.17,.19-.35,.32-.71,.69-1.06,1.04-.17,.15-.32,.32-.48,.5-.56,.56-1.1,1.15-1.65,1.75-.26,.3-.54,.58-.82,.89-.26,.3-.54,.61-.78,.93-.71,.8-1.36,1.62-2.04,2.47-.56,.67-1.08,1.39-1.58,2.1-.09,.11-.13,.19-.22,.3-.24,.3-.43,.58-.67,.89-.43,.65-.89,1.32-1.34,1.95-.45,.74-.89,1.43-1.32,2.12-.28,.48-.56,.97-.89,1.43-.06,.13-.15,.26-.22,.39-.06,.11-.11,.19-.17,.28-.02,.06-.04,.13-.09,.19-.37,.63-.69,1.3-1.06,1.97-.02,.02-.02,.06-.02,.09-.26,.43-.5,.89-.71,1.32-.11,.19-.22,.37-.3,.56-.02,.02-.04,.06-.06,.09l-.22,.5c-.19,.39-.35,.76-.54,1.15l-.17,.37c-.24,.45-.43,.95-.65,1.43-.17,.35-.3,.67-.45,1.04v.02c-.56,1.17-2.04,1.49-3.03,.65-2.12-1.8-4.22-3.77-6.17-5.8h-.04c-1.69-1.75-3.29-3.62-4.61-5.48-.32-.37-.58-.74-.82-1.13v-.02c-1.23-1.86-2.25-3.72-2.86-5.59-.69-2.1-1.41-4.07-2.12-5.85-.58-1.56-1.21-2.97-1.78-4.29l-.43-1.04c-.87-1.86-1.65-3.44-2.32-4.7-.8-1.49,.54-3.18,2.19-2.81,6.91,1.73,20.4,4.46,31.61,2.84,2.68-.39,5.13-.35,7.3-.04h.06c.67,.06,1.3,.19,1.88,.32,.61,.15,1.1,.61,1.34,1.19,.17,.41,.32,.82,.52,1.21Z"/><path class="f" d="M126.49,105.31c-.09,.19-.19,.39-.28,.58l.22-.5s.04-.06,.06-.09Z"/></g></g><g id="b"/></svg>