<?xml version="1.0" encoding="UTF-8"?><svg xmlns="http://www.w3.org/2000/svg" viewBox="0 0 443 417"><defs><style>.c{fill:#f8d7d9;}.d{fill:#efa7aa;}.e{fill:#f0eeef;}.f{fill:#fff;}.g{fill:#c19246;}.h{fill:#25252d;}</style></defs><g id="a"><g><path class="h" d="M392.67,83.72c2.95-.71,5.33,2.38,3.91,5.06-.78,1.46-1.6,3.23-2.55,5.2-6.69,.98-12.74,1.7-16.3,1.7-4.69,0-6.32-3.57-6.59-8.01,.98-.1,1.97-.24,2.89-.34,7.27-1.05,13.82-2.45,18.64-3.6Z"/><path class="e" d="M394.03,93.98c-2.21,4.79-4.79,11-7.37,18.75-.98,2.92-2.51,5.88-4.48,8.76-1.87,2.78-4.04,5.54-6.49,8.18-3.74,4.14-7.98,8.08-12.16,11.65-2.41,2-6.15,1.12-7.34-1.83-.2-.44-.37-.88-.58-1.32-.31-.78-.68-1.56-1.05-2.31-.03-.1-.1-.27-.2-.41-.03-.07-.07-.2-.1-.27-.37-.98-.82-1.9-1.29-2.78-.07-.07-.1-.17-.14-.24-.03-.14-.14-.24-.17-.34-.65-1.39-1.36-2.72-2.07-4.11-1.02-1.9-2.11-3.8-3.26-5.6-.51-.85-1.09-1.7-1.6-2.55-.03-.1-.14-.24-.24-.37-.54-.85-1.09-1.66-1.66-2.51-.65-.92-1.26-1.8-1.9-2.65-.51-.78-1.12-1.6-1.73-2.41-.03,0-.07-.07-.1-.1l-.1-.1c-1.29-1.7-2.65-3.4-4.04-4.99-1.39-1.66-2.82-3.23-4.31-4.82-1.49-1.56-2.99-3.06-4.55-4.55,0,0,0-.03-.03-.03-1.32-1.32-1.83-3.36-1.12-5.13,0-.03,.03-.07,.03-.14,.03-.03,.03-.1,.07-.14,.07-.17,.17-.34,.24-.51,.61-1.39,1.87-2.45,3.36-2.78,4.14-.92,8.9-1.19,14.4-.37,2.62,.34,5.3,.58,7.98,.68,6.42,.24,13.01-.17,19.12-.95,.27,4.45,1.9,8.01,6.59,8.01,3.57,0,9.61-.71,16.3-1.7Z"/><path class="c" d="M378.65,269.05c1.77,4.28,2.68,8.73,2.68,13.21,0,5.77-1.49,11.41-4.35,16.81-2.14,4.11-5.06,8.08-8.69,11.89-2.11,2.24-4.48,4.41-7.06,6.52-6.08,4.96-13.41,9.65-21.84,13.82-.51,.24-.98,.51-1.53,.71-2.68,1.32-5.47,2.65-8.39,3.84-3.19,1.32-6.49,2.62-9.92,3.84-1.22,.44-2.51,.88-3.77,1.29-1.19,.44-2.41,.85-3.67,1.19-1.02,.37-2.11,.71-3.16,1.02-.27,.07-.58,.2-.92,.27-1.32,.41-2.68,.82-4.11,1.19-1.7,.48-3.4,.95-5.13,1.39-2.17,.54-4.35,1.12-6.59,1.6-4.86,1.15-9.92,2.21-15.11,3.09-4.41,.78-8.93,1.49-13.52,2.11-1.9,.24-3.77,.48-5.67,.71-5.71,.65-11.51,1.19-17.46,1.6-2.62,.2-5.3,.31-7.95,.44-2.51,.1-5.06,.2-7.61,.27h-.75c-2.62,.03-5.26,.1-7.91,.1-26.93,0-52.3-2.89-74.75-8.01-12.33-2.72-23.84-6.25-34.1-10.29-.24-.1-.44-.2-.68-.27-11.11-4.38-20.82-9.41-28.97-14.98-.44-.31-.88-.65-1.32-.92-.98-.68-1.87-1.32-2.78-2.04-14.3-10.94-22.48-23.64-22.48-37.19,0-11.31,5.71-22.04,16-31.58,1.6-1.56,3.33-3.06,5.23-4.55,3.94-3.12,8.52-6.18,13.48-9.07,1.02-.54,2-1.12,3.16-1.73,4.58-2.45,9.54-4.79,14.84-7.03,1.66-.68,3.4-1.36,5.13-2,2.58-1.02,5.23-1.94,7.98-2.85,.24-.1,.48-.17,.71-.27,.17-.03,.31-.07,.44-.14,1.15-.37,2.34-.75,3.53-1.09,.88-.31,1.77-.58,2.65-.85l2.17-.61c3.8-1.12,7.78-2.17,11.78-3.12,1.7-.41,3.4-.78,5.09-1.15,1.46-.34,2.92-.65,4.41-.92,1.49-.34,2.99-.61,4.45-.92,1.8-.31,3.63-.65,5.47-.95,3.67-.65,7.44-1.22,11.21-1.7,1.29-.2,2.58-.37,3.91-.48,1.12-.17,2.24-.31,3.33-.41,2-.24,4.08-.44,6.15-.65,.54-.03,1.09-.14,1.63-.17,1.73-.17,3.46-.27,5.26-.41,.34-.03,.68-.03,1.05-.07,1.56-.14,3.16-.2,4.79-.34,.92-.03,1.9-.07,2.82-.14,2.17-.1,4.35-.17,6.59-.27,3.91-.1,7.88-.2,11.82-.2,16.95,0,33.32,1.19,48.73,3.36,2.95,.41,5.88,.85,8.73,1.32h.03c2.89,.48,5.71,.98,8.49,1.49,2.78,.58,5.5,1.15,8.25,1.73,2.04,.44,4.04,.95,6.01,1.43,.2,.03,.41,.14,.61,.17,.82,.2,1.56,.41,2.34,.61,.78,.17,1.53,.34,2.31,.58,.2,.07,.44,.1,.65,.17,1.7,.44,3.33,.92,4.96,1.43,1.87,.54,3.7,1.12,5.5,1.7,1.49,.48,2.92,.95,4.38,1.43,1.22,.44,2.38,.85,3.57,1.29,2.28,.85,4.58,1.73,6.79,2.65,1.39,.54,2.78,1.12,4.14,1.73s2.68,1.15,3.97,1.8c1.32,.61,2.62,1.22,3.87,1.87,1.26,.61,2.51,1.26,3.74,1.9v.03c1.15,.61,2.28,1.22,3.36,1.87,.98,.54,2,1.12,2.95,1.73,1.73,1.09,3.4,2.14,5.03,3.26,3.94,2.68,7.51,5.57,10.66,8.52,1.09,.95,2.14,2.04,3.12,3.06,2.58,2.75,4.82,5.6,6.66,8.52,1.46,2.21,2.62,4.52,3.53,6.79Zm-123.31,13.04c.17-.44,.2-.92,.2-1.39,0-2.89-2.04-5.37-5.16-6.83-1.7-.78-3.7-1.22-5.84-1.22-6.11,0-11,3.6-11,8.05,0,1.09,.31,2.14,.88,3.06v.03c.24,.41,.48,.78,.78,1.12,1.94,2.28,5.37,3.77,9.34,3.77,5.4,0,9.92-2.89,10.8-6.59Zm-53.25-1.39c0-4.08-4.21-7.47-9.65-7.95-.44-.07-.92-.1-1.36-.1-6.11,0-11.04,3.6-11.04,8.05,0,1.29,.44,2.45,1.19,3.53,1.77,2.62,5.5,4.45,9.85,4.45,6.05,0,11-3.6,11-7.98Z"/><path class="e" d="M365.34,186.22v64.46c-3.16-2.95-6.72-5.84-10.66-8.52-1.63-1.12-3.29-2.17-5.03-3.26-.95-.61-1.97-1.19-2.95-1.73-1.09-.65-2.21-1.26-3.36-1.9-1.22-.65-2.48-1.29-3.74-1.9-1.26-.65-2.55-1.29-3.87-1.87-1.29-.65-2.62-1.19-3.97-1.8s-2.75-1.19-4.14-1.73c-2.21-.92-4.52-1.8-6.79-2.65-1.19-.44-2.34-.85-3.57-1.29-1.46-.48-2.89-.95-4.38-1.43-1.8-.58-3.63-1.15-5.5-1.7-1.63-.51-3.26-.98-4.96-1.43-.2-.07-.44-.1-.65-.17-.78-.24-1.53-.41-2.31-.58-.78-.2-1.53-.41-2.34-.61-.2-.03-.41-.14-.61-.17-1.97-.48-3.97-.98-6.01-1.43-2.75-.58-5.47-1.15-8.25-1.73-2.78-.54-5.6-1.05-8.49-1.49h-.03c-2.85-.48-5.77-.92-8.73-1.32-15.42-2.17-31.79-3.36-48.73-3.36-3.94,0-7.91,.1-11.82,.2-2.24,.1-4.41,.17-6.59,.27-.92,.07-1.9,.1-2.82,.14-1.63,.14-3.23,.2-4.79,.34-.37,.03-.71,.03-1.05,.07-1.8,.14-3.53,.24-5.26,.41-.54,.03-1.09,.14-1.63,.17-2.07,.2-4.14,.41-6.15,.65-1.09,.1-2.21,.24-3.33,.41-1.32,.1-2.62,.27-3.91,.48-3.77,.48-7.54,1.05-11.21,1.7-1.83,.31-3.67,.65-5.47,.95-1.46,.31-2.95,.58-4.45,.92-1.49,.27-2.95,.58-4.41,.92-1.7,.37-3.4,.75-5.09,1.15-4.01,.95-7.98,2-11.78,3.12l-2.17,.61c-.88,.27-1.77,.54-2.65,.85-1.19,.34-2.38,.71-3.53,1.09-.14,.07-.27,.1-.44,.14-.24,.1-.48,.17-.71,.27,1.22-26.25,.24-63.2-13.48-74.58-11-9.17-17.86-15.89-21.94-20.38,0-.03,0-.1,.03-.14,.58-1.05,1.09-2.11,1.66-3.09,.07-.1,.1-.2,.14-.31,.1-.14,.17-.27,.27-.44,.1-.2,.24-.41,.34-.61,.51-.71,.95-1.49,1.39-2.24,.68-1.09,1.36-2.17,2.07-3.33,.71-.98,1.43-2.04,2.11-3.06,.37-.48,.68-.92,1.05-1.39,.14-.17,.2-.31,.34-.48,.78-1.12,1.6-2.24,2.48-3.29,1.05-1.32,2.07-2.62,3.19-3.87,.37-.51,.82-.98,1.22-1.46,.44-.48,.88-.92,1.29-1.39,.85-.95,1.7-1.87,2.58-2.75,.24-.27,.48-.54,.75-.78,.54-.54,1.12-1.12,1.66-1.63,.1-.1,.2-.2,.27-.31,.85-.85,1.7-1.7,2.62-2.41,.44-.44,.88-.85,1.36-1.29,.51-.44,1.09-.98,1.66-1.46,.51-.44,1.09-.92,1.63-1.36,.2-.17,.41-.34,.61-.48,.54-.48,1.02-.85,1.53-1.26,7.47-5.94,15.59-11,24.32-15.01,.88-.44,1.8-.85,2.68-1.26,2.28-1.02,4.58-1.94,6.89-2.78,9.1-3.36,18.71-5.71,28.7-6.79,4.52-.51,9.17-.75,13.89-.75h53.56c-8.52,12.12-27.34,42.52-1.87,43.16,31.86,.78,80.18-15.08,82.12,11.14,1.49,19.66,24.62,29.95,36.2,33.89,.61,2.07,1.15,4.11,1.66,6.21,.65,2.65,1.19,5.37,1.6,8.12,.27,1.39,.48,2.82,.65,4.25,.34,2.17,.58,4.41,.71,6.66,.31,3.19,.41,6.45,.41,9.71Zm-78.28-8.97c.14-.95,.17-2,.17-3.06,0-9.24-3.94-16.71-8.86-16.71s-8.9,7.47-8.9,16.71c0,1.43,.1,2.78,.31,4.11,.95,7.23,4.45,12.57,8.59,12.57,4.35,0,7.95-5.88,8.69-13.62Zm-134.73-3.06c0-9.24-3.97-16.71-8.9-16.71s-8.86,7.47-8.86,16.71,4.01,16.68,8.86,16.68,8.9-7.47,8.9-16.68Z"/><path class="h" d="M358.44,145.43c.68,1.94,1.29,3.87,1.87,5.84-11.58-3.94-34.71-14.23-36.2-33.89-1.94-26.22-50.26-10.36-82.12-11.14-25.47-.65-6.66-31.04,1.87-43.16,4.11,.07,8.18,.31,12.23,.75,13.14,1.46,25.71,5.03,37.29,10.32,1.29,.61,2.58,1.22,3.84,1.87,8.52,4.25,16.44,9.44,23.71,15.49,1.22,1.02,2.51,2.07,3.63,3.19t.07,.03c.85,.78,1.66,1.49,2.45,2.28,.03,0,.03,.03,.03,.03,1.56,1.49,3.06,2.99,4.55,4.55,1.49,1.6,2.92,3.16,4.31,4.82,1.39,1.6,2.75,3.29,4.04,4.99l.1,.1c.61,.85,1.26,1.66,1.83,2.51,.65,.85,1.26,1.73,1.9,2.65,.58,.85,1.12,1.66,1.66,2.51,.1,.14,.2,.27,.24,.37,.51,.85,1.09,1.7,1.6,2.55,1.15,1.8,2.24,3.7,3.26,5.6,.71,1.39,1.43,2.72,2.07,4.11,.03,.1,.14,.2,.17,.34,.03,.07,.07,.17,.14,.24,.44,.92,.88,1.87,1.29,2.78,.03,.07,.07,.2,.1,.27,.1,.14,.17,.31,.2,.41,.37,.75,.75,1.53,1.05,2.31,.2,.44,.37,.88,.58,1.32,.78,1.94,1.53,3.97,2.24,5.94Z"/><path class="g" d="M331.44,71.12c0,.54-.03,1.09-.07,1.7-.48,5.37-2.99,12.67-5.91,19.7-.27,.71-.58,1.46-.92,2.17-1.12-1.12-2.41-2.17-3.63-3.19-7.27-6.05-15.18-11.24-23.71-15.49,3.6-2.14,7.44-4.72,10.87-7.51,4.21-3.4,7.85-7.13,9.78-10.97,6.76-13.62,6.76-20.38,6.76-20.38,0,0,6.83,20.38,6.83,33.96Z"/><path class="h" d="M287.22,174.2c0,1.05-.03,2.11-.17,3.06-.75,7.74-4.35,13.62-8.69,13.62s-7.64-5.33-8.59-12.57c-.2-1.32-.31-2.68-.31-4.11,0-9.24,4.01-16.71,8.9-16.71s8.86,7.47,8.86,16.71Zm-3.87-5.54c0-1.87-1.53-3.4-3.4-3.4s-3.4,1.53-3.4,3.4,1.53,3.4,3.4,3.4,3.4-1.53,3.4-3.4Z"/><circle class="f" cx="279.96" cy="168.66" r="3.4"/><path class="d" d="M255.54,280.7c0,.48-.03,.95-.2,1.39-.88,3.7-5.4,6.59-10.8,6.59-3.97,0-7.4-1.49-9.34-3.77-.31-.34-.54-.71-.78-1.12v-.03c-.58-.92-.88-1.97-.88-3.06,0-4.45,4.89-8.05,11-8.05,2.14,0,4.14,.44,5.84,1.22,3.12,1.46,5.16,3.94,5.16,6.83Z"/><path class="d" d="M192.44,272.75c5.43,.48,9.65,3.87,9.65,7.95,0,4.38-4.96,7.98-11,7.98-4.35,0-8.08-1.83-9.85-4.45-.75-1.09-1.19-2.24-1.19-3.53,0-4.45,4.92-8.05,11.04-8.05,.44,0,.92,.03,1.36,.1Z"/><path class="h" d="M143.43,157.49c4.92,0,8.9,7.47,8.9,16.71s-3.97,16.68-8.9,16.68-8.86-7.47-8.86-16.68,4.01-16.71,8.86-16.71Zm4.08,11.17c0-1.87-1.53-3.4-3.4-3.4s-3.4,1.53-3.4,3.4,1.53,3.4,3.4,3.4,3.4-1.53,3.4-3.4Z"/><circle class="f" cx="144.11" cy="168.66" r="3.4"/><path class="g" d="M123.26,62.56c3.84,4.48,9.44,8.69,14.88,12.09-8.73,4.01-16.84,9.07-24.32,15.01-.51,.41-.98,.78-1.53,1.26-.2,.14-.41,.31-.61,.48-.03-.14-.1-.31-.14-.41-2.95-7.3-5.33-14.77-5.33-19.87,0-1.36,.07-2.82,.2-4.31,1.09-13.18,6.55-29.65,6.55-29.65,0,0,0,6.76,6.83,20.38,.85,1.7,2.07,3.4,3.46,5.03Z"/><path class="h" d="M103.49,148.86c13.72,11.38,14.71,48.33,13.48,74.58-2.75,.92-5.4,1.83-7.98,2.85-1.73,.65-3.46,1.32-5.13,2-5.3,2.24-10.26,4.58-14.84,7.03-1.15,.61-2.14,1.19-3.16,1.73-4.96,2.89-9.54,5.94-13.48,9.07-1.9,1.49-3.63,2.99-5.23,4.55v-64.46c0-15.45,2.82-30.23,8.01-43.88,.24-.58,.51-1.22,.78-1.83v-.03l.71-1.83v-.03c.24-.58,.44-1.09,.71-1.63,.34-.75,.65-1.53,1.02-2.24l.27-.58c.31-.61,.54-1.19,.85-1.8,.14-.31,.31-.61,.44-.92s.31-.58,.48-.88c.34-.68,.71-1.39,1.12-2.07,4.08,4.48,10.94,11.21,21.94,20.38Z"/><path class="h" d="M109.16,90.75c.51,1.19,.17,2.62-.78,3.46-.48,.44-.92,.85-1.36,1.29-.92,.71-1.77,1.56-2.62,2.41-.07,.1-.17,.2-.27,.31-.54,.51-1.12,1.09-1.66,1.63-.27,.24-.51,.51-.75,.78-.88,.88-1.73,1.8-2.58,2.75-.41,.48-.85,.92-1.29,1.39-.41,.48-.85,.95-1.22,1.46-1.12,1.26-2.14,2.55-3.19,3.87-.88,1.05-1.7,2.17-2.48,3.29-.14,.17-.2,.31-.34,.48-.37,.48-.68,.92-1.05,1.39-.68,1.02-1.39,2.07-2.11,3.06-.71,1.15-1.39,2.24-2.07,3.33-.44,.75-.88,1.53-1.39,2.24-.1,.2-.24,.41-.34,.61-.1,.17-.17,.31-.27,.44-.03,.1-.07,.2-.14,.31-.58,.98-1.09,2.04-1.66,3.09-.03,.03-.03,.1-.03,.14-.41,.68-.78,1.39-1.12,2.07-.17,.31-.34,.58-.48,.88-.03,.03-.07,.1-.1,.14l-.34,.78c-.31,.61-.54,1.19-.85,1.8l-.27,.58c-.37,.71-.68,1.49-1.02,2.24-.27,.54-.48,1.05-.71,1.63v.03c-.88,1.83-3.19,2.34-4.75,1.02-3.33-2.82-6.62-5.91-9.68-9.1h-.07c-2.65-2.75-5.16-5.67-7.23-8.59-.51-.58-.92-1.15-1.29-1.77v-.03c-1.94-2.92-3.53-5.84-4.48-8.76-1.09-3.29-2.21-6.38-3.33-9.17-.92-2.45-1.9-4.65-2.78-6.72l-.68-1.63c-1.36-2.92-2.58-5.4-3.63-7.37-1.26-2.34,.85-4.99,3.43-4.41,10.83,2.72,31.99,7,49.58,4.45,4.21-.61,8.05-.54,11.45-.07h.1c1.05,.1,2.04,.31,2.95,.51,.95,.24,1.73,.95,2.11,1.87,.27,.65,.51,1.29,.82,1.9Z"/></g></g><g id="b"/></svg>