<?xml version="1.0" encoding="UTF-8"?><svg xmlns="http://www.w3.org/2000/svg" viewBox="0 0 443 417"><defs><style>.c{fill:#f8d7d9;}.d{fill:#efa7aa;}.e{fill:#f0eeef;}.f{fill:#fff;}.g{fill:#6d2c2a;}.h{fill:#c19246;}.i{fill:#25252d;}</style></defs><g id="a"><g><path class="g" d="M331.94,168.93s4.02,28.11-10.04,34.14c-.64,.28-1.25,.62-1.81,1.04l-.04,.02-4.18,.94-2.01-4.02h-2.01c-2.67-5.48,.98-12.95,10.04-18.07s10.04-14.06,10.04-14.06Z"/><path class="e" d="M315.87,205.07l4.18-.94c-5.22,3.86-2.91,14.7-4.18,25.04-1.59,12.99-6.27,25.96-10.04,32.13-2.51,4.1-3.31,9.8-3.29,15.44-.24-1.79-.48-3.59-.72-5.4-.56-4.24-1.12-8.49-1.69-12.65,2.07-7.85,7.19-20.46,9.72-31.53,2.95-12.87,3.11-23.86,2.01-26.11h2.01l2.01,4.02Z"/><path class="i" d="M308.22,76.53c1.75-.42,3.15,1.41,2.31,2.99-.46,.86-.94,1.91-1.51,3.07-3.96,.58-7.53,1-9.64,1-2.77,0-3.74-2.11-3.9-4.74,.58-.06,1.16-.14,1.71-.2,4.3-.62,8.17-1.45,11.02-2.13Z"/><path class="g" d="M307.98,324.65c.1,2.69,.1,5.16,0,7.37-.24,4.24-.9,7.51-2.15,9.6-6.02,10.04-12.05,9.04-26.11,9.04-12.73,0-24.1,0-32.21-6.69-3.35-2.75-5.18-8.84-6.04-16.27-.22-1.65-.36-3.35-.46-5.12l.88,1.04s1.93,.42,5.2,.96c6.04,1,16.71,2.43,28.49,2.49,2.83,.02,5.72-.04,8.63-.22,11.35-.68,19.02-1.55,23.76-2.21Z"/><path class="i" d="M305.33,297.32c1.35,10.4,2.39,19.76,2.65,27.33-4.74,.66-12.41,1.53-23.76,2.21-2.91,.18-5.8,.24-8.63,.22-1-4.92,3.78-13.29,11.12-27.63,.98-1.91,1.99-3.92,3.05-6.02,14.06-28.11-4.02-32.13-24.1-30.12-20.08,2.01-57.09-25.86-57.09-25.86h.44c1.51-.04,3.01-.1,4.5-.16,1.57-.08,3.15-.14,4.7-.26,3.51-.24,6.95-.56,10.32-.94,1.12-.14,2.23-.28,3.35-.42,2.71-.36,5.38-.78,7.99-1.25,3.07-.52,6.06-1.14,8.94-1.83,1.33-.28,2.61-.62,3.9-.94,1.02-.26,2.03-.54,3.03-.82,.84-.22,1.65-.46,2.43-.7,.2-.04,.38-.12,.54-.16,.62-.18,1.27-.38,1.87-.6,.74-.2,1.47-.44,2.17-.7,.74-.24,1.51-.5,2.23-.76,2.03-.72,3.98-1.49,5.86-2.27,1.73-.7,3.37-1.49,4.96-2.27,.32-.12,.6-.28,.9-.42,4.98-2.47,9.32-5.24,12.91-8.17,1.53-1.25,2.93-2.53,4.18-3.86,0,0,2.95,22.39,6.33,47.79,.56,4.16,1.12,8.41,1.69,12.65,.24,1.81,.48,3.61,.72,5.4,.96,7.15,1.95,14.08,2.79,20.58Z"/><path class="e" d="M309.02,82.6c-1.31,2.83-2.83,6.51-4.36,11.08-.58,1.73-1.49,3.47-2.65,5.18-1.1,1.65-2.39,3.27-3.84,4.84-2.21,2.45-4.72,4.78-7.19,6.89-1.43,1.18-3.63,.66-4.34-1.08-.12-.26-.22-.52-.34-.78-.18-.46-.4-.92-.62-1.37-.02-.06-.06-.16-.12-.24-.02-.04-.04-.12-.06-.16-.22-.58-.48-1.12-.76-1.65-.04-.04-.06-.1-.08-.14-.02-.08-.08-.14-.1-.2-.38-.82-.8-1.61-1.22-2.43-.6-1.12-1.25-2.25-1.93-3.31-.3-.5-.64-1-.94-1.51-.02-.06-.08-.14-.14-.22-.32-.5-.64-.98-.98-1.49-.38-.54-.74-1.06-1.12-1.57-.3-.46-.66-.94-1.02-1.43-.02,0-.04-.04-.06-.06l-.06-.06c-.76-1-1.57-2.01-2.39-2.95-.82-.98-1.67-1.91-2.55-2.85-.88-.92-1.77-1.81-2.69-2.69,0,0,0-.02-.02-.02-.78-.78-1.08-1.99-.66-3.03,0-.02,.02-.04,.02-.08,.02-.02,.02-.06,.04-.08,.04-.1,.1-.2,.14-.3,.36-.82,1.1-1.45,1.99-1.65,2.45-.54,5.26-.7,8.51-.22,1.55,.2,3.13,.34,4.72,.4,3.8,.14,7.69-.1,11.31-.56,.16,2.63,1.12,4.74,3.9,4.74,2.11,0,5.68-.42,9.64-1Z"/><path class="c" d="M299.93,186.12c1.04,2.53,1.59,5.16,1.59,7.81,0,3.41-.88,6.75-2.57,9.94-1.27,2.43-2.99,4.78-5.14,7.03-1.25,1.33-2.65,2.61-4.18,3.86-3.59,2.93-7.93,5.7-12.91,8.17-.3,.14-.58,.3-.9,.42-1.59,.78-3.23,1.57-4.96,2.27-1.89,.78-3.84,1.55-5.86,2.27-.72,.26-1.49,.52-2.23,.76-.7,.26-1.43,.5-2.17,.7-.6,.22-1.25,.42-1.87,.6-.16,.04-.34,.12-.54,.16-.78,.24-1.59,.48-2.43,.7-1,.28-2.01,.56-3.03,.82-1.29,.32-2.57,.66-3.9,.94-2.87,.68-5.86,1.31-8.94,1.83-2.61,.46-5.28,.88-7.99,1.25-1.12,.14-2.23,.28-3.35,.42-3.37,.38-6.81,.7-10.32,.94-1.55,.12-3.13,.18-4.7,.26-1.49,.06-2.99,.12-4.5,.16h-.44c-1.55,.02-3.11,.06-4.68,.06-15.92,0-30.92-1.71-44.2-4.74-7.29-1.61-14.1-3.69-20.16-6.08-.14-.06-.26-.12-.4-.16-6.57-2.59-12.31-5.56-17.13-8.86-.26-.18-.52-.38-.78-.54-.58-.4-1.1-.78-1.65-1.2-8.45-6.47-13.29-13.98-13.29-21.99,0-6.69,3.37-13.03,9.46-18.68,.94-.92,1.97-1.81,3.09-2.69,2.33-1.85,5.04-3.65,7.97-5.36,.6-.32,1.18-.66,1.87-1.02,2.71-1.45,5.64-2.83,8.78-4.16,.98-.4,2.01-.8,3.03-1.18,1.53-.6,3.09-1.14,4.72-1.69,.14-.06,.28-.1,.42-.16,.1-.02,.18-.04,.26-.08,.68-.22,1.39-.44,2.09-.64,.52-.18,1.04-.34,1.57-.5l1.29-.36c2.25-.66,4.6-1.29,6.97-1.85,1-.24,2.01-.46,3.01-.68,.86-.2,1.73-.38,2.61-.54,.88-.2,1.77-.36,2.63-.54,1.06-.18,2.15-.38,3.23-.56,2.17-.38,4.4-.72,6.63-1,.76-.12,1.53-.22,2.31-.28,.66-.1,1.33-.18,1.97-.24,1.18-.14,2.41-.26,3.63-.38,.32-.02,.64-.08,.96-.1,1.02-.1,2.05-.16,3.11-.24,.2-.02,.4-.02,.62-.04,.92-.08,1.87-.12,2.83-.2,.54-.02,1.12-.04,1.67-.08,1.29-.06,2.57-.1,3.9-.16,2.31-.06,4.66-.12,6.99-.12,10.02,0,19.7,.7,28.82,1.99,1.75,.24,3.47,.5,5.16,.78h.02c1.71,.28,3.37,.58,5.02,.88,1.65,.34,3.25,.68,4.88,1.02,1.2,.26,2.39,.56,3.55,.84,.12,.02,.24,.08,.36,.1,.48,.12,.92,.24,1.39,.36,.46,.1,.9,.2,1.37,.34,.12,.04,.26,.06,.38,.1,1,.26,1.97,.54,2.93,.84,1.1,.32,2.19,.66,3.25,1,.88,.28,1.73,.56,2.59,.84,.72,.26,1.41,.5,2.11,.76,1.35,.5,2.71,1.02,4.02,1.57,.82,.32,1.65,.66,2.45,1.02s1.59,.68,2.35,1.06c.78,.36,1.55,.72,2.29,1.1,.74,.36,1.49,.74,2.21,1.12v.02c.68,.36,1.35,.72,1.99,1.1,.58,.32,1.18,.66,1.75,1.02,1.02,.64,2.01,1.27,2.97,1.93,2.33,1.59,4.44,3.29,6.31,5.04,.64,.56,1.27,1.2,1.85,1.81,1.53,1.63,2.85,3.31,3.94,5.04,.86,1.31,1.55,2.67,2.09,4.02Zm-72.91,7.71c.1-.26,.12-.54,.12-.82,0-1.71-1.2-3.17-3.05-4.04-1-.46-2.19-.72-3.45-.72-3.61,0-6.51,2.13-6.51,4.76,0,.64,.18,1.27,.52,1.81v.02c.14,.24,.28,.46,.46,.66,1.14,1.35,3.17,2.23,5.52,2.23,3.19,0,5.86-1.71,6.39-3.9Zm-31.49-.82c0-2.41-2.49-4.42-5.7-4.7-.26-.04-.54-.06-.8-.06-3.61,0-6.53,2.13-6.53,4.76,0,.76,.26,1.45,.7,2.09,1.04,1.55,3.25,2.63,5.82,2.63,3.57,0,6.51-2.13,6.51-4.72Z"/><path class="e" d="M292.06,137.14v38.11c-1.87-1.75-3.98-3.45-6.31-5.04-.96-.66-1.95-1.29-2.97-1.93-.56-.36-1.16-.7-1.75-1.02-.64-.38-1.31-.74-1.99-1.12-.72-.38-1.47-.76-2.21-1.12-.74-.38-1.51-.76-2.29-1.1-.76-.38-1.55-.7-2.35-1.06s-1.63-.7-2.45-1.02c-1.31-.54-2.67-1.06-4.02-1.57-.7-.26-1.39-.5-2.11-.76-.86-.28-1.71-.56-2.59-.84-1.06-.34-2.15-.68-3.25-1-.96-.3-1.93-.58-2.93-.84-.12-.04-.26-.06-.38-.1-.46-.14-.9-.24-1.37-.34-.46-.12-.9-.24-1.39-.36-.12-.02-.24-.08-.36-.1-1.16-.28-2.35-.58-3.55-.84-1.63-.34-3.23-.68-4.88-1.02-1.65-.32-3.31-.62-5.02-.88h-.02c-1.69-.28-3.41-.54-5.16-.78-9.12-1.29-18.8-1.99-28.82-1.99-2.33,0-4.68,.06-6.99,.12-1.33,.06-2.61,.1-3.9,.16-.54,.04-1.12,.06-1.67,.08-.96,.08-1.91,.12-2.83,.2-.22,.02-.42,.02-.62,.04-1.06,.08-2.09,.14-3.11,.24-.32,.02-.64,.08-.96,.1-1.22,.12-2.45,.24-3.63,.38-.64,.06-1.31,.14-1.97,.24-.78,.06-1.55,.16-2.31,.28-2.23,.28-4.46,.62-6.63,1-1.08,.18-2.17,.38-3.23,.56-.86,.18-1.75,.34-2.63,.54-.88,.16-1.75,.34-2.61,.54-1,.22-2.01,.44-3.01,.68-2.37,.56-4.72,1.18-6.97,1.85l-1.29,.36c-.52,.16-1.04,.32-1.57,.5-.7,.2-1.41,.42-2.09,.64-.08,.04-.16,.06-.26,.08-.14,.06-.28,.1-.42,.16,.72-15.52,.14-37.37-7.97-44.1-6.51-5.42-10.56-9.4-12.97-12.05,0-.02,0-.06,.02-.08,.34-.62,.64-1.25,.98-1.83,.04-.06,.06-.12,.08-.18,.06-.08,.1-.16,.16-.26,.06-.12,.14-.24,.2-.36,.3-.42,.56-.88,.82-1.33,.4-.64,.8-1.29,1.22-1.97,.42-.58,.84-1.2,1.25-1.81,.22-.28,.4-.54,.62-.82,.08-.1,.12-.18,.2-.28,.46-.66,.94-1.33,1.47-1.95,.62-.78,1.22-1.55,1.89-2.29,.22-.3,.48-.58,.72-.86,.26-.28,.52-.54,.76-.82,.5-.56,1-1.1,1.53-1.63,.14-.16,.28-.32,.44-.46,.32-.32,.66-.66,.98-.96,.06-.06,.12-.12,.16-.18,.5-.5,1-1,1.55-1.43,.26-.26,.52-.5,.8-.76,.3-.26,.64-.58,.98-.86,.3-.26,.64-.54,.96-.8,.12-.1,.24-.2,.36-.28,.32-.28,.6-.5,.9-.74,4.42-3.51,9.22-6.51,14.38-8.88,.52-.26,1.06-.5,1.59-.74,1.35-.6,2.71-1.14,4.08-1.65,5.38-1.99,11.06-3.37,16.97-4.02,2.67-.3,5.42-.44,8.21-.44h31.67c-5.04,7.17-16.17,25.14-1.1,25.52,18.84,.46,47.41-8.92,48.56,6.59,.88,11.63,14.56,17.71,21.41,20.04,.36,1.22,.68,2.43,.98,3.67,.38,1.57,.7,3.17,.94,4.8,.16,.82,.28,1.67,.38,2.51,.2,1.29,.34,2.61,.42,3.94,.18,1.89,.24,3.82,.24,5.74Zm-46.29-5.3c.08-.56,.1-1.18,.1-1.81,0-5.46-2.33-9.88-5.24-9.88s-5.26,4.42-5.26,9.88c0,.84,.06,1.65,.18,2.43,.56,4.28,2.63,7.43,5.08,7.43,2.57,0,4.7-3.47,5.14-8.05Zm-79.66-1.81c0-5.46-2.35-9.88-5.26-9.88s-5.24,4.42-5.24,9.88,2.37,9.86,5.24,9.86,5.26-4.42,5.26-9.86Z"/><path class="e" d="M265.67,263.31c20.08-2.01,38.15,2.01,24.1,30.12-1.06,2.11-2.07,4.12-3.05,6.02-7.35,14.34-12.13,22.71-11.12,27.63-11.79-.06-22.45-1.49-28.49-2.49-3.27-.54-5.2-.96-5.2-.96l-.88-1.04c-.22-3.13-.28-6.43-.24-9.72,0-2.75,.08-5.52,.2-8.21,.68-14.5,2.61-27.29,2.61-27.29,0,0-1.14-8.72-8.03-10.04-6.89-1.33-24.1-2.01-38.15,0s-12.13,11.35-12.13,11.35c0,0,3.65,21.65,2.79,40.8-.06,1.39-.14,2.77-.24,4.12l-.46-.04s-1.97-1.39-5.22-3.33c-7.15-4.3-20.52-11.35-32.93-12.73-18.07-2.01,4.02-18.07-12.05-54.22-13.8-31.05-16.79-19.26-17.37-15.32,1.16-12.45,2.23-20.28,2.23-20.28,4.82,3.29,10.56,6.27,17.13,8.86,.14,.04,.26,.1,.4,.16,6.06,2.39,12.87,4.48,20.16,6.08,13.27,3.03,28.27,4.74,44.2,4.74,1.57,0,3.13-.04,4.68-.06,0,0,37.01,27.87,57.09,25.86Z"/><path class="i" d="M287.98,113.02c.4,1.14,.76,2.29,1.1,3.45-6.85-2.33-20.52-8.41-21.41-20.04-1.14-15.5-29.72-6.12-48.56-6.59-15.06-.38-3.94-18.35,1.1-25.52,2.43,.04,4.84,.18,7.23,.44,7.77,.86,15.2,2.97,22.05,6.1,.76,.36,1.53,.72,2.27,1.1,5.04,2.51,9.72,5.58,14.02,9.16,.72,.6,1.49,1.22,2.15,1.89t.04,.02c.5,.46,.98,.88,1.45,1.35,.02,0,.02,.02,.02,.02,.92,.88,1.81,1.77,2.69,2.69,.88,.94,1.73,1.87,2.55,2.85,.82,.94,1.63,1.95,2.39,2.95l.06,.06c.36,.5,.74,.98,1.08,1.49,.38,.5,.74,1.02,1.12,1.57,.34,.5,.66,.98,.98,1.49,.06,.08,.12,.16,.14,.22,.3,.5,.64,1,.94,1.51,.68,1.06,1.33,2.19,1.93,3.31,.42,.82,.84,1.61,1.22,2.43,.02,.06,.08,.12,.1,.2,.02,.04,.04,.1,.08,.14,.26,.54,.52,1.1,.76,1.65,.02,.04,.04,.12,.06,.16,.06,.08,.1,.18,.12,.24,.22,.44,.44,.9,.62,1.37,.12,.26,.22,.52,.34,.78,.46,1.14,.9,2.35,1.33,3.51Z"/><path class="h" d="M272.01,69.08c0,.32-.02,.64-.04,1-.28,3.17-1.77,7.49-3.49,11.65-.16,.42-.34,.86-.54,1.29-.66-.66-1.43-1.29-2.15-1.89-4.3-3.57-8.98-6.65-14.02-9.16,2.13-1.27,4.4-2.79,6.43-4.44,2.49-2.01,4.64-4.22,5.78-6.49,4-8.05,4-12.05,4-12.05,0,0,4.04,12.05,4.04,20.08Z"/><path class="i" d="M245.87,130.03c0,.62-.02,1.25-.1,1.81-.44,4.58-2.57,8.05-5.14,8.05s-4.52-3.15-5.08-7.43c-.12-.78-.18-1.59-.18-2.43,0-5.46,2.37-9.88,5.26-9.88s5.24,4.42,5.24,9.88Zm-2.29-3.27c0-1.1-.9-2.01-2.01-2.01s-2.01,.9-2.01,2.01,.9,2.01,2.01,2.01,2.01-.9,2.01-2.01Z"/><path class="c" d="M243.58,277.36s-1.93,12.79-2.61,27.29c-.12,2.69-.2,5.46-.2,8.21-.04,3.29,.02,6.59,.24,9.72,.1,1.77,.24,3.47,.46,5.12-5.92,2.75-14.52,5.26-26.09,5.18-12.25-.1-21.59-2.93-27.93-5.8,.14-1.14,.26-2.31,.36-3.49,.1-1.35,.18-2.73,.24-4.12,.86-19.16-2.79-40.8-2.79-40.8,0,0-1.93-9.34,12.13-11.35s31.27-1.33,38.15,0c6.89,1.33,8.03,10.04,8.03,10.04Z"/><circle class="f" cx="241.57" cy="126.76" r="2.01"/><path class="d" d="M227.13,193c0,.28-.02,.56-.12,.82-.52,2.19-3.19,3.9-6.39,3.9-2.35,0-4.38-.88-5.52-2.23-.18-.2-.32-.42-.46-.66v-.02c-.34-.54-.52-1.16-.52-1.81,0-2.63,2.89-4.76,6.51-4.76,1.27,0,2.45,.26,3.45,.72,1.85,.86,3.05,2.33,3.05,4.04Z"/><path class="d" d="M189.82,188.3c3.21,.28,5.7,2.29,5.7,4.7,0,2.59-2.93,4.72-6.51,4.72-2.57,0-4.78-1.08-5.82-2.63-.44-.64-.7-1.33-.7-2.09,0-2.63,2.91-4.76,6.53-4.76,.26,0,.54,.02,.8,.06Z"/><path class="g" d="M187.82,323.59c-.1,1.18-.22,2.35-.36,3.49-1.22,9.96-4.16,18.15-10.14,20.56-8.82,3.53-17.77,3.76-26.11,4.02-10.62,.34-20.58-.36-31.49-5.92-3.47-1.77-4.5-10.24-4.5-22.29l.16,.18s20.72,4.52,42.33,3.23c12.23-.74,20.1-1.71,24.66-2.41,3.47-.52,4.98-.9,4.98-.9l.46,.04Z"/><path class="i" d="M187.35,323.55s-1.51,.38-4.98,.9c-4.56,.7-12.43,1.67-24.66,2.41-21.61,1.29-42.33-3.23-42.33-3.23l-.16-.18c0-12.61,1.16-29.18,1.85-46.09,.16-3.71,.34-7.37,.54-10.88,.08-1.29,.14-2.57,.22-3.84,.1-1.67,.22-3.29,.32-4.88,.06-.84,.12-1.67,.18-2.49l.12-1.69c.1-1.51,.22-2.99,.34-4.44,.12-1.63,.26-3.19,.38-4.72,.12-1.39,.24-2.71,.36-4.02l.12-1.39c.02-.06,.02-.12,.02-.16,0-.06,0-.1,.02-.18v-.02c0-.06,.02-.14,.02-.24,0-.04,0-.1,.02-.14,.02-.1,.02-.22,.04-.34,.58-3.94,3.57-15.72,17.37,15.32,16.06,36.15-6.02,52.21,12.05,54.22,12.41,1.39,25.78,8.43,32.93,12.73,3.25,1.95,5.22,3.33,5.22,3.33Z"/><path class="i" d="M160.85,120.15c2.91,0,5.26,4.42,5.26,9.88s-2.35,9.86-5.26,9.86-5.24-4.42-5.24-9.86,2.37-9.88,5.24-9.88Zm2.41,6.61c0-1.1-.9-2.01-2.01-2.01s-2.01,.9-2.01,2.01,.9,2.01,2.01,2.01,2.01-.9,2.01-2.01Z"/><circle class="f" cx="161.25" cy="126.76" r="2.01"/><path class="h" d="M148.92,64.02c2.27,2.65,5.58,5.14,8.8,7.15-5.16,2.37-9.96,5.36-14.38,8.88-.3,.24-.58,.46-.9,.74-.12,.08-.24,.18-.36,.28-.02-.08-.06-.18-.08-.24-1.75-4.32-3.15-8.74-3.15-11.75,0-.8,.04-1.67,.12-2.55,.64-7.79,3.88-17.53,3.88-17.53,0,0,0,4,4.04,12.05,.5,1,1.22,2.01,2.05,2.97Z"/><path class="i" d="M137.23,115.05c8.11,6.73,8.7,28.58,7.97,44.1-1.63,.54-3.19,1.08-4.72,1.69-1.02,.38-2.05,.78-3.03,1.18-3.13,1.33-6.06,2.71-8.78,4.16-.68,.36-1.27,.7-1.87,1.02-2.93,1.71-5.64,3.51-7.97,5.36-1.12,.88-2.15,1.77-3.09,2.69v-38.11c0-9.14,1.67-17.87,4.74-25.94,.14-.34,.3-.72,.46-1.08v-.02l.42-1.08v-.02c.14-.34,.26-.64,.42-.96,.2-.44,.38-.9,.6-1.33l.16-.34c.18-.36,.32-.7,.5-1.06,.08-.18,.18-.36,.26-.54s.18-.34,.28-.52c.2-.4,.42-.82,.66-1.22,2.41,2.65,6.47,6.63,12.97,12.05Z"/><path class="i" d="M140.59,80.69c.3,.7,.1,1.55-.46,2.05-.28,.26-.54,.5-.8,.76-.54,.42-1.04,.92-1.55,1.43-.04,.06-.1,.12-.16,.18-.32,.3-.66,.64-.98,.96-.16,.14-.3,.3-.44,.46-.52,.52-1.02,1.06-1.53,1.63-.24,.28-.5,.54-.76,.82-.24,.28-.5,.56-.72,.86-.66,.74-1.27,1.51-1.89,2.29-.52,.62-1,1.29-1.47,1.95-.08,.1-.12,.18-.2,.28-.22,.28-.4,.54-.62,.82-.4,.6-.82,1.22-1.25,1.81-.42,.68-.82,1.33-1.22,1.97-.26,.44-.52,.9-.82,1.33-.06,.12-.14,.24-.2,.36-.06,.1-.1,.18-.16,.26-.02,.06-.04,.12-.08,.18-.34,.58-.64,1.2-.98,1.83-.02,.02-.02,.06-.02,.08-.24,.4-.46,.82-.66,1.22-.1,.18-.2,.34-.28,.52-.02,.02-.04,.06-.06,.08l-.2,.46c-.18,.36-.32,.7-.5,1.06l-.16,.34c-.22,.42-.4,.88-.6,1.33-.16,.32-.28,.62-.42,.96v.02c-.52,1.08-1.89,1.39-2.81,.6-1.97-1.67-3.92-3.49-5.72-5.38h-.04c-1.57-1.63-3.05-3.35-4.28-5.08-.3-.34-.54-.68-.76-1.04v-.02c-1.14-1.73-2.09-3.45-2.65-5.18-.64-1.95-1.31-3.78-1.97-5.42-.54-1.45-1.12-2.75-1.65-3.98l-.4-.96c-.8-1.73-1.53-3.19-2.15-4.36-.74-1.39,.5-2.95,2.03-2.61,6.41,1.61,18.92,4.14,29.32,2.63,2.49-.36,4.76-.32,6.77-.04h.06c.62,.06,1.2,.18,1.75,.3,.56,.14,1.02,.56,1.25,1.1,.16,.38,.3,.76,.48,1.12Z"/></g></g><g id="b"/></svg>