<?xml version="1.0" encoding="UTF-8"?><svg xmlns="http://www.w3.org/2000/svg" viewBox="0 0 443 417"><defs><style>.c{fill:#f8d7d9;}.d{fill:#efa7aa;}.e{fill:#f0eeef;}.f{fill:#e6e6e6;}.g{fill:#fff;}.h{fill:#6d2c2a;}.i{fill:#c19246;}.j{fill:#25252d;}.k{fill:#43256d;}.l{fill:#5b2424;}.m{fill:none;stroke:#955c41;stroke-miterlimit:10;stroke-width:2px;}</style></defs><g id="a"><g><g><path class="h" d="M407.69,252.04c2.79,10.33-.7,21.39-2.09,25.83-.86,2.7-4.2,5.9-4.2,5.9,0,0-1.59-3.11-3.49-9.37-1.41-4.7-3-11.17-4.2-19.41-.18-1.27,3.13-4.79,4.91-8.61l3.86-1.04,3.09-3.56c.95,5.06,1.7,8.7,2.11,10.26Z"/><path class="k" d="M405.58,241.79l-3.09,3.56-3.86,1.04c.27-.55,.5-1.14,.68-1.72,.11-.38,.18-.93,.21-1.61,.29-7.58-7.63-59.37-7.63-59.37l-3.66-12.53c-1.22-4.15-2.95-8.11-5.18-11.81l-1.81-2.97-.05-.11-3.72-7.43-.84-.07c11.72,19.3,12.05,70.11,12.05,70.11,.66,12.05,2.88,28.43-1.55,36.01-4.04-1.88-24.34-11.24-40.28-18.55-17.8-8.15,14.41-24.04,7.22-51.17-7.18-27.13-33.8,5.43-72.53,.29-34.82-4.63-11.15-35.78-5.99-42.05,39.98-.57,75.89-3.41,91.68-1.91,.05,0,.09,.02,.14,.02h.05c11.85-.45,22.29,7.97,24.23,19.75,4,23.97,10.4,61.89,13.92,80.53Z"/><path class="j" d="M388.22,171.15l3.66,12.53-3.38-10.47c-1.41-4.33-3.13-8.56-5.17-12.64l-2.11-4.2,1.81,2.97c2.23,3.7,3.97,7.67,5.18,11.81Z"/><path class="e" d="M387.12,254.89c-.2,.38-.43,.73-.68,1.05-2.11,2.77-5.79,7.36-9.87,10.44-6.26,4.72-9.83,4.72-8.04,17.94,.23,1.7,.55,3.52,.97,5.38,2.7,12.64,8.63,27.68,8.63,27.68,0,0,1.95,7.04,2.38,14.39h-45.93v-53.65l-.02,.02s-.04,.02-.05,.04c-.82,.48-7.9,4.65-23.16,8.95-1.41,.41-2.91,.8-4.47,1.22-3.82,.98-8.1,1.95-12.81,2.9-8.08,1.59-17.5,3.04-28.36,4.15-2.57,.25-5.24,.5-7.97,.71-36.83,2.93-54.71,.66-62.55-1.2-.66-.16-1.27-.32-1.79-.46-.82-.23-1.47-.45-1.98-.63-.05-.02-.11-.04-.14-.05-.11-.05-.21-.09-.32-.11-.04-.02-.05-.02-.07-.04-.25-.11-.45-.18-.61-.25-.3-.14-.45-.21-.45-.21,0,0-1.27,.16-3.15,.38-.23,.02-.46,.05-.7,.09-.25,.02-.48,.04-.73,.07-.27,.04-.52,.05-.79,.09-.11,0-.2,.02-.3,.04,.11,0,.2-.02,.3-.02-3.47,.41-7.86,.82-10.72,.82-.97,0-1.39,1.72-1.54,4.56-.02,.21-.02,.45-.02,.68-.02,.45-.02,.95-.02,1.47,0,.45,0,.91,.02,1.39,0,.46,.02,.97,.04,1.47,.02,.55,.05,1.14,.07,1.73,.18,4.15,.57,9.06,.93,14.07,0,.05,.02,.11,.02,.16,.25,3.2,.48,6.43,.64,9.51,.05,1.11,.11,2.2,.14,3.27h-.29l-14.3-.02-17.98-.04-13.62-.02c-.13-9.29,.02-24.25,.16-34.17,.09-5.99,.16-10.15,.16-10.15,0,0-19.41-3.4-30.63-17.93-.41-.52-.8-1.07-1.2-1.63,7.02-2.02,17.64-6.81,33.9-18.32,25.95-18.37,45.79-32.42,45.5-41.82,.23-.09,.45-.21,.68-.32,3.72-1.84,6.97-3.91,9.67-6.11,5.67-4.63,8.9-9.95,8.9-15.6,0-1.98-.41-3.95-1.18-5.84-.41-1.02-.93-2.04-1.57-3.02,1.89-.45,3.93-1.02,6.09-1.73,21.21-6.93,13.33-25.66,7.56-35.24,1.75,.13,3.5,.29,5.29,.45,11.51,1.07,23.36,1.64,35.21,1.91,9.81,.21,19.61,.21,29.17,.09-5.17,6.27-28.83,37.42,5.99,42.05,38.73,5.15,65.34-27.42,72.53-.29,7.18,27.13-25.02,43.02-7.22,51.17,15.94,7.31,36.25,16.67,40.28,18.55Zm-61.27-22.25c.55-15.19-11.03-29.54-48.58-26.2-37.57,3.36-33.94-5.56-57.19-2.11-23.25,3.43-3.81,41.09-3.81,41.09,0,0-16.17,15.98-16.28,33.85s48.31-8.65,84.14-26.31c35.85-17.68,41.14-5.13,41.71-20.32Z"/><polygon class="e" points="377.47 148.83 381.18 156.27 376.63 148.76 377.47 148.83"/><path class="h" d="M380.56,332.92c.14,3.7-.14,7.38-1.3,10.22-2.32,5.72-1.79,5-6.26,5.45-3.66,.38-20.73,.82-28.9,.41-1.79-.09-3.15-.21-3.84-.41-1-.27-1.84-1.13-2.57-2.27-.79-1.25-1.43-2.81-1.91-4.29-.8-2.5-1.2-4.77-1.2-4.77v-5.49h45.93l.05,1.07v.07Z"/><path class="l" d="M337.68,346.32h-27.42c-1.88,0-3.4-1.52-3.4-3.4v-13.65h27.7v7.99s.39,2.27,1.2,4.77c.48,1.48,1.13,3.04,1.91,4.29Z"/><path class="f" d="M334.57,294.44v34.83h-27.7v-30.56l.43,.11s.2,4.58,3.41,4.58c3.41,0,3.29-3.66,3.29-3.66h1.72s.75,6.06,2.95,5.49c3.4-.89,2.66-6.24,4.54-6.7,3.41-.84,3.41,4.27,5.68,3.4,1.77-.66,2.16-3.91,2.25-5.29,.02-.34,.02-.54,.02-.54l3.41-1.64Z"/><path class="c" d="M334.57,278.12v16.32l-3.41,1.64s0,.2-.02,.54c-.09,1.38-.48,4.63-2.25,5.29-2.27,.88-2.27-4.24-5.68-3.4-1.88,.46-1.14,5.81-4.54,6.7-2.2,.57-2.95-5.49-2.95-5.49h-1.72s.13,3.66-3.29,3.66c-3.22,0-3.41-4.58-3.41-4.58l-.43-.11-2.97-.8s-4.56,4.58-6.83,3.66c-2.27-.93,0-7.31-1.13-8.22-.39-.3-1.11-1.14-1.89-2.11,4.72-.95,8.99-1.91,12.81-2.9,1.55-.41,3.06-.8,4.47-1.22,15.26-4.31,22.34-8.47,23.16-8.95,.02-.02,.04-.04,.05-.04l.02-.02Z"/><path class="k" d="M277.27,206.43c37.55-3.34,49.13,11.01,48.58,26.2-.57,15.19-5.86,2.65-41.71,20.32-35.83,17.66-84.25,44.18-84.14,26.31s16.28-33.85,16.28-33.85c0,0-19.45-37.66,3.81-41.09,23.25-3.45,19.62,5.47,57.19,2.11Z"/><path class="k" d="M205.87,140.95c5.77,9.58,13.65,28.31-7.56,35.24-2.16,.71-4.2,1.29-6.09,1.73-.8-1.29-1.81-2.56-2.95-3.77-.43-.45-.89-.93-1.38-1.36v-28.54c0-1.45-.05-2.9-.18-4.31,5.81,.18,11.89,.5,18.16,1Z"/><path class="k" d="M199.99,98.86c1.3-.32,2.36,1.05,1.73,2.23-.34,.66-.71,1.43-1.13,2.31-2.97,.45-5.65,.75-7.22,.75-2.07,0-2.81-1.57-2.91-3.54,.43-.05,.86-.11,1.27-.16,3.22-.46,6.13-1.07,8.26-1.59Z"/><path class="e" d="M200.6,103.4c-.98,2.13-2.13,4.88-3.27,8.31-.43,1.29-1.11,2.59-1.98,3.88-.82,1.23-1.79,2.45-2.88,3.63-1.64,1.82-3.52,3.57-5.38,5.15-1.07,.89-2.72,.5-3.25-.8-.09-.2-.16-.39-.25-.59-.14-.34-.3-.7-.46-1.02-.02-.05-.05-.13-.09-.18-.02-.04-.04-.09-.05-.13-.16-.43-.36-.84-.57-1.23l-.05-.11c-.02-.05-.05-.11-.07-.14-.29-.63-.61-1.22-.93-1.82-.45-.84-.93-1.68-1.43-2.48-.23-.38-.48-.75-.71-1.13-.02-.05-.05-.11-.11-.16-.23-.38-.48-.75-.73-1.13-.29-.39-.55-.79-.84-1.16-.23-.36-.5-.71-.77-1.07-.04-.02-.05-.05-.09-.09-.57-.75-1.18-1.5-1.79-2.22-.63-.73-1.25-1.43-1.91-2.13s-1.32-1.36-2.02-2.02c0,0,0-.02-.02-.02-.59-.59-.8-1.48-.5-2.27,0-.02,.02-.04,.02-.05,.02-.02,.02-.05,.04-.07l.11-.21c.27-.63,.82-1.09,1.48-1.23,1.84-.41,3.95-.54,6.38-.18,1.16,.16,2.34,.27,3.54,.3,2.84,.11,5.75-.07,8.47-.41,.11,1.97,.84,3.54,2.91,3.54,1.57,0,4.25-.3,7.22-.75Z"/><path class="c" d="M193.79,180.95c.77,1.89,1.18,3.86,1.18,5.84,0,5.65-3.23,10.97-8.9,15.6-2.7,2.2-5.95,4.27-9.67,6.11-.23,.11-.45,.23-.68,.32-1.2,.59-2.43,1.18-3.72,1.7-1.41,.59-2.88,1.16-4.4,1.7-.54,.2-1.11,.39-1.66,.57-.54,.2-1.07,.38-1.63,.54-.45,.16-.93,.3-1.39,.45-.13,.04-.27,.09-.41,.13-.59,.18-1.2,.36-1.82,.52-.75,.21-1.5,.43-2.27,.63-.97,.23-1.93,.48-2.91,.7-2.16,.52-4.4,.98-6.7,1.38-1.95,.34-3.95,.66-5.99,.93-.84,.11-1.66,.21-2.5,.32-2.54,.29-5.11,.52-7.74,.7-1.16,.09-2.34,.14-3.52,.2-1.11,.05-2.23,.09-3.36,.13h-.34c-1.16,.02-2.32,.04-3.5,.04-11.92,0-23.16-1.27-33.1-3.54-5.47-1.22-10.56-2.77-15.1-4.56-.11-.05-.2-.09-.3-.13-4.91-1.95-9.22-4.16-12.83-6.63-.2-.14-.39-.29-.59-.41-.43-.3-.82-.59-1.23-.89-6.33-4.84-9.95-10.47-9.95-16.48,0-5,2.52-9.76,7.08-13.99,.71-.68,1.48-1.34,2.32-2,1.75-1.39,3.77-2.75,5.97-4.02,.45-.25,.89-.5,1.39-.77,2.04-1.09,4.24-2.13,6.58-3.11,.73-.3,1.5-.61,2.27-.89,1.14-.45,2.32-.86,3.54-1.27l.32-.11c.07-.02,.13-.04,.2-.07,.5-.16,1.04-.32,1.55-.48l1.18-.38,.97-.27c1.68-.5,3.43-.97,5.22-1.38,.75-.18,1.5-.36,2.25-.52,.64-.14,1.29-.29,1.95-.41,.66-.14,1.32-.27,1.98-.39,.79-.14,1.61-.29,2.41-.43,1.63-.29,3.29-.54,4.97-.75,.57-.09,1.14-.16,1.73-.21,.48-.07,.98-.13,1.47-.18,.89-.11,1.81-.2,2.72-.29,.25-.02,.48-.05,.73-.07,.77-.07,1.54-.13,2.32-.18,.16-.02,.3-.02,.46-.04,.7-.05,1.41-.09,2.13-.14,.41-.02,.84-.04,1.25-.07,.97-.04,1.93-.07,2.91-.11,1.73-.05,3.49-.09,5.24-.09,7.51,0,14.76,.52,21.59,1.48,2.61,.36,5.15,.79,7.63,1.25,1.23,.25,2.45,.5,3.66,.77,.89,.2,1.79,.41,2.66,.63,.09,.02,.18,.05,.27,.07,.36,.09,.7,.18,1.04,.27s.68,.16,1.02,.27c.09,.02,.2,.04,.29,.07,.75,.2,1.48,.41,2.2,.63,.82,.25,1.64,.5,2.43,.75,.66,.21,1.3,.43,1.95,.64,.54,.2,1.05,.38,1.57,.57,1.02,.38,2.04,.77,3.02,1.16,.61,.25,1.23,.5,1.82,.77,.61,.27,1.2,.52,1.77,.8,.59,.27,1.16,.54,1.72,.82,.55,.27,1.11,.55,1.64,.84v.02c.52,.27,1.02,.54,1.5,.82,.43,.25,.88,.5,1.3,.77,.77,.48,1.5,.95,2.22,1.45,1.75,1.2,3.32,2.47,4.74,3.77,.48,.43,.95,.91,1.38,1.36,1.14,1.22,2.14,2.48,2.95,3.77,.64,.98,1.16,2,1.57,3.02Zm-54.62,5.77c.07-.2,.09-.41,.09-.63,0-1.27-.91-2.38-2.29-3.02-.75-.34-1.64-.54-2.59-.54-2.7,0-4.88,1.59-4.88,3.56,0,.48,.14,.95,.39,1.36v.02c.11,.18,.21,.34,.36,.5,.86,1,2.38,1.66,4.13,1.66,2.39,0,4.4-1.27,4.79-2.91Zm-23.59-.63c0-1.81-1.86-3.31-4.27-3.52-.2-.02-.41-.04-.61-.04-2.7,0-4.88,1.59-4.88,3.56,0,.57,.2,1.09,.52,1.57,.79,1.16,2.45,1.97,4.36,1.97,2.68,0,4.88-1.59,4.88-3.54Z"/><path class="l" d="M193.38,329.65v12.51c0,2.79-2.27,5.06-5.06,5.06h-15.26l.11-.27c.97-2.79,1.07-7.97,.84-14.03-.04-1.07-.09-2.16-.14-3.27h19.52Z"/><path class="f" d="M193.38,294.44v35.21h-19.52c-.16-3.07-.39-6.31-.64-9.51,0-.05-.02-.11-.02-.16-.3-5-.71-9.92-.93-14.07-.02-.59-.05-1.18-.07-1.73-.02-.5-.04-1-.04-1.47-.02-.48-.02-.95-.02-1.39,0-.52,0-1.02,.02-1.47,0-.23,0-.46,.02-.68,.14-2.84,.57-4.56,1.54-4.56,2.86,0,7.26-.41,10.72-.82,.02,0,.05,0,.09-.02,.5-.05,.98-.11,1.43-.16,.23-.04,.46-.07,.7-.09,1.88-.21,3.15-.38,3.15-.38,0,0,.14,.07,.45,.21,.16,.07,.36,.14,.61,.25,.02,.02,.04,.02,.07,.04,.11,.02,.21,.05,.32,.11,.04,.02,.09,.04,.14,.05,.52,.18,1.16,.39,1.98,.63Z"/><path class="e" d="M187.89,144.26v28.54c-1.41-1.3-2.98-2.57-4.74-3.77-.71-.5-1.45-.97-2.22-1.45-.43-.27-.88-.52-1.3-.77-.48-.29-.98-.55-1.5-.84-.54-.29-1.09-.57-1.64-.84-.55-.29-1.13-.57-1.72-.82-.57-.29-1.16-.54-1.77-.8-.59-.27-1.22-.52-1.82-.77-.98-.39-2-.79-3.02-1.16-.52-.2-1.04-.38-1.57-.57-.64-.21-1.29-.43-1.95-.64-.79-.25-1.61-.5-2.43-.75-.71-.21-1.45-.43-2.2-.63-.09-.04-.2-.05-.29-.07-.34-.11-.68-.18-1.02-.27s-.68-.18-1.04-.27c-.09-.02-.18-.05-.27-.07-.88-.21-1.77-.43-2.66-.63-1.22-.27-2.43-.52-3.66-.77-2.47-.48-5.02-.89-7.63-1.25-6.83-.97-14.08-1.48-21.59-1.48-1.75,0-3.5,.04-5.24,.09-.98,.04-1.95,.07-2.91,.11-.41,.04-.84,.05-1.25,.07-.71,.05-1.43,.09-2.13,.14-.16,.02-.3,.02-.46,.04-.79,.05-1.55,.11-2.32,.18-.25,.02-.48,.05-.73,.07-.91,.09-1.82,.18-2.72,.29-.48,.05-.98,.11-1.47,.18-.59,.05-1.16,.13-1.73,.21-1.68,.21-3.34,.46-4.97,.75-.8,.14-1.63,.29-2.41,.43-.66,.13-1.32,.25-1.98,.39-.66,.13-1.3,.27-1.95,.41-.75,.16-1.5,.34-2.25,.52-1.79,.41-3.54,.88-5.22,1.38l-.97,.27-1.18,.38c-.52,.16-1.05,.32-1.55,.48-.07,.04-.13,.05-.2,.07l-.32,.11c.54-11.62,.11-27.99-5.97-33.03-4.88-4.06-7.92-7.04-9.72-9.03,0-.02,0-.04,.02-.05,.25-.46,.48-.93,.73-1.38,.04-.04,.05-.09,.07-.13,.04-.07,.07-.13,.11-.2l.16-.27c.21-.32,.41-.66,.61-1,.3-.48,.61-.97,.93-1.47,.3-.45,.63-.91,.93-1.36,.16-.21,.3-.41,.46-.63,.05-.07,.09-.13,.14-.2,.36-.5,.71-1,1.11-1.47,.46-.59,.91-1.16,1.41-1.72,.16-.23,.36-.43,.54-.64,.2-.21,.39-.41,.57-.63,.38-.41,.75-.82,1.14-1.22,.11-.13,.21-.23,.34-.34,.23-.25,.48-.5,.73-.73l.13-.13c.38-.38,.75-.75,1.14-1.07,.2-.2,.39-.38,.61-.57,.23-.2,.48-.43,.73-.64,.23-.2,.48-.41,.73-.61l.27-.21c.23-.2,.45-.38,.68-.55,3.31-2.63,6.9-4.86,10.76-6.65,.39-.2,.8-.38,1.2-.55,1-.45,2.02-.86,3.06-1.23,4.02-1.48,8.27-2.52,12.71-3,2-.23,4.06-.34,6.15-.34h23.72c-3.77,5.38-12.1,18.84-.82,19.12,14.1,.34,35.51-6.68,36.37,4.93,.66,8.7,10.9,13.26,16.03,15.01,.27,.91,.52,1.82,.73,2.75,.29,1.18,.54,2.38,.71,3.59,.13,.63,.21,1.25,.29,1.88,.14,.97,.25,1.97,.32,2.95,.13,1.41,.18,2.86,.18,4.31Zm-34.67-3.97c.05-.43,.07-.89,.07-1.36,0-4.09-1.75-7.4-3.93-7.4s-3.93,3.31-3.93,7.4c0,.63,.04,1.23,.13,1.82,.43,3.2,1.98,5.56,3.81,5.56,1.93,0,3.52-2.59,3.86-6.02Zm-59.68-1.36c0-4.09-1.75-7.4-3.93-7.4s-3.93,3.31-3.93,7.4,1.77,7.38,3.93,7.38,3.93-3.31,3.93-7.38Z"/><path class="e" d="M185.23,293.69c.25-.04,.48-.05,.73-.07-.45,.05-.93,.11-1.43,.16,.23-.04,.46-.05,.7-.09Z"/><path class="k" d="M184.84,126.19c.3,.86,.57,1.72,.82,2.59-5.13-1.75-15.37-6.31-16.03-15.01-.86-11.62-22.27-4.59-36.37-4.93-11.28-.29-2.95-13.74,.82-19.12,1.82,.04,3.63,.14,5.42,.34,5.83,.64,11.38,2.22,16.51,4.58,.57,.27,1.14,.54,1.7,.82,3.79,1.88,7.29,4.18,10.51,6.86,.54,.45,1.11,.91,1.61,1.41t.04,.02c.38,.34,.73,.66,1.07,1,.02,0,.02,.02,.02,.02,.7,.66,1.36,1.32,2.02,2.02s1.29,1.39,1.91,2.13c.61,.71,1.22,1.47,1.79,2.22,.3,.39,.59,.77,.86,1.16,.29,.38,.55,.77,.84,1.16,.25,.38,.5,.75,.73,1.13,.05,.05,.09,.11,.11,.16,.23,.38,.48,.75,.71,1.13,.5,.8,.98,1.64,1.43,2.48,.32,.61,.64,1.2,.93,1.82,.02,.04,.05,.09,.07,.14l.05,.11c.2,.41,.39,.82,.57,1.23,.02,.04,.04,.09,.05,.13,.04,.05,.07,.13,.09,.18,.16,.32,.32,.68,.46,1.02,.09,.2,.16,.39,.25,.59,.36,.86,.68,1.75,1,2.63Z"/><path class="e" d="M185.23,293.69c-.23,.04-.46,.05-.7,.09h-.09c.27-.04,.52-.05,.79-.09Z"/><path class="e" d="M184.53,293.78s-.07,.02-.09,.02v-.02h.09Z"/><path class="e" d="M184.44,293.78v.02c-.11,0-.2,.02-.3,.02,.11-.02,.2-.04,.3-.04Z"/><path class="e" d="M182.98,121.65c-.18-.41-.38-.82-.57-1.23,.21,.39,.41,.8,.57,1.23Z"/><path class="e" d="M179.64,166.81c-.48-.29-.98-.55-1.5-.82v-.02c.52,.29,1.02,.55,1.5,.84Z"/><path class="e" d="M177.53,112.28c-.27-.39-.55-.77-.86-1.16,.04,.04,.05,.07,.09,.09,.27,.36,.54,.71,.77,1.07Z"/><path class="e" d="M176.49,165.13c-.55-.29-1.13-.55-1.72-.82,.59,.25,1.16,.54,1.72,.82Z"/><path class="k" d="M175.72,208.83c.29,9.4-19.55,23.45-45.5,41.82-16.26,11.51-26.88,16.3-33.9,18.32-1.13-1.61-2.14-3.36-3.02-5.24-14.32-30.56-18.78-44.9-19.64-52.4,4.54,1.79,9.63,3.34,15.1,4.56,9.94,2.27,21.18,3.54,33.1,3.54,1.18,0,2.34-.02,3.5-.04h.34c1.13-.04,2.25-.07,3.36-.13,1.18-.05,2.36-.11,3.52-.2,2.63-.16,5.2-.39,7.74-.7,.84-.11,1.66-.21,2.5-.32,2.04-.27,4.02-.57,5.99-.93,2.31-.39,4.54-.86,6.7-1.38,.98-.21,1.95-.46,2.91-.7,.77-.2,1.52-.41,2.27-.63,.63-.16,1.23-.34,1.82-.52,.14-.04,.29-.09,.41-.13,.46-.14,.95-.29,1.39-.45,.55-.16,1.09-.34,1.63-.54,.55-.18,1.13-.38,1.66-.57,1.52-.54,2.98-1.11,4.4-1.7,1.29-.52,2.52-1.11,3.72-1.7Z"/><path class="h" d="M174.01,332.92c.23,6.06,.13,11.24-.84,14.03l-.11,.27c-.34,.91-.77,1.52-1.34,1.79-.23,.11-.46,.16-.71,.16-8.01-.13-37.51,0-37.51,0,0,0-4.45-1.61-5.34-8.63-.02-.21-.05-.45-.07-.73-.13-1.47-.2-3.91-.25-6.95l13.62,.02,17.98,.04,14.3,.02h.29Z"/><path class="i" d="M172.88,93.28c0,.23-.02,.48-.04,.75-.21,2.38-1.32,5.61-2.61,8.72-.13,.32-.27,.64-.41,.97-.5-.5-1.07-.97-1.61-1.41-3.22-2.68-6.72-4.99-10.51-6.86,1.61-.95,3.31-2.09,4.83-3.32,1.86-1.5,3.47-3.16,4.33-4.86,3-6.02,3-9.03,3-9.03,0,0,3.02,9.03,3.02,15.05Z"/><path class="e" d="M172.27,305.91c.21,4.15,.63,9.06,.93,14.07-.36-5-.75-9.92-.93-14.07Z"/><path class="j" d="M153.29,138.93c0,.46-.02,.93-.07,1.36-.34,3.43-1.93,6.02-3.86,6.02-1.82,0-3.38-2.36-3.81-5.56-.09-.59-.13-1.2-.13-1.82,0-4.09,1.77-7.4,3.93-7.4s3.93,3.31,3.93,7.4Zm-1.91-3.5c0-.98-.8-1.79-1.79-1.79s-1.79,.8-1.79,1.79,.8,1.79,1.79,1.79,1.79-.8,1.79-1.79Z"/><circle class="g" cx="149.59" cy="135.43" r="1.79"/><path class="e" d="M143.45,155.66c2.61,.36,5.17,.77,7.63,1.25-2.48-.46-5.02-.89-7.63-1.25Z"/><path class="e" d="M142.82,218.05c2.04-.27,4.04-.59,5.99-.93-1.97,.36-3.95,.66-5.99,.93Z"/><path class="d" d="M139.26,186.1c0,.21-.02,.43-.09,.63-.39,1.64-2.39,2.91-4.79,2.91-1.75,0-3.27-.66-4.13-1.66-.14-.16-.25-.32-.36-.5v-.02c-.25-.41-.39-.88-.39-1.36,0-1.97,2.18-3.56,4.88-3.56,.95,0,1.84,.2,2.59,.54,1.38,.64,2.29,1.75,2.29,3.02Z"/><path class="e" d="M132.58,219.07c2.63-.18,5.2-.41,7.74-.7-2.54,.3-5.11,.54-7.74,.7Z"/><path class="d" d="M111.31,182.57c2.41,.21,4.27,1.72,4.27,3.52,0,1.95-2.2,3.54-4.88,3.54-1.91,0-3.57-.8-4.36-1.97-.32-.48-.52-1-.52-1.57,0-1.97,2.18-3.56,4.88-3.56,.2,0,.41,.02,.61,.04Z"/><path class="j" d="M89.61,131.53c2.18,0,3.93,3.31,3.93,7.4s-1.75,7.38-3.93,7.38-3.93-3.31-3.93-7.38,1.77-7.4,3.93-7.4Zm2.79,3.9c0-.98-.8-1.79-1.79-1.79s-1.79,.8-1.79,1.79,.8,1.79,1.79,1.79,1.79-.8,1.79-1.79Z"/><circle class="g" cx="90.62" cy="135.43" r="1.79"/><path class="i" d="M80.68,89.5c1.7,1.98,4.18,3.84,6.58,5.34-3.86,1.79-7.45,4.02-10.76,6.65-.23,.18-.45,.36-.68,.55l-.27,.21c-.02-.05-.05-.13-.07-.18-1.3-3.23-2.36-6.54-2.36-8.79,0-.61,.04-1.25,.09-1.91,.48-5.84,2.91-13.14,2.91-13.14,0,0,0,3,3.02,9.03,.38,.75,.91,1.5,1.54,2.23Z"/><path class="k" d="M71.92,127.71c6.08,5.04,6.51,21.41,5.97,33.03-1.22,.41-2.39,.82-3.54,1.27-.77,.29-1.54,.59-2.27,.89-2.34,.98-4.54,2.02-6.58,3.11-.5,.27-.95,.52-1.39,.77-2.2,1.27-4.22,2.63-5.97,4.02-.84,.66-1.61,1.32-2.32,2v-28.54c0-6.85,1.25-13.39,3.56-19.43,.11-.27,.23-.55,.34-.82v-.02l.32-.8v-.02c.11-.25,.2-.48,.32-.71,.14-.34,.29-.68,.45-1l.13-.25c.13-.27,.23-.54,.38-.8,.13-.27,.25-.52,.39-.79,.16-.3,.32-.63,.5-.93,1.81,1.98,4.84,4.97,9.72,9.03Z"/><path class="e" d="M74.42,101.97c.23,.54,.09,1.16-.34,1.54-.21,.2-.41,.38-.61,.57-.39,.32-.77,.7-1.14,1.07l-.13,.13c-.25,.23-.5,.48-.73,.73-.13,.11-.23,.21-.34,.34-.39,.39-.77,.8-1.14,1.22-.18,.21-.38,.41-.57,.63-.18,.21-.38,.41-.54,.64-.5,.55-.95,1.13-1.41,1.72-.39,.46-.75,.97-1.11,1.47-.05,.07-.09,.13-.14,.2-.16,.21-.3,.41-.46,.63-.3,.45-.63,.91-.93,1.36-.32,.5-.63,.98-.93,1.47-.2,.34-.39,.68-.61,1l-.16,.27c-.04,.07-.07,.13-.11,.2-.02,.04-.04,.09-.07,.13-.25,.45-.48,.91-.73,1.38-.02,.02-.02,.04-.02,.05-.18,.3-.34,.63-.5,.93-.09,.14-.16,.29-.25,.45l-.14,.34c-.14,.27-.25,.54-.38,.8l-.13,.25c-.16,.32-.3,.66-.45,1-.13,.23-.21,.46-.32,.71v.02c-.39,.8-1.41,1.04-2.11,.45-1.47-1.25-2.93-2.61-4.29-4.02h-.02c-1.18-1.23-2.29-2.52-3.22-3.81-.21-.27-.39-.52-.57-.79v-.02c-.86-1.29-1.55-2.59-1.98-3.88-.48-1.47-.97-2.82-1.47-4.06-.41-1.09-.84-2.07-1.23-2.98l-.3-.71c-.61-1.3-1.14-2.39-1.61-3.27-.55-1.04,.38-2.22,1.52-1.95,4.79,1.2,14.17,3.09,21.97,1.97,1.86-.27,3.56-.25,5.06-.04h.05c.46,.05,.89,.14,1.3,.23,.43,.11,.77,.41,.93,.82,.13,.29,.23,.57,.36,.84Z"/><path class="e" d="M61.7,119.61c-.14,.27-.27,.52-.39,.79l.14-.34c.09-.16,.16-.3,.25-.45Z"/></g><path class="m" d="M116.53,200.66s6.63,3.65,14.92,.93"/></g></g><g id="b"/></svg>