<?xml version="1.0" encoding="UTF-8"?><svg xmlns="http://www.w3.org/2000/svg" viewBox="0 0 443 417"><defs><style>.c{fill:#f8d7d9;}.d{fill:#efa7aa;}.e{fill:#f0eeef;}.f{fill:#c19246;}.g{fill:#a96b50;}.h{fill:#25252d;}.i{fill:#43256d;}</style></defs><g id="a"><g><path class="g" d="M325.29,180.3s3.57,25.02-8.94,30.38c-.57,.25-1.11,.55-1.61,.93l-.04,.02-3.72,.84-1.79-3.57h-1.79c-2.38-4.88,.88-11.53,8.94-16.09,8.06-4.56,8.94-12.51,8.94-12.51Z"/><path class="e" d="M311,212.47l3.72-.84c-4.56,3.38-2.66,12.74-3.66,21.8-.8-.23-1.63-.46-2.45-.7-.98-.29-1.97-.55-2.93-.8,.16-.71,.32-1.41,.45-2.11,2.16-10.44,2.23-19.07,1.3-20.93h1.79l1.79,3.57Z"/><path class="e" d="M311.05,233.43l-.05,.48c-.05,.48-.13,.97-.2,1.45v.02c-1.57,11.06-5.52,21.88-8.74,27.13-2.23,3.65-2.95,8.72-2.93,13.74-.21-1.59-.43-3.2-.64-4.81-.5-3.77-1-7.56-1.5-11.26,1.84-6.99,6.4-18.21,8.65-28.06,.02-.07,.04-.13,.04-.2,.97,.25,1.95,.52,2.93,.8,.82,.23,1.64,.46,2.45,.7Z"/><path class="i" d="M304.19,98.07c1.55-.38,2.81,1.25,2.06,2.66-.41,.77-.84,1.7-1.34,2.73-1.16,2.52-2.52,5.79-3.88,9.87-.52,1.54-1.32,3.09-2.36,4.61-.59,.88-1.22,1.73-1.91,2.57-2.72-2.38-5.29-5.13-6.95-7.99-2.16-3.7-1.89-8.11-.89-11.99,1.34-.09,2.66-.23,3.95-.39,.52-.05,1.04-.13,1.52-.18,3.82-.55,7.27-1.29,9.81-1.89Z"/><path class="g" d="M303.97,318.9c.09,2.39,.09,4.59,0,6.56-.21,3.77-.8,6.68-1.91,8.54-5.36,8.94-10.72,8.04-23.23,8.04-11.33,0-21.45,0-28.67-5.95-2.98-2.45-4.61-7.86-5.38-14.48-.2-1.47-.32-2.98-.41-4.56l.79,.93s1.72,.38,4.63,.86c5.38,.89,14.87,2.16,25.36,2.22,2.52,.02,5.09-.04,7.69-.2,10.1-.61,16.93-1.38,21.14-1.97Z"/><path class="e" d="M302.85,304.78c.57,5.2,.98,9.97,1.13,14.12-4.22,.59-11.05,1.36-21.14,1.97-2.59,.16-5.17,.21-7.69,.2-10.49-.05-19.98-1.32-25.36-2.22-2.91-.48-4.63-.86-4.63-.86l-.79-.93c-.2-2.79-.25-5.72-.21-8.65,0-2.45,.07-4.91,.18-7.31,.61-12.9,2.32-24.29,2.32-24.29,0,0-1.02-7.76-7.15-8.94-3-.57-8.15-1.02-14.12-1.11-6.27-.09-13.42,.2-19.84,1.11-12.51,1.79-10.79,10.1-10.79,10.1,0,0,0,.04,.02,.11,.09,.52,.46,2.91,.93,6.49,.07,.63,.16,1.29,.23,1.98,.32,2.75,.64,5.99,.91,9.49l.11,1.45c0,.21,.02,.41,.04,.63l.05,.75c.04,.61,.07,1.23,.11,1.86,.02,.36,.04,.71,.04,1.09,.04,.52,.05,1.05,.07,1.57,.02,.36,.04,.73,.04,1.13,.04,.95,.05,1.91,.05,2.88,.04,2.31,0,4.61-.11,6.9-.04,1.05-.11,2.09-.18,3.11-.02,.23-.04,.45-.05,.68-.97,.11-2.31,.29-3.75,.48-.34,.05-.71,.11-1.07,.16-3.82,.59-10.29,1.39-20.16,2.04-4.31-2.84-7.99-5.61-10.19-7.99-8.86-9.6,37.46-56.51,15.87-54.31-11.78,1.2-29.33,2.25-42.82,2.98,.05-.7,.11-1.39,.14-2.07,.05-.75,.11-1.48,.16-2.22l.11-1.5c.09-1.34,.2-2.66,.3-3.95,.11-1.45,.23-2.84,.34-4.2,.11-1.23,.21-2.41,.32-3.57l.11-1.23c.02-.05,.02-.11,.02-.14,0-.05,0-.09,.02-.16v-.02c0-.05,.02-.13,.02-.21,0-.04,0-.09,.02-.13,.02-.09,.02-.2,.04-.3l.05-.64c1.02-10.71,1.93-17.41,1.93-17.41,4.29,2.93,9.4,5.58,15.25,7.88,.13,.04,.23,.09,.36,.14,5.4,2.13,11.46,3.99,17.94,5.42,11.81,2.7,25.16,4.22,39.34,4.22,1.39,0,2.79-.04,4.16-.05h.39c1.34-.04,2.68-.09,4-.14,1.39-.07,2.81-.13,4.18-.23,.5-.04,1.02-.07,1.52-.13,2.59-.18,5.15-.43,7.67-.71,1-.13,1.98-.25,2.98-.38,2.41-.32,4.79-.7,7.11-1.11,2.73-.46,5.4-1.02,7.95-1.63,1.18-.25,2.32-.55,3.47-.84,.91-.23,1.81-.48,2.7-.73,.75-.2,1.47-.41,2.16-.63,.18-.04,.34-.11,.48-.14,.55-.16,1.13-.34,1.66-.54,.66-.18,1.3-.39,1.93-.63,.66-.21,1.34-.45,1.98-.68,1.81-.64,3.54-1.32,5.22-2.02,1.54-.63,3-1.32,4.41-2.02,.29-.11,.54-.25,.8-.38,4.43-2.2,8.29-4.66,11.49-7.27,1.36-1.11,2.61-2.25,3.72-3.43,0,0,.3,2.31,.84,6.24-10.79,8.47-30.06,35.67-25.33,52.37,3.25,11.53,20.86,21.71,35.98,28.52Z"/><path class="i" d="M302.26,299.7c.21,1.73,.41,3.43,.59,5.08-15.12-6.81-32.72-17-35.98-28.52-4.74-16.69,14.53-43.89,25.33-52.37,.21,1.57,.45,3.41,.71,5.47,1.04,7.88,2.5,18.98,4.07,30.83,.5,3.7,1,7.49,1.5,11.26,.21,1.61,.43,3.22,.64,4.81,.86,6.36,1.73,12.53,2.48,18.32,.21,1.75,.43,3.45,.64,5.13Z"/><path class="c" d="M296.81,195.6c.93,2.25,1.41,4.59,1.41,6.95,0,3.04-.79,6.01-2.29,8.85-1.13,2.16-2.66,4.25-4.58,6.26-1.11,1.18-2.36,2.32-3.72,3.43-3.2,2.61-7.06,5.08-11.49,7.27-.27,.13-.52,.27-.8,.38-1.41,.7-2.88,1.39-4.41,2.02-1.68,.7-3.41,1.38-5.22,2.02-.64,.23-1.32,.46-1.98,.68-.63,.23-1.27,.45-1.93,.63-.54,.2-1.11,.38-1.66,.54-.14,.04-.3,.11-.48,.14-.7,.21-1.41,.43-2.16,.63-.89,.25-1.79,.5-2.7,.73-1.14,.29-2.29,.59-3.47,.84-2.56,.61-5.22,1.16-7.95,1.63-2.32,.41-4.7,.79-7.11,1.11-1,.13-1.98,.25-2.98,.38-2.52,.29-5.08,.54-7.67,.71-.5,.05-1.02,.09-1.52,.13-1.38,.11-2.79,.16-4.18,.23-1.32,.05-2.66,.11-4,.14h-.39c-1.38,.02-2.77,.05-4.16,.05-14.17,0-27.52-1.52-39.34-4.22-6.49-1.43-12.55-3.29-17.94-5.42-.13-.05-.23-.11-.36-.14-5.84-2.31-10.96-4.95-15.25-7.88-.23-.16-.46-.34-.7-.48-.52-.36-.98-.7-1.47-1.07-1.16-.89-2.25-1.81-3.25-2.73-5.5-5.09-8.58-10.81-8.58-16.84s3-11.6,8.42-16.62c.84-.82,1.75-1.61,2.75-2.39,2.07-1.64,4.49-3.25,7.1-4.77,.54-.29,1.05-.59,1.66-.91,2.41-1.29,5.02-2.52,7.81-3.7,.88-.36,1.79-.71,2.7-1.05,1.36-.54,2.75-1.02,4.2-1.5,.13-.05,.25-.09,.38-.14,.09-.02,.16-.04,.23-.07,.61-.2,1.23-.39,1.86-.57,.46-.16,.93-.3,1.39-.45l1.14-.32c2-.59,4.09-1.14,6.2-1.64,.89-.21,1.79-.41,2.68-.61,.77-.18,1.54-.34,2.32-.48,.79-.18,1.57-.32,2.34-.48,.95-.16,1.91-.34,2.88-.5,1.93-.34,3.91-.64,5.9-.89,.68-.11,1.36-.2,2.06-.25,.59-.09,1.18-.16,1.75-.21,1.05-.13,2.14-.23,3.23-.34,.29-.02,.57-.07,.86-.09,.91-.09,1.82-.14,2.77-.21,.18-.02,.36-.02,.55-.04,.82-.07,1.66-.11,2.52-.18,.48-.02,1-.04,1.48-.07,1.14-.05,2.29-.09,3.47-.14,2.06-.05,4.15-.11,6.22-.11,8.92,0,17.53,.63,25.65,1.77,1.55,.21,3.09,.45,4.59,.7h.02c1.52,.25,3,.52,4.47,.79,1.47,.3,2.9,.61,4.34,.91,1.07,.23,2.13,.5,3.16,.75,.11,.02,.21,.07,.32,.09,.43,.11,.82,.21,1.23,.32,.41,.09,.8,.18,1.22,.3,.11,.04,.23,.05,.34,.09,.89,.23,1.75,.48,2.61,.75,.98,.29,1.95,.59,2.9,.89,.79,.25,1.54,.5,2.31,.75,.13,.05,.27,.09,.39,.14,.5,.18,.98,.36,1.48,.54,1.2,.45,2.41,.91,3.57,1.39,.73,.29,1.47,.59,2.18,.91s1.41,.61,2.09,.95c.7,.32,1.38,.64,2.04,.98,.66,.32,1.32,.66,1.97,1v.02c.61,.32,1.2,.64,1.77,.98,.52,.29,1.05,.59,1.55,.91,.91,.57,1.79,1.13,2.65,1.72,2.07,1.41,3.95,2.93,5.61,4.49,.57,.5,1.13,1.07,1.64,1.61,1.36,1.45,2.54,2.95,3.5,4.49,.45,.66,.82,1.36,1.16,2.04,.27,.52,.48,1.02,.7,1.54Zm-64.89,6.86c.09-.23,.11-.48,.11-.73,0-1.52-1.07-2.82-2.72-3.59-.89-.41-1.95-.64-3.07-.64-3.22,0-5.79,1.89-5.79,4.24,0,.57,.16,1.13,.46,1.61v.02c.13,.21,.25,.41,.41,.59,1.02,1.2,2.82,1.98,4.91,1.98,2.84,0,5.22-1.52,5.68-3.47Zm-28.02-.73c0-2.14-2.22-3.93-5.08-4.18-.23-.04-.48-.05-.71-.05-3.22,0-5.81,1.89-5.81,4.24,0,.68,.23,1.29,.63,1.86,.93,1.38,2.9,2.34,5.18,2.34,3.18,0,5.79-1.89,5.79-4.2Z"/><path class="i" d="M296.75,120.52c-.48,.59-.98,1.16-1.5,1.73-1.97,2.18-4.2,4.25-6.4,6.13-1.27,1.05-3.23,.59-3.86-.97-.11-.23-.2-.46-.3-.7-.16-.41-.36-.82-.55-1.22-.02-.05-.05-.14-.11-.21-.02-.04-.04-.11-.05-.14-.2-.52-.43-1-.68-1.47-.04-.04-.05-.09-.07-.13-.02-.07-.07-.13-.09-.18-.34-.73-.71-1.43-1.09-2.16-.54-1-1.11-2-1.72-2.95-.27-.45-.57-.89-.84-1.34-.02-.05-.07-.13-.13-.2-.29-.45-.57-.88-.88-1.32-.34-.48-.66-.95-1-1.39-.27-.41-.59-.84-.91-1.27-.04-.02-.04-.04-.05-.05l-.05-.05c-.68-.89-1.39-1.79-2.13-2.63-.73-.88-1.48-1.7-2.27-2.54-.79-.82-1.57-1.61-2.39-2.39,0,0,0-.02-.02-.02-.59-.59-.88-1.43-.71-2.23v-.02c1.39-.88,2.79-1.77,4.15-2.65,1.66-.2,3.49-.18,5.5,.13,1.38,.18,2.79,.3,4.2,.36,2.04,.07,4.09,.04,6.11-.11-1,3.88-1.27,8.29,.89,11.99,1.66,2.86,4.24,5.61,6.95,7.99Z"/><path class="i" d="M289.8,156.4v29.53c-1.66-1.55-3.54-3.07-5.61-4.49-.86-.59-1.73-1.14-2.65-1.72-.5-.32-1.04-.63-1.55-.91-.57-.34-1.16-.66-1.77-1-.64-.34-1.3-.68-1.97-1-.66-.34-1.34-.68-2.04-.98-.68-.34-1.38-.63-2.09-.95s-1.45-.63-2.18-.91c-1.16-.48-2.38-.95-3.57-1.39-.5-.18-.98-.36-1.48-.54-.09-2.31,.3-5.49,1.25-10.08,2.18-10.69,14.92-8.47,23.66-5.56Z"/><path class="e" d="M289.8,152.01v4.4c-8.74-2.91-21.48-5.13-23.66,5.56-.95,4.59-1.34,7.77-1.25,10.08-.13-.05-.27-.09-.39-.14-.77-.25-1.52-.5-2.31-.75-.95-.3-1.91-.61-2.9-.89-.86-.27-1.72-.52-2.61-.75-.11-.04-.23-.05-.34-.09-.41-.13-.8-.21-1.22-.3-.41-.11-.8-.21-1.23-.32-.11-.02-.21-.07-.32-.09-1.04-.25-2.09-.52-3.16-.75-1.45-.3-2.88-.61-4.34-.91-1.47-.29-2.95-.55-4.47-.79h-.02c-1.5-.25-3.04-.48-4.59-.7-8.11-1.14-16.73-1.77-25.65-1.77-2.07,0-4.16,.05-6.22,.11-1.18,.05-2.32,.09-3.47,.14-.48,.04-1,.05-1.48,.07-.86,.07-1.7,.11-2.52,.18-.2,.02-.38,.02-.55,.04-.95,.07-1.86,.13-2.77,.21-.29,.02-.57,.07-.86,.09-1.09,.11-2.18,.21-3.23,.34-.57,.05-1.16,.13-1.75,.21-.7,.05-1.38,.14-2.06,.25-1.98,.25-3.97,.55-5.9,.89-.97,.16-1.93,.34-2.88,.5-.77,.16-1.55,.3-2.34,.48-.79,.14-1.55,.3-2.32,.48-.89,.2-1.79,.39-2.68,.61-2.11,.5-4.2,1.05-6.2,1.64l-1.14,.32c-.46,.14-.93,.29-1.39,.45-.63,.18-1.25,.38-1.86,.57-.07,.04-.14,.05-.23,.07-.13,.05-.25,.09-.38,.14-1.45,.48-2.84,.97-4.2,1.5-.91,.34-1.82,.7-2.7,1.05-2.79,1.18-5.4,2.41-7.81,3.7-.61,.32-1.13,.63-1.66,.91-2.61,1.52-5.02,3.13-7.1,4.77-1,.79-1.91,1.57-2.75,2.39v-33.92c0-6.63,.98-13.01,2.84-19.03v-.02c4.11-4.97,9.06-8.72,14.42-8.06,14.3,1.79,37.53,14.3,50.04-3.57,5.7-8.15,11.65-21.73,16.42-34.12h9.26c2.16,.04,4.31,.16,6.43,.39,6.92,.77,13.53,2.65,19.62,5.43,.68,.32,1.36,.64,2.02,.98,4.49,2.23,8.65,4.97,12.47,8.15,.5,.41,1.02,.84,1.5,1.3,.14,.13,.29,.25,.41,.38t.04,.02c.45,.41,.88,.79,1.29,1.2,.02,0,.02,.02,.02,.02,.82,.79,1.61,1.57,2.39,2.39,.79,.84,1.54,1.66,2.27,2.54,.73,.84,1.45,1.73,2.13,2.63l.05,.05s.02,.04,.05,.05c.3,.43,.63,.84,.91,1.27,.34,.45,.66,.91,1,1.39,.3,.45,.59,.88,.88,1.32,.05,.07,.11,.14,.13,.2,.27,.45,.57,.89,.84,1.34,.61,.95,1.18,1.95,1.72,2.95,.38,.73,.75,1.43,1.09,2.16,.02,.05,.07,.11,.09,.18,.02,.04,.04,.09,.07,.13,.23,.48,.46,.98,.68,1.47,.02,.04,.04,.11,.05,.14,.05,.07,.09,.16,.11,.21,.2,.39,.39,.8,.55,1.22,.11,.23,.2,.46,.3,.7,.41,1.02,.8,2.09,1.18,3.13,.36,1.02,.68,2.04,.98,3.07,.32,1.09,.61,2.16,.88,3.27,.34,1.39,.63,2.82,.84,4.27,.14,.73,.25,1.48,.34,2.23,.18,1.14,.3,2.32,.38,3.5,.16,1.68,.21,3.4,.21,5.11Zm-41.2-4.72c.07-.5,.09-1.05,.09-1.61,0-4.86-2.07-8.79-4.66-8.79s-4.68,3.93-4.68,8.79c0,.75,.05,1.47,.16,2.16,.5,3.81,2.34,6.61,4.52,6.61,2.29,0,4.18-3.09,4.58-7.17Zm-70.9-1.61c0-4.86-2.09-8.79-4.68-8.79s-4.66,3.93-4.66,8.79,2.11,8.78,4.66,8.78,4.68-3.93,4.68-8.78Z"/><path class="e" d="M283.97,125.14c-.21-.48-.45-.98-.68-1.47,.25,.46,.48,.95,.68,1.47Z"/><path class="e" d="M279.99,178.81c-.57-.34-1.16-.66-1.77-.98v-.02c.61,.34,1.2,.66,1.77,1Z"/><path class="e" d="M276.58,112.74c.32,.43,.64,.86,.91,1.27-.29-.43-.61-.84-.91-1.27Z"/><path class="e" d="M276.25,176.81c-.66-.34-1.34-.66-2.04-.98,.7,.3,1.38,.64,2.04,.98Z"/><path class="e" d="M271.02,100.48c.66-.14,1.34-.27,2.07-.32-1.36,.88-2.75,1.77-4.15,2.65,.02-.16,.07-.3,.13-.45,0-.02,.02-.04,.02-.07,.02-.02,.02-.05,.04-.07,.04-.09,.09-.18,.13-.27,.32-.73,.98-1.29,1.77-1.47Z"/><path class="f" d="M271.96,91.44c0,.29-.02,.57-.04,.89-.25,2.82-1.57,6.67-3.11,10.37l-.11,.27c-.27,.16-.52,.34-.79,.5-.48-.46-1-.89-1.5-1.3-3.82-3.18-7.99-5.92-12.47-8.15,1.89-1.13,3.91-2.48,5.72-3.95,2.22-1.79,4.13-3.75,5.15-5.77,3.56-7.17,3.56-10.72,3.56-10.72,0,0,3.59,10.72,3.59,17.87Z"/><path class="e" d="M268.71,102.96c-.11,.29-.23,.59-.38,.88-.13-.13-.27-.25-.41-.38,.27-.16,.52-.34,.79-.5Z"/><path class="h" d="M248.69,145.68c0,.55-.02,1.11-.09,1.61-.39,4.07-2.29,7.17-4.58,7.17s-4.02-2.81-4.52-6.61c-.11-.7-.16-1.41-.16-2.16,0-4.86,2.11-8.79,4.68-8.79s4.66,3.93,4.66,8.79Zm-2.93-3.81c0-.98-.8-1.79-1.79-1.79s-1.79,.8-1.79,1.79,.8,1.79,1.79,1.79,1.79-.8,1.79-1.79Z"/><path class="d" d="M246.66,276.81s-1.72,11.38-2.32,24.29c-.11,2.39-.18,4.86-.18,7.31-.04,2.93,.02,5.86,.21,8.65,.09,1.57,.21,3.09,.41,4.56-4.68,2.18-11.28,4.2-19.95,4.54-1.05,.05-2.14,.07-3.27,.07-1.72-.02-3.38-.09-4.97-.23-8.49-.66-15.14-2.79-19.89-4.93,.13-.98,.21-1.98,.3-2.98,.02-.23,.04-.45,.05-.68,.07-1.02,.14-2.06,.18-3.11,.11-2.29,.14-4.59,.11-6.9,0-.97-.02-1.93-.05-2.88,0-.39-.02-.77-.04-1.13-.02-.52-.04-1.05-.07-1.57,0-.38-.02-.73-.04-1.09-.04-.63-.07-1.25-.11-1.86l-.05-.75c-.02-.21-.04-.41-.04-.63l-.11-1.45c-.27-3.5-.59-6.74-.91-9.49-.07-.7-.16-1.36-.23-1.98-.46-3.57-.84-5.97-.93-6.49-.02-.07-.02-.11-.02-.11,0,0-1.72-8.31,10.79-10.1,6.42-.91,13.57-1.2,19.84-1.11,5.97,.09,11.12,.54,14.12,1.11,6.13,1.18,7.15,8.94,7.15,8.94Z"/><circle class="e" cx="243.98" cy="141.87" r="1.79"/><path class="e" d="M241.6,166.25c1.52,.23,3,.5,4.47,.79-1.47-.27-2.95-.54-4.47-.79Z"/><path class="d" d="M232.02,201.73c0,.25-.02,.5-.11,.73-.46,1.95-2.84,3.47-5.68,3.47-2.09,0-3.9-.79-4.91-1.98-.16-.18-.29-.38-.41-.59v-.02c-.3-.48-.46-1.04-.46-1.61,0-2.34,2.57-4.24,5.79-4.24,1.13,0,2.18,.23,3.07,.64,1.64,.77,2.72,2.07,2.72,3.59Z"/><path class="i" d="M197.69,87.2h18.93c-4.77,12.39-10.72,25.97-16.42,34.12-12.51,17.87-35.74,5.36-50.04,3.57-5.36-.66-10.31,3.09-14.42,8.06,.41-1.36,.88-2.72,1.38-4.04,.13-.3,.27-.64,.41-.97v-.02l.38-.97v-.02c.13-.3,.23-.57,.38-.86,.18-.39,.34-.8,.54-1.18l.14-.3c.16-.32,.29-.63,.45-.95,.07-.16,.16-.32,.23-.48s.16-.3,.25-.46c.18-.36,.38-.73,.59-1.09,0-.02,0-.05,.02-.07,.3-.55,.57-1.11,.88-1.63,.04-.05,.05-.11,.07-.16,.05-.07,.09-.14,.14-.23,.05-.11,.13-.21,.18-.32,.27-.38,.5-.79,.73-1.18,.36-.57,.71-1.14,1.09-1.75,.38-.52,.75-1.07,1.11-1.61,.2-.25,.36-.48,.55-.73,.07-.09,.11-.16,.18-.25,.41-.59,.84-1.18,1.3-1.73,.55-.7,1.09-1.38,1.68-2.04,.2-.27,.43-.52,.64-.77,.23-.25,.46-.48,.68-.73,.45-.5,.89-.98,1.36-1.45,.13-.14,.25-.29,.39-.41,.29-.29,.59-.59,.88-.86,.05-.05,.11-.11,.14-.16,.45-.45,.89-.89,1.38-1.27,.23-.23,.46-.45,.71-.68,.27-.23,.57-.52,.88-.77,.27-.23,.57-.48,.86-.71,.11-.09,.21-.18,.32-.25,.29-.25,.54-.45,.8-.66,3.93-3.13,8.2-5.79,12.8-7.9,.46-.23,.95-.45,1.41-.66,1.2-.54,2.41-1.02,3.63-1.47,4.75-1.75,9.76-2.98,14.96-3.56,.05,0,.09-.02,.14-.02,2.38-.27,4.83-.39,7.31-.39Z"/><path class="d" d="M198.81,197.54c2.86,.25,5.08,2.04,5.08,4.18,0,2.31-2.61,4.2-5.79,4.2-2.29,0-4.25-.97-5.18-2.34-.39-.57-.63-1.18-.63-1.86,0-2.34,2.59-4.24,5.81-4.24,.23,0,.48,.02,.71,.05Z"/><path class="g" d="M197.01,318.08c-.09,1-.18,2-.3,2.98-.57,4.65-1.55,8.86-3.15,12.12-1.43,2.98-3.34,5.17-5.88,6.18-7.85,3.15-15.82,3.34-23.23,3.57-9.45,.3-18.32-.32-28.02-5.27-3.09-1.57-4-9.11-4-19.84l.14,.16s18.44,4.02,37.67,2.88c.61-.04,1.2-.07,1.79-.11,9.87-.64,16.34-1.45,20.16-2.04,.36-.05,.73-.11,1.07-.16,1.45-.2,2.79-.38,3.75-.48Z"/><path class="i" d="M177.71,258.45c21.59-2.2-24.74,44.72-15.87,54.31,2.2,2.38,5.88,5.15,10.19,7.99-.59,.04-1.18,.07-1.79,.11-19.23,1.14-37.67-2.88-37.67-2.88l-.14-.16c0-11.22,1.04-25.97,1.64-41.02,.14-3.31,.3-6.56,.48-9.69,.07-1.14,.13-2.29,.2-3.41,.05-.77,.09-1.52,.14-2.27,13.49-.73,31.04-1.79,42.82-2.98Z"/><path class="h" d="M173.02,136.89c2.59,0,4.68,3.93,4.68,8.79s-2.09,8.78-4.68,8.78-4.66-3.93-4.66-8.78,2.11-8.79,4.66-8.79Zm1.25,4.99c0-.98-.8-1.79-1.79-1.79s-1.79,.8-1.79,1.79,.8,1.79,1.79,1.79,1.79-.8,1.79-1.79Z"/><circle class="e" cx="172.49" cy="141.87" r="1.79"/><path class="f" d="M162.41,86.93c2.02,2.36,4.97,4.58,7.83,6.36-4.59,2.11-8.86,4.77-12.8,7.9-.27,.21-.52,.41-.8,.66-.11,.07-.21,.16-.32,.25-.02-.07-.05-.16-.07-.21-1.55-3.84-2.81-7.77-2.81-10.46,0-.71,.04-1.48,.11-2.27,.57-6.93,3.45-15.6,3.45-15.6,0,0,0,3.56,3.59,10.72,.45,.89,1.09,1.79,1.82,2.65Z"/><path class="e" d="M154.99,101.77c.27,.63,.09,1.38-.41,1.82-.25,.23-.48,.45-.71,.68-.48,.38-.93,.82-1.38,1.27-.04,.05-.09,.11-.14,.16-.29,.27-.59,.57-.88,.86-.14,.13-.27,.27-.39,.41-.46,.46-.91,.95-1.36,1.45-.21,.25-.45,.48-.68,.73-.21,.25-.45,.5-.64,.77-.59,.66-1.13,1.34-1.68,2.04-.46,.55-.89,1.14-1.3,1.73-.07,.09-.11,.16-.18,.25-.2,.25-.36,.48-.55,.73-.36,.54-.73,1.09-1.11,1.61-.38,.61-.73,1.18-1.09,1.75-.23,.39-.46,.8-.73,1.18-.05,.11-.13,.21-.18,.32-.05,.09-.09,.16-.14,.23-.02,.05-.04,.11-.07,.16-.3,.52-.57,1.07-.88,1.63-.02,.02-.02,.05-.02,.07-.21,.36-.41,.73-.59,1.09-.09,.16-.18,.3-.25,.46-.02,.02-.04,.05-.05,.07l-.18,.41c-.16,.32-.29,.63-.45,.95l-.14,.3c-.2,.38-.36,.79-.54,1.18-.14,.29-.25,.55-.38,.86v.02c-.46,.97-1.68,1.23-2.5,.54-1.75-1.48-3.49-3.11-5.09-4.79h-.04c-1.39-1.45-2.72-2.98-3.81-4.52-.27-.3-.48-.61-.68-.93v-.02c-1.02-1.54-1.86-3.07-2.36-4.61-.57-1.73-1.16-3.36-1.75-4.83-.48-1.29-1-2.45-1.47-3.54l-.36-.86c-.71-1.54-1.36-2.84-1.91-3.88-.66-1.23,.45-2.63,1.81-2.32,5.7,1.43,16.84,3.68,26.09,2.34,2.22-.32,4.24-.29,6.02-.04h.05c.55,.05,1.07,.16,1.55,.27,.5,.13,.91,.5,1.11,.98,.14,.34,.27,.68,.43,1Z"/><path class="e" d="M139.62,123.18c-.07,.16-.16,.32-.23,.48l.18-.41s.04-.05,.05-.07Z"/></g></g><g id="b"/></svg>