<?xml version="1.0" encoding="UTF-8"?><svg xmlns="http://www.w3.org/2000/svg" viewBox="0 0 443 417"><defs><style>.c{fill:#f6f4f5;}.d{fill:#f8d7d9;}.e{fill:#efa7aa;}.f{fill:#f0eeef;}.g{fill:#e6e6e6;}.h{fill:#fff;}.i{fill:#c19246;}.j{fill:#c10e00;}.k{fill:#a96b50;}.l{fill:#25252d;}.m{fill:#723f3f;}</style></defs><g id="a"><g><path class="k" d="M399.39,257.89c2.79,10.33-.7,21.39-2.09,25.83-.86,2.7-4.2,5.9-4.2,5.9,0,0-1.59-3.11-3.49-9.37-1.41-4.7-3-11.17-4.2-19.41-.18-1.27,3.13-4.79,4.91-8.61l3.86-1.04,3.09-3.56c.95,5.06,1.7,8.7,2.11,10.26Z"/><path class="j" d="M397.28,247.64l-3.09,3.56-3.86,1.04c.27-.55,.5-1.14,.68-1.72,.11-.38,.18-.93,.21-1.61,.29-7.58-7.63-59.37-7.63-59.37l-14.42-34.85-.84-.07c11.72,19.3,12.05,70.11,12.05,70.11,.66,12.05,2.88,28.43-1.55,36.01-.2,.38-.43,.73-.68,1.05-2.11,2.77-5.79,7.36-9.87,10.44-2.04,1.54-3.81,2.57-5.18,3.74-4.09-5.08-9.06-10.78-13.82-15.12-10.94-10.01-30.15,11.8-83.82,17.82-53.65,6.02-14.24-52.49-55.19-60.82-40.95-8.33,0-67.31,0-67.31l2.02-2.52c8.51,.59,17.16,.95,25.79,1.14,9.81,.21,19.61,.21,29.17,.09,39.98-.57,75.89-3.41,91.68-1.91,.05,0,.09,.02,.14,.02h.05c11.85-.45,22.29,7.97,24.23,19.75,4,23.97,10.4,61.89,13.92,80.53Z"/><path class="k" d="M372.26,338.77c.14,3.7-.14,7.38-1.3,10.22-2.32,5.72-1.79,5-6.26,5.45-3.66,.38-20.73,.82-28.9,.41-1.79-.09-3.15-.21-3.84-.41-1-.27-1.84-1.13-2.57-2.27-.79-1.25-1.43-2.81-1.91-4.29-.8-2.5-1.2-4.77-1.2-4.77v-5.49h45.93l.05,1.07v.07Z"/><path class="f" d="M326.27,283.99s0-.02-.02,0c-.02,0-.04,.02-.05,.04-.82,.48-7.9,4.65-23.16,8.95-1.41,.41-2.91,.8-4.47,1.22-3.82,.98-8.1,1.95-12.81,2.9-8.08,1.59-17.5,3.04-28.36,4.15-2.57,.25-5.24,.5-7.97,.71-12.55,1-22.89,1.39-31.38,1.41,2.56-15.05,2.66-32.81-1.34-42.52-8.38-20.37-35.73-26.58-39.03-27.06-3.31-.46-6.33,1.32-6.33,1.32,0,0-42.34,26.34-39.32,43.55,1.52,8.6,16.07,19.16,31.83,28.6,0,.41,0,.86,.02,1.3,0,.46,.02,.97,.04,1.47,.02,.55,.05,1.14,.07,1.73,.18,4.15,.57,9.06,.93,14.07,0,.05,.02,.11,.02,.16,.25,3.2,.48,6.43,.64,9.51,.05,1.11,.11,2.2,.14,3.27h-.29l-14.3-.02-17.98-.04-13.62-.02c-.13-9.29,.02-24.25,.16-34.17,.09-5.99,.16-10.15,.16-10.15,0,0-19.41-3.4-30.63-17.93-.41-.52-.8-1.07-1.2-1.63-1.13-1.61-2.14-3.36-3.02-5.24l-.27-.59c15.75,3.13,34.42,1.97,50.42-12.46,9.79-8.83,20.09-23.75,29.86-40.73,.82-.36,1.63-.73,2.41-1.13,.23-.09,.45-.21,.68-.32,3.72-1.84,6.97-3.91,9.67-6.11,5.67-4.63,8.9-9.95,8.9-15.6,0-1.98-.41-3.95-1.18-5.84-.41-1.02-.93-2.04-1.57-3.02-.36-.59-.77-1.16-1.2-1.73-.05-.07-.13-.16-.18-.23-.48-.63-1.02-1.22-1.57-1.81-.43-.45-.89-.93-1.38-1.36v-28.54c0-1.45-.05-2.9-.18-4.31,5.81,.18,11.89,.5,18.16,1,.39,.04,.77,.05,1.16,.09,1.36,.11,2.73,.23,4.13,.36,3.11,.29,6.26,.54,9.42,.77l-2.02,2.52s-40.95,58.98,0,67.31c40.95,8.33,1.54,66.84,55.19,60.82,53.67-6.02,72.88-27.83,83.82-17.82,4.75,4.34,9.72,10.04,13.82,15.12-2.84,2.39-4.06,5.31-2.86,14.21,.23,1.7,.55,3.52,.97,5.38,2.7,12.64,8.63,27.68,8.63,27.68,0,0,1.95,7.04,2.38,14.39h-45.93v-53.63Z"/><path class="m" d="M329.38,352.17h-27.42c-1.88,0-3.4-1.52-3.4-3.4v-13.65h27.7v7.99s.39,2.27,1.2,4.77c.48,1.48,1.13,3.04,1.91,4.29Z"/><path class="g" d="M326.27,300.29v34.83h-27.7v-30.56l.43,.11s.2,4.58,3.41,4.58c3.41,0,3.29-3.66,3.29-3.66h1.72s.75,6.06,2.95,5.49c3.4-.89,2.66-6.24,4.54-6.7,3.41-.84,3.41,4.27,5.68,3.4,1.77-.66,2.16-3.91,2.25-5.29,.02-.34,.02-.54,.02-.54l3.41-1.64Z"/><path class="d" d="M326.27,283.99v16.3l-3.41,1.64s0,.2-.02,.54c-.09,1.38-.48,4.63-2.25,5.29-2.27,.88-2.27-4.24-5.68-3.4-1.88,.46-1.14,5.81-4.54,6.7-2.2,.57-2.95-5.49-2.95-5.49h-1.72s.13,3.66-3.29,3.66c-3.22,0-3.41-4.58-3.41-4.58l-.43-.11-2.97-.8s-4.56,4.58-6.83,3.66c-2.27-.93,0-7.31-1.13-8.22-.39-.3-1.11-1.14-1.89-2.11,4.72-.95,8.99-1.91,12.81-2.9,1.55-.41,3.06-.8,4.47-1.22,15.26-4.31,22.34-8.47,23.16-8.95,.02-.02,.04-.04,.05-.04,.02-.02,.02,0,.02,0Z"/><path class="j" d="M216.7,260.84c4,9.7,3.9,27.47,1.34,42.52-16.46,.02-26-1.38-31.17-2.61-.66-.16-1.27-.32-1.79-.46-.82-.23-1.47-.45-1.98-.63-.05-.02-.11-.04-.14-.05-.11-.05-.21-.09-.32-.11-.04-.02-.05-.02-.07-.04-.25-.11-.45-.18-.61-.25-.3-.14-.45-.21-.45-.21,0,0-1.27,.16-3.15,.38-.23,.02-.46,.05-.7,.09-.25,.02-.48,.04-.73,.07-.27,.04-.52,.05-.79,.09-.11,0-.2,.02-.3,.04,.11,0,.2-.02,.3-.02-3.47,.41-7.86,.82-10.72,.82-.97,0-1.39,1.72-1.54,4.56-.02,.21-.02,.45-.02,.68-.02,.45-.02,.95-.02,1.47v.09c-15.76-9.44-30.31-20-31.83-28.6-3.02-17.21,39.32-43.55,39.32-43.55,0,0,3.02-1.79,6.33-1.32,3.31,.48,30.65,6.68,39.03,27.06Z"/><path class="f" d="M191.7,104.71c1.3-.32,2.36,1.05,1.73,2.23-.34,.66-.71,1.43-1.13,2.31-.98,2.13-2.13,4.88-3.27,8.31-.43,1.29-1.11,2.59-1.98,3.88-.82,1.23-1.79,2.45-2.88,3.63-1.64,1.82-3.52,3.57-5.38,5.15-1.07,.89-2.72,.5-3.25-.8-.09-.2-.16-.39-.25-.59-.14-.34-.3-.7-.46-1.02-.02-.05-.05-.13-.09-.18-.02-.04-.04-.09-.05-.13-.16-.43-.36-.84-.57-1.23l-.05-.11c-.02-.05-.05-.11-.07-.14-.29-.63-.61-1.22-.93-1.82-.45-.84-.93-1.68-1.43-2.48-.23-.38-.48-.75-.71-1.13-.02-.05-.05-.11-.11-.16-.23-.38-.48-.75-.73-1.13-.29-.39-.55-.79-.84-1.16-.23-.36-.5-.71-.77-1.07-.04-.02-.05-.05-.09-.09-.57-.75-1.18-1.5-1.79-2.22-.63-.73-1.25-1.43-1.91-2.13s-1.32-1.36-2.02-2.02c0,0,0-.02-.02-.02-.59-.59-.8-1.48-.5-2.27,0-.02,.02-.04,.02-.05,.02-.02,.02-.05,.04-.07l.11-.21c.27-.63,.82-1.09,1.48-1.23,1.84-.41,3.95-.54,6.38-.18,1.16,.16,2.34,.27,3.54,.3,2.84,.11,5.75-.07,8.47-.41,.43-.05,.86-.11,1.27-.16,3.22-.46,6.13-1.07,8.26-1.59Z"/><path class="d" d="M185.49,186.8c.77,1.89,1.18,3.86,1.18,5.84,0,5.65-3.23,10.97-8.9,15.6-2.7,2.2-5.95,4.27-9.67,6.11-.23,.11-.45,.23-.68,.32-.79,.39-1.59,.77-2.41,1.13-.05,.02-.09,.05-.14,.07-.38,.18-.77,.34-1.16,.5-1.41,.59-2.88,1.16-4.4,1.7-.54,.2-1.11,.39-1.66,.57-.54,.2-1.07,.38-1.63,.54-.45,.16-.93,.3-1.39,.45-.13,.04-.27,.09-.41,.13-.59,.18-1.2,.36-1.82,.52-.75,.21-1.5,.43-2.27,.63-.97,.23-1.93,.48-2.91,.7-2.16,.52-4.4,.98-6.7,1.38-1.95,.34-3.95,.66-5.99,.93-.84,.11-1.66,.21-2.5,.32-2.54,.29-5.11,.52-7.74,.7-1.16,.09-2.34,.14-3.52,.2-1.11,.05-2.23,.09-3.36,.13h-.34c-1.16,.02-2.32,.04-3.5,.04-11.92,0-23.16-1.27-33.1-3.54-5.47-1.22-10.56-2.77-15.1-4.56-.11-.05-.2-.09-.3-.13-4.91-1.95-9.22-4.16-12.83-6.63-.2-.14-.39-.29-.59-.41-.43-.3-.82-.59-1.23-.89-6.33-4.84-9.95-10.47-9.95-16.48,0-5,2.52-9.76,7.08-13.99,.71-.68,1.48-1.34,2.32-2,1.75-1.39,3.77-2.75,5.97-4.02,.45-.25,.89-.5,1.39-.77,2.04-1.09,4.24-2.13,6.58-3.11,.73-.3,1.5-.61,2.27-.89,1.14-.45,2.32-.86,3.54-1.27l.32-.11c.07-.02,.13-.04,.2-.07,.5-.16,1.04-.32,1.55-.48l1.18-.38,.97-.27c1.68-.5,3.43-.97,5.22-1.38,.75-.18,1.5-.36,2.25-.52,.64-.14,1.29-.29,1.95-.41,.66-.14,1.32-.27,1.98-.39,.79-.14,1.61-.29,2.41-.43,1.63-.29,3.29-.54,4.97-.75,.57-.09,1.14-.16,1.73-.21,.48-.07,.98-.13,1.47-.18,.89-.11,1.81-.2,2.72-.29,.25-.02,.48-.05,.73-.07,.77-.07,1.54-.13,2.32-.18,.16-.02,.3-.02,.46-.04,.7-.05,1.41-.09,2.13-.14,.41-.02,.84-.04,1.25-.07,.97-.04,1.93-.07,2.91-.11,1.73-.05,3.49-.09,5.24-.09,7.51,0,14.76,.52,21.59,1.48,2.61,.36,5.15,.79,7.63,1.25,1.23,.25,2.45,.5,3.66,.77,.89,.2,1.79,.41,2.66,.63,.09,.02,.18,.05,.27,.07,.36,.09,.7,.18,1.04,.27s.68,.16,1.02,.27c.09,.02,.2,.04,.29,.07,.75,.2,1.48,.41,2.2,.63,.82,.25,1.64,.5,2.43,.75,.66,.21,1.3,.43,1.95,.64,.54,.2,1.05,.38,1.57,.57,1.02,.38,2.04,.77,3.02,1.16,.61,.25,1.23,.5,1.82,.77,.61,.27,1.2,.52,1.77,.8,.59,.27,1.16,.54,1.72,.82,.55,.27,1.11,.55,1.64,.84v.02c.52,.27,1.02,.54,1.5,.82,.43,.25,.88,.5,1.3,.77,.77,.48,1.5,.95,2.22,1.45,1.75,1.2,3.32,2.47,4.74,3.77,.48,.43,.95,.91,1.38,1.36,.55,.59,1.07,1.2,1.57,1.81,.05,.07,.13,.16,.18,.23,.43,.57,.84,1.14,1.2,1.73,.64,.98,1.16,2,1.57,3.02Zm-54.62,5.77c.07-.2,.09-.41,.09-.63,0-1.27-.91-2.38-2.29-3.02-.75-.34-1.64-.54-2.59-.54-2.7,0-4.88,1.59-4.88,3.56,0,.48,.14,.95,.39,1.36v.02c.11,.18,.21,.34,.36,.5,.86,1,2.38,1.66,4.13,1.66,2.39,0,4.4-1.27,4.79-2.91Zm-23.59-.63c0-1.81-1.86-3.31-4.27-3.52-.2-.02-.41-.04-.61-.04-2.7,0-4.88,1.59-4.88,3.56,0,.57,.2,1.09,.52,1.57,.79,1.16,2.45,1.97,4.36,1.97,2.68,0,4.88-1.59,4.88-3.54Z"/><path class="m" d="M185.08,335.5v12.51c0,2.79-2.27,5.06-5.06,5.06h-15.26l.11-.27c.97-2.79,1.07-7.97,.84-14.03-.04-1.07-.09-2.16-.14-3.27h19.52Z"/><path class="g" d="M185.08,300.29v35.21h-19.52c-.16-3.07-.39-6.31-.64-9.51,0-.05-.02-.11-.02-.16-.3-5-.71-9.92-.93-14.07-.02-.59-.05-1.18-.07-1.73-.02-.5-.04-1-.04-1.47-.02-.45-.02-.89-.02-1.3v-.09c0-.52,0-1.02,.02-1.47,0-.23,0-.46,.02-.68,.14-2.84,.57-4.56,1.54-4.56,2.86,0,7.26-.41,10.72-.82,.02,0,.05,0,.09-.02,.5-.05,.98-.11,1.43-.16,.23-.04,.46-.07,.7-.09,1.88-.21,3.15-.38,3.15-.38,0,0,.14,.07,.45,.21,.16,.07,.36,.14,.61,.25,.02,.02,.04,.02,.07,.04,.11,.02,.21,.05,.32,.11,.04,.02,.09,.04,.14,.05,.52,.18,1.16,.39,1.98,.63Z"/><path class="c" d="M179.6,150.11v28.54c-1.41-1.3-2.98-2.57-4.74-3.77-.71-.5-1.45-.97-2.22-1.45-.43-.27-.88-.52-1.3-.77-.48-.29-.98-.55-1.5-.84-.54-.29-1.09-.57-1.64-.84-.55-.29-1.13-.57-1.72-.82-.57-.29-1.16-.54-1.77-.8-.59-.27-1.22-.52-1.82-.77-.98-.39-2-.79-3.02-1.16-.52-.2-1.04-.38-1.57-.57-.64-.21-1.29-.43-1.95-.64-.79-.25-1.61-.5-2.43-.75-.71-.21-1.45-.43-2.2-.63-.09-.04-.2-.05-.29-.07-.34-.11-.68-.18-1.02-.27s-.68-.18-1.04-.27c-.09-.02-.18-.05-.27-.07-.88-.21-1.77-.43-2.66-.63-1.22-.27-2.43-.52-3.66-.77-2.47-.48-5.02-.89-7.63-1.25-6.83-.97-14.08-1.48-21.59-1.48-1.75,0-3.5,.04-5.24,.09-.98,.04-1.95,.07-2.91,.11-.41,.04-.84,.05-1.25,.07-.71,.05-1.43,.09-2.13,.14-.16,.02-.3,.02-.46,.04-.79,.05-1.55,.11-2.32,.18-.25,.02-.48,.05-.73,.07-.91,.09-1.82,.18-2.72,.29-.48,.05-.98,.11-1.47,.18-.59,.05-1.16,.13-1.73,.21-1.68,.21-3.34,.46-4.97,.75-.8,.14-1.63,.29-2.41,.43-.66,.13-1.32,.25-1.98,.39-.66,.13-1.3,.27-1.95,.41-.75,.16-1.5,.34-2.25,.52-1.79,.41-3.54,.88-5.22,1.38l-.97,.27-1.18,.38c-.52,.16-1.05,.32-1.55,.48-.07,.04-.13,.05-.2,.07l-.32,.11c-1.22,.41-2.39,.82-3.54,1.27-.77,.29-1.54,.59-2.27,.89-2.34,.98-4.54,2.02-6.58,3.11-.5,.27-.95,.52-1.39,.77-2.2,1.27-4.22,2.63-5.97,4.02-.84,.66-1.61,1.32-2.32,2v-28.54c0-6.85,1.25-13.39,3.56-19.43,.11-.27,.23-.55,.34-.82v-.02l.32-.8v-.02c.11-.25,.2-.48,.32-.71,.14-.34,.29-.68,.45-1l.13-.25c.13-.27,.23-.54,.38-.8,.13-.27,.25-.52,.39-.79,.16-.3,.32-.63,.5-.93,0-.02,0-.04,.02-.05,.25-.46,.48-.93,.73-1.38,.04-.04,.05-.09,.07-.13,.04-.07,.07-.13,.11-.2l.16-.27c.21-.32,.41-.66,.61-1,.3-.48,.61-.97,.93-1.47,.3-.45,.63-.91,.93-1.36,.16-.21,.3-.41,.46-.63,.05-.07,.09-.13,.14-.2,.36-.5,.71-1,1.11-1.47,.46-.59,.91-1.16,1.41-1.72,.16-.23,.36-.43,.54-.64,.2-.21,.39-.41,.57-.63,.38-.41,.75-.82,1.14-1.22,.11-.13,.21-.23,.34-.34,.23-.25,.48-.5,.73-.73l.13-.13c.38-.38,.75-.75,1.14-1.07,.2-.2,.39-.38,.61-.57,.23-.2,.48-.43,.73-.64,.23-.2,.48-.41,.73-.61l.27-.21c.23-.2,.45-.38,.68-.55,3.31-2.63,6.9-4.86,10.76-6.65,.39-.2,.8-.38,1.2-.55,1-.45,2.02-.86,3.06-1.23,.14-.05,.27-.11,.41-.14-.27,5.29,2.7,10.72,14.74,12.58,25.95,4.02,36.82-6.17,51.04,14.12,6.56,9.35,17.89,11.01,28.2,10.06,.18,.61,.34,1.23,.48,1.86,.29,1.18,.54,2.38,.71,3.59,.13,.63,.21,1.25,.29,1.88,.14,.97,.25,1.97,.32,2.95,.13,1.41,.18,2.86,.18,4.31Zm-34.67-3.97c.05-.43,.07-.89,.07-1.36,0-4.09-1.75-7.4-3.93-7.4s-3.93,3.31-3.93,7.4c0,.63,.04,1.23,.13,1.82,.43,3.2,1.98,5.56,3.81,5.56,1.93,0,3.52-2.59,3.86-6.02Zm-59.68-1.36c0-4.09-1.75-7.4-3.93-7.4s-3.93,3.31-3.93,7.4,1.77,7.38,3.93,7.38,3.93-3.31,3.93-7.38Z"/><path class="c" d="M177.36,134.63c.09,.3,.18,.59,.25,.89-10.31,.95-21.64-.71-28.2-10.06-14.23-20.29-25.09-10.1-51.04-14.12-12.05-1.86-15.01-7.29-14.74-12.58,3.9-1.41,8.01-2.39,12.3-2.86,2-.23,4.06-.34,6.15-.34h23.72c1.82,.04,3.63,.14,5.42,.34,5.83,.64,11.38,2.22,16.51,4.58,.57,.27,1.14,.54,1.7,.82,3.79,1.88,7.29,4.18,10.51,6.86,.54,.45,1.11,.91,1.61,1.41t.04,.02c.38,.34,.73,.66,1.07,1,.02,0,.02,.02,.02,.02,.7,.66,1.36,1.32,2.02,2.02s1.29,1.39,1.91,2.13c.61,.71,1.22,1.47,1.79,2.22,.3,.39,.59,.77,.86,1.16,.29,.38,.55,.77,.84,1.16,.25,.38,.5,.75,.73,1.13,.05,.05,.09,.11,.11,.16,.23,.38,.48,.75,.71,1.13,.5,.8,.98,1.64,1.43,2.48,.32,.61,.64,1.2,.93,1.82,.02,.04,.05,.09,.07,.14l.05,.11c.2,.41,.39,.82,.57,1.23,.02,.04,.04,.09,.05,.13,.04,.05,.07,.13,.09,.18,.16,.32,.32,.68,.46,1.02,.09,.2,.16,.39,.25,.59,.36,.86,.68,1.75,1,2.63,.3,.86,.57,1.72,.82,2.59Z"/><path class="k" d="M165.71,338.77c.23,6.06,.13,11.24-.84,14.03l-.11,.27c-.34,.91-.77,1.52-1.34,1.79-.23,.11-.46,.16-.71,.16-8.01-.13-37.51,0-37.51,0,0,0-4.45-1.61-5.34-8.63-.02-.21-.05-.45-.07-.73-.13-1.47-.2-3.91-.25-6.95l13.62,.02,17.98,.04,14.3,.02h.29Z"/><path class="j" d="M164.87,215.88c.05-.02,.09-.05,.14-.07-9.78,16.98-20.07,31.9-29.86,40.73-16,14.42-34.67,15.58-50.42,12.46-14.1-30.15-18.52-44.36-19.37-51.81,4.54,1.79,9.63,3.34,15.1,4.56,9.94,2.27,21.18,3.54,33.1,3.54,1.18,0,2.34-.02,3.5-.04h.34c1.13-.04,2.25-.07,3.36-.13,1.18-.05,2.36-.11,3.52-.2,2.63-.16,5.2-.39,7.74-.7,.84-.11,1.66-.21,2.5-.32,2.04-.27,4.02-.57,5.99-.93,2.31-.39,4.54-.86,6.7-1.38,.98-.21,1.95-.46,2.91-.7,.77-.2,1.52-.41,2.27-.63,.63-.16,1.23-.34,1.82-.52,.14-.04,.29-.09,.41-.13,.46-.14,.95-.29,1.39-.45,.55-.16,1.09-.34,1.63-.54,.55-.18,1.13-.38,1.66-.57,1.52-.54,2.98-1.11,4.4-1.7,.39-.16,.79-.32,1.16-.5Z"/><path class="i" d="M164.58,99.13c0,.23-.02,.48-.04,.75-.21,2.38-1.32,5.61-2.61,8.72-.13,.32-.27,.64-.41,.97-.5-.5-1.07-.97-1.61-1.41-3.22-2.68-6.72-4.99-10.51-6.86,1.61-.95,3.31-2.09,4.83-3.32,1.86-1.5,3.47-3.16,4.33-4.86,2.86-5.74,3-8.74,3-9.01,0,0,3.02,9.01,3.02,15.03Z"/><path class="l" d="M145,144.78c0,.46-.02,.93-.07,1.36-.34,3.43-1.93,6.02-3.86,6.02-1.82,0-3.38-2.36-3.81-5.56-.09-.59-.13-1.2-.13-1.82,0-4.09,1.77-7.4,3.93-7.4s3.93,3.31,3.93,7.4Zm-1.91-3.5c0-.98-.8-1.79-1.79-1.79s-1.79,.8-1.79,1.79,.8,1.79,1.79,1.79,1.79-.8,1.79-1.79Z"/><circle class="h" cx="141.3" cy="141.28" r="1.79"/><path class="e" d="M130.97,191.95c0,.21-.02,.43-.09,.63-.39,1.64-2.39,2.91-4.79,2.91-1.75,0-3.27-.66-4.13-1.66-.14-.16-.25-.32-.36-.5v-.02c-.25-.41-.39-.88-.39-1.36,0-1.97,2.18-3.56,4.88-3.56,.95,0,1.84,.2,2.59,.54,1.38,.64,2.29,1.75,2.29,3.02Z"/><path class="e" d="M103.01,188.42c2.41,.21,4.27,1.72,4.27,3.52,0,1.95-2.2,3.54-4.88,3.54-1.91,0-3.57-.8-4.36-1.97-.32-.48-.52-1-.52-1.57,0-1.97,2.18-3.56,4.88-3.56,.2,0,.41,.02,.61,.04Z"/><path class="l" d="M81.32,137.38c2.18,0,3.93,3.31,3.93,7.4s-1.75,7.38-3.93,7.38-3.93-3.31-3.93-7.38,1.77-7.4,3.93-7.4Zm1,3.9c0-.98-.8-1.79-1.79-1.79s-1.79,.8-1.79,1.79,.8,1.79,1.79,1.79,1.79-.8,1.79-1.79Z"/><circle class="h" cx="80.53" cy="141.28" r="1.79"/><path class="i" d="M72.38,95.35c1.7,1.98,4.18,3.84,6.58,5.34-3.86,1.79-7.45,4.02-10.76,6.65-.23,.18-.45,.36-.68,.55l-.27,.21c-.02-.05-.05-.13-.07-.18-1.3-3.23-2.36-6.54-2.36-8.79,0-.61,.04-1.25,.09-1.91,.48-5.84,2.91-13.14,2.91-13.14,0,0,0,3,3.02,9.03,.38,.75,.91,1.5,1.54,2.23Z"/><path class="j" d="M66.13,107.82c.23,.54,.09,1.16-.34,1.54-.21,.2-.41,.38-.61,.57-.39,.32-.77,.7-1.14,1.07l-.13,.13c-.25,.23-.5,.48-.73,.73-.13,.11-.23,.21-.34,.34-.39,.39-.77,.8-1.14,1.22-.18,.21-.38,.41-.57,.63-.18,.21-.38,.41-.54,.64-.5,.55-.95,1.13-1.41,1.72-.39,.46-.75,.97-1.11,1.47-.05,.07-.09,.13-.14,.2-.16,.21-.3,.41-.46,.63-.3,.45-.63,.91-.93,1.36-.32,.5-.63,.98-.93,1.47-.2,.34-.39,.68-.61,1l-.16,.27c-.04,.07-.07,.13-.11,.2-.02,.04-.04,.09-.07,.13-.25,.45-.48,.91-.73,1.38-.02,.02-.02,.04-.02,.05-.18,.3-.34,.63-.5,.93-.09,.14-.16,.29-.25,.45l-.14,.34c-.14,.27-.25,.54-.38,.8l-.13,.25c-.16,.32-.3,.66-.45,1-.13,.23-.21,.46-.32,.71v.02c-.39,.8-1.41,1.04-2.11,.45-1.47-1.25-2.93-2.61-4.29-4.02h-.02c-1.18-1.23-2.29-2.52-3.22-3.81-.21-.27-.39-.52-.57-.79v-.02c-.86-1.29-1.55-2.59-1.98-3.88,3.82-2.91,6.31-6.93,7.92-10.99,3.59,.38,7.43,.48,10.96-.02,1.86-.27,3.56-.25,5.06-.04h.05c.46,.05,.89,.14,1.3,.23,.43,.11,.77,.41,.93,.82,.13,.29,.23,.57,.36,.84Z"/><path class="f" d="M47.47,105.98c-1.61,4.06-4.09,8.08-7.92,10.99-.48-1.47-.97-2.82-1.47-4.06-.41-1.09-.84-2.07-1.23-2.98l-.3-.71c-.61-1.3-1.14-2.39-1.61-3.27-.55-1.04,.38-2.22,1.52-1.95,2.63,.66,6.63,1.52,11.01,1.98Z"/></g></g><g id="b"/></svg>