<?xml version="1.0" encoding="UTF-8"?><svg xmlns="http://www.w3.org/2000/svg" viewBox="0 0 443 417"><defs><style>.c{fill:#f8d7d9;}.d{fill:#efa7aa;}.e{fill:#f0eeef;}.f{fill:#c19246;}.g{fill:#a96b50;}.h{fill:#25252d;}</style></defs><g id="a"><g><path class="g" d="M353.87,173.2s4.56,31.93-11.4,38.77c-.73,.32-1.41,.71-2.05,1.19l-.05,.02-4.74,1.07-2.28-4.56h-2.28c-3.03-6.23,1.12-14.71,11.4-20.53,10.29-5.82,11.4-15.96,11.4-15.96Z"/><path class="e" d="M335.62,214.25l4.74-1.07c-5.93,4.38-3.31,16.69-4.74,28.44-1.8,14.76-7.12,29.49-11.4,36.49-2.85,4.65-3.76,11.13-3.74,17.54-.27-2.03-.55-4.08-.82-6.13-.64-4.81-1.28-9.65-1.92-14.37,2.35-8.92,8.16-23.24,11.04-35.81,3.35-14.62,3.53-27.09,2.28-29.65h2.28l2.28,4.56Z"/><path class="g" d="M326.93,68.27c1.98-.48,3.58,1.6,2.62,3.4-.52,.98-1.07,2.17-1.71,3.49-1.48,3.22-3.22,7.39-4.95,12.59-.66,1.96-1.69,3.95-3.01,5.88-1.25,1.87-2.71,3.72-4.36,5.5-2.51,2.78-5.36,5.43-8.16,7.82-1.62,1.35-4.13,.75-4.93-1.23-.14-.3-.25-.59-.39-.89-.21-.52-.46-1.05-.71-1.55-.02-.07-.07-.18-.14-.27-.02-.05-.05-.14-.07-.18-.25-.66-.55-1.28-.87-1.87-.05-.05-.07-.11-.09-.16-.02-.09-.09-.16-.11-.23-.43-.94-.91-1.82-1.39-2.76-.68-1.28-1.41-2.55-2.19-3.76-.34-.57-.73-1.14-1.07-1.71-.02-.07-.09-.16-.16-.25-.36-.57-.73-1.12-1.12-1.69-.43-.62-.84-1.21-1.28-1.78-.34-.52-.75-1.07-1.16-1.62-.05-.02-.05-.05-.07-.07l-.07-.07c-.87-1.14-1.78-2.28-2.71-3.35-.94-1.12-1.89-2.17-2.9-3.24-1-1.05-2.01-2.05-3.06-3.06,0,0,0-.02-.02-.02-.89-.89-1.23-2.26-.75-3.44,0-.02,.02-.05,.02-.09,.02-.02,.02-.07,.05-.09,.05-.11,.11-.23,.16-.34,.41-.94,1.25-1.64,2.26-1.87,2.78-.62,5.98-.8,9.67-.25,1.76,.23,3.56,.39,5.36,.46,4.31,.16,8.73-.11,12.84-.64,.66-.07,1.32-.16,1.94-.23,4.88-.71,9.28-1.64,12.52-2.42Z"/><path class="g" d="M326.66,350.06c.11,3.06,.11,5.86,0,8.37-.27,4.81-1.03,8.53-2.44,10.9-6.84,11.4-13.68,10.26-29.65,10.26-14.46,0-27.37,0-36.58-7.59-3.81-3.12-5.88-10.03-6.86-18.47-.25-1.87-.41-3.81-.52-5.82l1,1.19s2.19,.48,5.91,1.09c6.86,1.14,18.97,2.76,32.36,2.83,3.22,.02,6.5-.05,9.81-.25,12.89-.78,21.6-1.76,26.98-2.51Z"/><path class="e" d="M323.65,319.02c1.53,11.81,2.71,22.44,3.01,31.04-5.38,.75-14.09,1.73-26.98,2.51-3.31,.21-6.59,.27-9.81,.25-13.39-.07-25.5-1.69-32.36-2.83-3.72-.62-5.91-1.09-5.91-1.09l-1-1.19c-.25-3.56-.32-7.3-.27-11.04,0-3.12,.09-6.27,.23-9.33,.78-16.47,2.96-30.99,2.96-30.99,0,0-1.3-9.9-9.12-11.4s-27.37-2.28-43.33,0-13.78,12.89-13.78,12.89c0,0,4.15,24.59,3.17,46.34-.05,1.35-.14,2.67-.23,3.97-.02,.3-.05,.57-.07,.87-1.23,.14-2.94,.36-4.79,.62-.43,.07-.91,.14-1.37,.21-5.18,.8-14.12,1.89-28.01,2.74-24.54,1.46-48.08-3.67-48.08-3.67l-.18-.21c0-14.32,1.32-33.14,2.1-52.34,.18-4.22,.39-8.37,.62-12.36,.09-1.46,.16-2.92,.25-4.36,.11-1.89,.25-3.74,.36-5.54,.07-.96,.14-1.89,.21-2.83l.14-1.92c.11-1.71,.25-3.4,.39-5.04,.14-1.85,.3-3.63,.43-5.36,.14-1.57,.27-3.08,.41-4.56l.14-1.57c.02-.07,.02-.14,.02-.18,0-.07,0-.11,.02-.21v-.02c0-.07,.02-.16,.02-.27,0-.05,0-.11,.02-.16,.02-.11,.02-.25,.05-.39,1.32-14.14,2.53-23.03,2.53-23.03,5.47,3.74,12,7.12,19.45,10.06,.16,.05,.3,.11,.46,.18,6.89,2.71,14.62,5.09,22.9,6.91,15.08,3.44,32.11,5.38,50.2,5.38,1.78,0,3.56-.05,5.31-.07h.5c1.71-.05,3.42-.11,5.11-.18,1.78-.09,3.58-.16,5.34-.3,3.99-.27,7.89-.64,11.72-1.07,1.28-.16,2.53-.32,3.81-.48,3.08-.41,6.11-.89,9.08-1.41,3.49-.59,6.89-1.3,10.15-2.08,1.51-.32,2.96-.71,4.42-1.07,1.16-.3,2.3-.62,3.44-.94,.96-.25,1.87-.52,2.76-.8,.23-.05,.43-.14,.62-.18,.71-.21,1.44-.43,2.12-.68,.84-.23,1.66-.5,2.46-.8,.84-.27,1.71-.57,2.53-.87,2.3-.82,4.52-1.69,6.66-2.58,1.96-.8,3.83-1.69,5.63-2.58,.36-.14,.68-.32,1.03-.48,5.66-2.81,10.58-5.95,14.66-9.28,1.73-1.41,3.33-2.87,4.74-4.38,0,0,3.35,25.43,7.18,54.28,.64,4.72,1.28,9.56,1.92,14.37,.27,2.05,.55,4.11,.82,6.13,1.09,8.12,2.21,15.99,3.17,23.38Z"/><path class="c" d="M317.51,192.72c1.19,2.87,1.8,5.86,1.8,8.87,0,3.88-1,7.66-2.92,11.29-1.44,2.76-3.4,5.43-5.84,7.98-1.41,1.51-3.01,2.96-4.74,4.38-4.08,3.33-9.01,6.48-14.66,9.28-.34,.16-.66,.34-1.03,.48-1.8,.89-3.67,1.78-5.63,2.58-2.14,.89-4.36,1.76-6.66,2.58-.82,.3-1.69,.59-2.53,.87-.8,.3-1.62,.57-2.46,.8-.68,.25-1.41,.48-2.12,.68-.18,.05-.39,.14-.62,.18-.89,.27-1.8,.55-2.76,.8-1.14,.32-2.28,.64-3.44,.94-1.46,.36-2.92,.75-4.42,1.07-3.26,.78-6.66,1.48-10.15,2.08-2.96,.52-6,1-9.08,1.41-1.28,.16-2.53,.32-3.81,.48-3.83,.43-7.73,.8-11.72,1.07-1.76,.14-3.56,.21-5.34,.3-1.69,.07-3.4,.14-5.11,.18h-.5c-1.76,.02-3.53,.07-5.31,.07-18.09,0-35.12-1.94-50.2-5.38-8.28-1.82-16.01-4.2-22.9-6.91-.16-.07-.3-.14-.46-.18-7.46-2.94-13.98-6.32-19.45-10.06-.3-.21-.59-.43-.89-.62-.66-.46-1.25-.89-1.87-1.37-9.6-7.34-15.1-15.87-15.1-24.97,0-7.59,3.83-14.8,10.74-21.21,1.07-1.05,2.24-2.05,3.51-3.06,2.65-2.1,5.72-4.15,9.05-6.09,.68-.36,1.35-.75,2.12-1.16,3.08-1.64,6.41-3.22,9.97-4.72,1.12-.46,2.28-.91,3.44-1.35,1.73-.68,3.51-1.3,5.36-1.92,.16-.07,.32-.11,.48-.18,.11-.02,.21-.05,.3-.09,.78-.25,1.57-.5,2.37-.73,.59-.21,1.19-.39,1.78-.57l1.46-.41c2.55-.75,5.22-1.46,7.91-2.1,1.14-.27,2.28-.52,3.42-.78,.98-.23,1.96-.43,2.96-.62,1-.23,2.01-.41,2.99-.62,1.21-.21,2.44-.43,3.67-.64,2.46-.43,4.99-.82,7.53-1.14,.87-.14,1.73-.25,2.62-.32,.75-.11,1.51-.21,2.24-.27,1.35-.16,2.74-.3,4.13-.43,.36-.02,.73-.09,1.09-.11,1.16-.11,2.33-.18,3.53-.27,.23-.02,.46-.02,.71-.05,1.05-.09,2.12-.14,3.22-.23,.62-.02,1.28-.05,1.89-.09,1.46-.07,2.92-.11,4.42-.18,2.62-.07,5.29-.14,7.94-.14,11.38,0,22.37,.8,32.73,2.26,1.98,.27,3.95,.57,5.86,.89h.02c1.94,.32,3.83,.66,5.7,1,1.87,.39,3.69,.78,5.54,1.16,1.37,.3,2.71,.64,4.04,.96,.14,.02,.27,.09,.41,.11,.55,.14,1.05,.27,1.57,.41,.52,.11,1.03,.23,1.55,.39,.14,.05,.3,.07,.43,.11,1.14,.3,2.24,.62,3.33,.96,1.25,.36,2.49,.75,3.69,1.14,1,.32,1.96,.64,2.94,.96,.82,.3,1.6,.57,2.39,.87,1.53,.57,3.08,1.16,4.56,1.78,.94,.36,1.87,.75,2.78,1.16s1.8,.78,2.67,1.21c.89,.41,1.76,.82,2.6,1.25,.84,.41,1.69,.84,2.51,1.28v.02c.78,.41,1.53,.82,2.26,1.25,.66,.36,1.35,.75,1.98,1.16,1.16,.73,2.28,1.44,3.38,2.19,2.65,1.8,5.04,3.74,7.16,5.72,.73,.64,1.44,1.37,2.1,2.05,1.73,1.85,3.24,3.76,4.47,5.72,.98,1.48,1.76,3.03,2.37,4.56Zm-82.81,8.76c.11-.3,.14-.62,.14-.94,0-1.94-1.37-3.6-3.47-4.58-1.14-.52-2.49-.82-3.92-.82-4.11,0-7.39,2.42-7.39,5.41,0,.73,.21,1.44,.59,2.05v.02c.16,.27,.32,.52,.52,.75,1.3,1.53,3.6,2.53,6.27,2.53,3.63,0,6.66-1.94,7.25-4.42Zm-35.76-.94c0-2.74-2.83-5.02-6.48-5.34-.3-.05-.62-.07-.91-.07-4.11,0-7.41,2.42-7.41,5.41,0,.87,.3,1.64,.8,2.37,1.19,1.76,3.69,2.99,6.61,2.99,4.06,0,7.39-2.42,7.39-5.36Z"/><path class="e" d="M308.57,137.1v43.29c-2.12-1.98-4.52-3.92-7.16-5.72-1.09-.75-2.21-1.46-3.38-2.19-.64-.41-1.32-.8-1.98-1.16-.73-.43-1.48-.84-2.26-1.28-.82-.43-1.66-.87-2.51-1.28-.84-.43-1.71-.87-2.6-1.25-.87-.43-1.76-.8-2.67-1.21s-1.85-.8-2.78-1.16c-1.48-.62-3.03-1.21-4.56-1.78-.8-.3-1.57-.57-2.39-.87-.98-.32-1.94-.64-2.94-.96-1.21-.39-2.44-.78-3.69-1.14-1.09-.34-2.19-.66-3.33-.96-.14-.05-.3-.07-.43-.11-.52-.16-1.03-.27-1.55-.39-.52-.14-1.03-.27-1.57-.41-.14-.02-.27-.09-.41-.11-1.32-.32-2.67-.66-4.04-.96-1.85-.39-3.67-.78-5.54-1.16-1.87-.36-3.76-.71-5.7-1h-.02c-1.92-.32-3.88-.62-5.86-.89-10.35-1.46-21.35-2.26-32.73-2.26-2.65,0-5.31,.07-7.94,.14-1.51,.07-2.96,.11-4.42,.18-.62,.05-1.28,.07-1.89,.09-1.09,.09-2.17,.14-3.22,.23-.25,.02-.48,.02-.71,.05-1.21,.09-2.37,.16-3.53,.27-.36,.02-.73,.09-1.09,.11-1.39,.14-2.78,.27-4.13,.43-.73,.07-1.48,.16-2.24,.27-.89,.07-1.76,.18-2.62,.32-2.53,.32-5.06,.71-7.53,1.14-1.23,.21-2.46,.43-3.67,.64-.98,.21-1.98,.39-2.99,.62-1,.18-1.98,.39-2.96,.62-1.14,.25-2.28,.5-3.42,.78-2.69,.64-5.36,1.35-7.91,2.1l-1.46,.41c-.59,.18-1.19,.36-1.78,.57-.8,.23-1.6,.48-2.37,.73-.09,.05-.18,.07-.3,.09-.16,.07-.32,.11-.48,.18-1.85,.62-3.63,1.23-5.36,1.92-1.16,.43-2.33,.89-3.44,1.35-3.56,1.51-6.89,3.08-9.97,4.72-.78,.41-1.44,.8-2.12,1.16-3.33,1.94-6.41,3.99-9.05,6.09-1.28,1-2.44,2.01-3.51,3.06v-43.29c0-10.38,1.89-20.3,5.38-29.47,.16-.39,.34-.82,.52-1.23v-.02l.48-1.23v-.02c.16-.39,.3-.73,.48-1.09,.23-.5,.43-1.03,.68-1.51l.18-.39c.21-.41,.36-.8,.57-1.21,.09-.21,.21-.41,.3-.62s.21-.39,.32-.59c.23-.46,.48-.94,.75-1.39,0-.02,0-.07,.02-.09,.39-.71,.73-1.41,1.12-2.08,.05-.07,.07-.14,.09-.21,.07-.09,.11-.18,.18-.3,.07-.14,.16-.27,.23-.41,.34-.48,.64-1,.94-1.51,.46-.73,.91-1.46,1.39-2.24,.48-.66,.96-1.37,1.41-2.05,.25-.32,.46-.62,.71-.94,.09-.11,.14-.21,.23-.32,.52-.75,1.07-1.51,1.66-2.21,.71-.89,1.39-1.76,2.14-2.6,.25-.34,.55-.66,.82-.98,.3-.32,.59-.62,.87-.94,.57-.64,1.14-1.25,1.73-1.85,.16-.18,.32-.36,.5-.52,.36-.36,.75-.75,1.12-1.09,.07-.07,.14-.14,.18-.21,.57-.57,1.14-1.14,1.76-1.62,.3-.3,.59-.57,.91-.87,.34-.3,.73-.66,1.12-.98,.34-.3,.73-.62,1.09-.91,.14-.11,.27-.23,.41-.32,.36-.32,.68-.57,1.03-.84,5.02-3.99,10.47-7.39,16.33-10.08,.59-.3,1.21-.57,1.8-.84,1.53-.68,3.08-1.3,4.63-1.87,6.11-2.26,12.57-3.83,19.27-4.56,3.03-.34,6.16-.5,9.33-.5h35.97c2.76,.05,5.5,.21,8.21,.5,8.83,.98,17.26,3.38,25.04,6.93,.87,.41,1.73,.82,2.58,1.25,5.72,2.85,11.04,6.34,15.92,10.4,.82,.68,1.69,1.39,2.44,2.14t.05,.02c.57,.52,1.12,1,1.64,1.53,.02,0,.02,.02,.02,.02,1.05,1,2.05,2.01,3.06,3.06,1,1.07,1.96,2.12,2.9,3.24,.94,1.07,1.85,2.21,2.71,3.35l.07,.07s.02,.05,.07,.07c.39,.55,.8,1.07,1.16,1.62,.43,.57,.84,1.16,1.28,1.78,.39,.57,.75,1.12,1.12,1.69,.07,.09,.14,.18,.16,.25,.34,.57,.73,1.14,1.07,1.71,.78,1.21,1.51,2.49,2.19,3.76,.48,.94,.96,1.82,1.39,2.76,.02,.07,.09,.14,.11,.23,.02,.05,.05,.11,.09,.16,.3,.62,.59,1.25,.87,1.87,.02,.05,.05,.14,.07,.18,.07,.09,.11,.21,.14,.27,.25,.5,.5,1.03,.71,1.55,.14,.3,.25,.59,.39,.89,.52,1.3,1.03,2.67,1.51,3.99,.46,1.3,.87,2.6,1.25,3.92,.41,1.39,.78,2.76,1.12,4.17,.43,1.78,.8,3.6,1.07,5.45,.18,.94,.32,1.89,.43,2.85,.23,1.46,.39,2.96,.48,4.47,.21,2.14,.27,4.33,.27,6.52Zm-52.57-6.02c.09-.64,.11-1.35,.11-2.05,0-6.2-2.65-11.22-5.95-11.22s-5.98,5.02-5.98,11.22c0,.96,.07,1.87,.21,2.76,.64,4.86,2.99,8.44,5.77,8.44,2.92,0,5.34-3.95,5.84-9.15Zm-90.47-2.05c0-6.2-2.67-11.22-5.98-11.22s-5.95,5.02-5.95,11.22,2.69,11.2,5.95,11.2,5.98-5.02,5.98-11.2Z"/><path class="e" d="M301.14,102.82c-.27-.62-.57-1.25-.87-1.87,.32,.59,.62,1.21,.87,1.87Z"/><path class="e" d="M296.05,171.31c-.73-.43-1.48-.84-2.26-1.25v-.02c.78,.43,1.53,.84,2.26,1.28Z"/><path class="e" d="M291.7,86.99c.41,.55,.82,1.09,1.16,1.62-.36-.55-.78-1.07-1.16-1.62Z"/><path class="e" d="M291.29,168.75c-.84-.43-1.71-.84-2.6-1.25,.89,.39,1.76,.82,2.6,1.25Z"/><path class="f" d="M285.81,59.81c0,.36-.02,.73-.05,1.14-.32,3.6-2.01,8.51-3.97,13.23-.18,.48-.39,.98-.62,1.46-.75-.75-1.62-1.46-2.44-2.14-4.88-4.06-10.19-7.55-15.92-10.4,2.42-1.44,4.99-3.17,7.3-5.04,2.83-2.28,5.27-4.79,6.57-7.37,4.54-9.15,4.54-13.68,4.54-13.68,0,0,4.58,13.68,4.58,22.81Z"/><path class="h" d="M256.12,129.02c0,.71-.02,1.41-.11,2.05-.5,5.2-2.92,9.15-5.84,9.15s-5.13-3.58-5.77-8.44c-.14-.89-.21-1.8-.21-2.76,0-6.2,2.69-11.22,5.98-11.22s5.95,5.02,5.95,11.22Zm-3.74-4.86c0-1.25-1.03-2.28-2.28-2.28s-2.28,1.03-2.28,2.28,1.03,2.28,2.28,2.28,2.28-1.03,2.28-2.28Z"/><path class="d" d="M253.52,296.35s-2.19,14.53-2.96,30.99c-.14,3.06-.23,6.2-.23,9.33-.05,3.74,.02,7.48,.27,11.04,.11,2.01,.27,3.95,.52,5.82-6.73,3.12-16.49,5.98-29.63,5.88-13.91-.11-24.52-3.33-31.72-6.59,.16-1.25,.27-2.53,.39-3.81,.02-.3,.05-.57,.07-.87,.09-1.3,.18-2.62,.23-3.97,.98-21.76-3.17-46.34-3.17-46.34,0,0-2.19-10.6,13.78-12.89s35.51-1.51,43.33,0,9.12,11.4,9.12,11.4Z"/><circle class="e" cx="250.1" cy="124.17" r="2.28"/><path class="e" d="M247.06,155.27c1.94,.3,3.83,.64,5.7,1-1.87-.34-3.76-.68-5.7-1Z"/><path class="d" d="M234.84,200.54c0,.32-.02,.64-.14,.94-.59,2.49-3.63,4.42-7.25,4.42-2.67,0-4.97-1-6.27-2.53-.21-.23-.36-.48-.52-.75v-.02c-.39-.62-.59-1.32-.59-2.05,0-2.99,3.28-5.41,7.39-5.41,1.44,0,2.78,.3,3.92,.82,2.1,.98,3.47,2.65,3.47,4.58Z"/><path class="d" d="M192.47,195.21c3.65,.32,6.48,2.6,6.48,5.34,0,2.94-3.33,5.36-7.39,5.36-2.92,0-5.43-1.23-6.61-2.99-.5-.73-.8-1.51-.8-2.37,0-2.99,3.31-5.41,7.41-5.41,.3,0,.62,.02,.91,.07Z"/><path class="g" d="M190.16,349.01c-.11,1.28-.23,2.55-.39,3.81-1.39,11.31-4.72,20.62-11.52,23.35-10.01,4.01-20.18,4.26-29.65,4.56-12.06,.39-23.38-.41-35.76-6.73-3.95-2.01-5.11-11.63-5.11-25.32l.18,.21s23.54,5.13,48.08,3.67c13.89-.84,22.83-1.94,28.01-2.74,.46-.07,.94-.14,1.37-.21,1.85-.25,3.56-.48,4.79-.62Z"/><path class="h" d="M159.56,117.8c3.31,0,5.98,5.02,5.98,11.22s-2.67,11.2-5.98,11.2-5.95-5.02-5.95-11.2,2.69-11.22,5.95-11.22Zm1.6,6.36c0-1.25-1.03-2.28-2.28-2.28s-2.28,1.03-2.28,2.28,1.03,2.28,2.28,2.28,2.28-1.03,2.28-2.28Z"/><circle class="e" cx="158.87" cy="124.17" r="2.28"/><path class="f" d="M146.01,54.06c2.58,3.01,6.34,5.84,9.99,8.12-5.86,2.69-11.31,6.09-16.33,10.08-.34,.27-.66,.52-1.03,.84-.14,.09-.27,.21-.41,.32-.02-.09-.07-.21-.09-.27-1.98-4.9-3.58-9.92-3.58-13.34,0-.91,.05-1.89,.14-2.9,.73-8.85,4.4-19.91,4.4-19.91,0,0,0,4.54,4.58,13.68,.57,1.14,1.39,2.28,2.33,3.38Z"/><path class="g" d="M136.54,72.99c.34,.8,.11,1.76-.52,2.33-.32,.3-.62,.57-.91,.87-.62,.48-1.19,1.05-1.76,1.62-.05,.07-.11,.14-.18,.21-.36,.34-.75,.73-1.12,1.09-.18,.16-.34,.34-.5,.52-.59,.59-1.16,1.21-1.73,1.85-.27,.32-.57,.62-.87,.94-.27,.32-.57,.64-.82,.98-.75,.84-1.44,1.71-2.14,2.6-.59,.71-1.14,1.46-1.66,2.21-.09,.11-.14,.21-.23,.32-.25,.32-.46,.62-.71,.94-.46,.68-.94,1.39-1.41,2.05-.48,.78-.94,1.51-1.39,2.24-.3,.5-.59,1.03-.94,1.51-.07,.14-.16,.27-.23,.41-.07,.11-.11,.21-.18,.3-.02,.07-.05,.14-.09,.21-.39,.66-.73,1.37-1.12,2.08-.02,.02-.02,.07-.02,.09-.27,.46-.52,.94-.75,1.39-.11,.21-.23,.39-.32,.59-.02,.02-.05,.07-.07,.09l-.23,.52c-.21,.41-.36,.8-.57,1.21l-.18,.39c-.25,.48-.46,1-.68,1.51-.18,.36-.32,.71-.48,1.09v.02c-.59,1.23-2.14,1.57-3.19,.68-2.24-1.89-4.45-3.97-6.5-6.11h-.05c-1.78-1.85-3.47-3.81-4.86-5.77-.34-.39-.62-.78-.87-1.19v-.02c-1.3-1.96-2.37-3.92-3.01-5.88-.73-2.21-1.48-4.29-2.24-6.16-.62-1.64-1.28-3.12-1.87-4.52l-.46-1.09c-.91-1.96-1.73-3.63-2.44-4.95-.84-1.57,.57-3.35,2.3-2.96,7.28,1.82,21.48,4.7,33.3,2.99,2.83-.41,5.41-.36,7.69-.05h.07c.71,.07,1.37,.21,1.98,.34,.64,.16,1.16,.64,1.41,1.25,.18,.43,.34,.87,.55,1.28Z"/><path class="e" d="M116.93,100.31c-.09,.21-.21,.41-.3,.62l.23-.52s.05-.07,.07-.09Z"/></g></g><g id="b"/></svg>