<?xml version="1.0" encoding="UTF-8"?><svg xmlns="http://www.w3.org/2000/svg" viewBox="0 0 443 417"><defs><style>.c{fill:#f6f4f5;}.d{fill:#f8d7d9;}.e{fill:#efa7aa;}.f{fill:#f0eeef;}.g{fill:#e6e6e6;}.h{fill:#fff;}.i{fill:#9a624e;}.j{fill:#c19246;}.k{fill:#a96b50;}.l{fill:#25252d;}</style></defs><g id="a"><g><path class="k" d="M400.96,230.51c2.75,10.2-.69,21.12-2.06,25.5-.85,2.66-4.15,5.82-4.15,5.82,0,0-1.57-3.07-3.44-9.25-1.39-4.64-2.96-11.03-4.15-19.16-.18-1.25,3.09-4.73,4.85-8.5l3.81-1.02,3.05-3.51c.94,4.99,1.68,8.59,2.08,10.13Z"/><path class="f" d="M398.88,220.38l-3.05,3.51-3.81,1.02c.26-.55,.49-1.13,.67-1.69,.11-.37,.18-.92,.21-1.59,.28-7.48-7.53-58.61-7.53-58.61l-14.24-34.41-.83-.07c11.57,19.06,11.89,69.22,11.89,69.22,.65,11.89,2.84,28.07-1.54,35.55-3.99-1.85-24.03-11.1-39.77-18.31-17.57-8.05,14.22-23.73,7.13-50.52-7.09-26.78-33.37,5.36-71.6,.28-34.37-4.57-11.01-35.32-5.91-41.52,39.47-.56,74.92-3.37,90.51-1.89,.05,0,.09,.02,.14,.02h.05c11.7-.44,22,7.87,23.93,19.5,3.95,23.66,10.27,61.1,13.74,79.5Z"/><path class="f" d="M380.65,233.31c-.19,.37-.42,.72-.67,1.04-2.08,2.73-5.72,7.27-9.74,10.3-6.18,4.66-9.7,4.66-7.94,17.71,.23,1.68,.55,3.48,.95,5.31,2.66,12.47,8.52,27.33,8.52,27.33,0,0,1.92,6.95,2.35,14.2h-45.35v-52.97l-.02,.02s-.04,.02-.05,.04c-.81,.48-7.8,4.59-22.87,8.84-1.39,.41-2.88,.79-4.41,1.2-3.78,.97-7.99,1.92-12.65,2.86-7.98,1.57-17.27,3-28,4.09-2.54,.25-5.17,.49-7.87,.71-36.36,2.89-54.01,.65-61.75-1.18-.65-.16-1.25-.32-1.76-.46-.81-.23-1.45-.44-1.96-.62-.05-.02-.11-.04-.14-.05-.11-.05-.21-.09-.32-.11-.04-.02-.05-.02-.07-.04-.25-.11-.44-.18-.6-.25-.3-.14-.44-.21-.44-.21,0,0-1.25,.16-3.11,.37-.23,.02-.46,.05-.69,.09-.25,.02-.48,.04-.72,.07-.26,.04-.51,.05-.78,.09-.11,0-.19,.02-.3,.04,.11,0,.19-.02,.3-.02-3.42,.41-7.76,.81-10.59,.81-.95,0-1.38,1.69-1.52,4.5-.02,.21-.02,.44-.02,.67-.02,.44-.02,.94-.02,1.45,0,.44,0,.9,.02,1.38,0,.46,.02,.95,.04,1.45,.02,.55,.05,1.13,.07,1.71,.18,4.09,.56,8.95,.92,13.89,0,.05,.02,.11,.02,.16,.25,3.16,.48,6.35,.64,9.39,.05,1.09,.11,2.17,.14,3.23h-.28l-14.12-.02-17.75-.04-13.44-.02c-.12-9.17,.02-23.94,.16-33.74,.09-5.91,.16-10.02,.16-10.02,0,0-19.16-3.35-30.24-17.7-.41-.51-.79-1.06-1.18-1.61,6.93-1.99,17.41-6.72,33.47-18.09,25.62-18.14,45.2-32.01,44.92-41.29,.23-.09,.44-.21,.67-.32,3.67-1.82,6.88-3.86,9.55-6.03,5.59-4.57,8.79-9.83,8.79-15.4,0-1.96-.41-3.9-1.16-5.77-.41-1.01-.92-2.01-1.55-2.98,1.87-.44,3.88-1.01,6.02-1.71,20.94-6.85,13.16-25.34,7.46-34.79,1.73,.12,3.46,.28,5.22,.44,11.36,1.06,23.06,1.62,34.76,1.89,9.69,.21,19.36,.21,28.8,.09-5.1,6.19-28.46,36.95,5.91,41.52,38.23,5.08,64.51-27.07,71.6-.28,7.09,26.78-24.7,42.47-7.13,50.52,15.74,7.22,35.78,16.46,39.77,18.31Zm-60.48-21.97c.55-15-10.89-29.17-47.96-25.87-37.09,3.32-33.51-5.49-56.46-2.08-22.96,3.39-3.76,40.56-3.76,40.56,0,0-15.97,15.77-16.07,33.42-.11,17.64,47.69-8.54,83.07-25.97,35.39-17.45,40.62-5.06,41.18-20.06Z"/><path class="k" d="M374.18,310.35c.14,3.65-.14,7.29-1.29,10.09-2.29,5.65-1.76,4.94-6.18,5.38-3.62,.37-20.47,.81-28.53,.41-1.76-.09-3.11-.21-3.79-.41-.99-.26-1.82-1.11-2.54-2.24-.78-1.24-1.41-2.77-1.89-4.23-.79-2.47-1.18-4.71-1.18-4.71v-5.42h45.35l.05,1.06v.07Z"/><path class="i" d="M331.85,323.58h-27.07c-1.85,0-3.35-1.5-3.35-3.35v-13.48h27.35v7.89s.39,2.24,1.18,4.71c.48,1.46,1.11,3,1.89,4.23Z"/><path class="g" d="M328.78,272.36v34.39h-27.35v-30.17l.42,.11s.19,4.52,3.37,4.52c3.37,0,3.25-3.62,3.25-3.62h1.69s.74,5.98,2.91,5.42c3.35-.88,2.63-6.16,4.48-6.62,3.37-.83,3.37,4.22,5.61,3.35,1.75-.65,2.13-3.86,2.22-5.22,.02-.34,.02-.53,.02-.53l3.37-1.62Z"/><path class="d" d="M328.78,256.25v16.11l-3.37,1.62s0,.19-.02,.53c-.09,1.36-.48,4.57-2.22,5.22-2.24,.86-2.24-4.18-5.61-3.35-1.85,.46-1.13,5.73-4.48,6.62-2.17,.56-2.91-5.42-2.91-5.42h-1.69s.12,3.62-3.25,3.62c-3.18,0-3.37-4.52-3.37-4.52l-.42-.11-2.93-.79s-4.5,4.52-6.74,3.62c-2.24-.92,0-7.22-1.11-8.12-.39-.3-1.09-1.13-1.87-2.08,4.66-.94,8.88-1.89,12.65-2.86,1.54-.41,3.02-.79,4.41-1.2,15.07-4.25,22.06-8.36,22.87-8.84,.02-.02,.04-.04,.05-.04l.02-.02Z"/><path class="f" d="M272.21,185.48c37.07-3.3,48.5,10.87,47.96,25.87-.56,15-5.79,2.61-41.18,20.06-35.38,17.43-83.17,43.62-83.07,25.97,.11-17.64,16.07-33.42,16.07-33.42,0,0-19.2-37.18,3.76-40.56,22.96-3.41,19.37,5.4,56.46,2.08Z"/><path class="f" d="M201.72,120.83c5.7,9.46,13.48,27.95-7.46,34.79-2.13,.71-4.15,1.27-6.02,1.71-.79-1.27-1.78-2.52-2.91-3.72-.42-.44-.88-.92-1.36-1.34v-28.18c0-1.43-.05-2.86-.18-4.25,5.73,.18,11.73,.49,17.93,.99Z"/><path class="k" d="M195.92,79.28c1.29-.32,2.33,1.04,1.71,2.21-.34,.65-.71,1.41-1.11,2.28-2.93,.44-5.58,.74-7.13,.74-2.05,0-2.77-1.55-2.88-3.49,.42-.05,.85-.11,1.25-.16,3.18-.46,6.05-1.06,8.15-1.57Z"/><path class="k" d="M196.52,83.76c-.97,2.1-2.1,4.82-3.23,8.2-.42,1.27-1.09,2.56-1.96,3.83-.81,1.22-1.76,2.42-2.84,3.58-1.62,1.8-3.48,3.53-5.31,5.08-1.06,.88-2.68,.49-3.21-.79-.09-.19-.16-.39-.25-.58-.14-.34-.3-.69-.46-1.01-.02-.05-.05-.12-.09-.18-.02-.04-.04-.09-.05-.12-.16-.42-.35-.83-.56-1.22l-.05-.11c-.02-.05-.05-.11-.07-.14-.28-.62-.6-1.2-.92-1.8-.44-.83-.92-1.66-1.41-2.45-.23-.37-.48-.74-.71-1.11-.02-.05-.05-.11-.11-.16-.23-.37-.48-.74-.72-1.11-.28-.39-.55-.78-.83-1.15-.23-.35-.49-.71-.76-1.06-.04-.02-.05-.05-.09-.09-.56-.74-1.16-1.48-1.76-2.19-.62-.72-1.24-1.41-1.89-2.1s-1.31-1.34-1.99-1.99c0,0,0-.02-.02-.02-.58-.58-.79-1.46-.49-2.24,0-.02,.02-.04,.02-.05,.02-.02,.02-.05,.04-.07l.11-.21c.26-.62,.81-1.08,1.46-1.22,1.82-.41,3.9-.53,6.3-.18,1.15,.16,2.31,.26,3.49,.3,2.81,.11,5.68-.07,8.36-.41,.11,1.94,.83,3.49,2.88,3.49,1.55,0,4.2-.3,7.13-.74Z"/><path class="d" d="M189.8,160.32c.76,1.87,1.16,3.81,1.16,5.77,0,5.58-3.19,10.83-8.79,15.4-2.66,2.17-5.88,4.22-9.55,6.03-.23,.11-.44,.23-.67,.32-1.18,.58-2.4,1.16-3.67,1.68-1.39,.58-2.84,1.15-4.34,1.68-.53,.19-1.09,.39-1.64,.56-.53,.19-1.06,.37-1.61,.53-.44,.16-.92,.3-1.38,.44-.12,.04-.26,.09-.41,.12-.58,.18-1.18,.35-1.8,.51-.74,.21-1.48,.42-2.24,.62-.95,.23-1.91,.48-2.88,.69-2.13,.51-4.34,.97-6.62,1.36-1.92,.34-3.9,.65-5.91,.92-.83,.11-1.64,.21-2.47,.32-2.51,.28-5.05,.51-7.64,.69-1.15,.09-2.31,.14-3.48,.19-1.09,.05-2.21,.09-3.32,.12h-.34c-1.15,.02-2.29,.04-3.46,.04-11.77,0-22.87-1.25-32.68-3.49-5.4-1.2-10.43-2.73-14.91-4.5-.11-.05-.19-.09-.3-.12-4.85-1.92-9.1-4.11-12.67-6.55-.19-.14-.39-.28-.58-.41-.42-.3-.81-.58-1.22-.88-6.25-4.78-9.83-10.34-9.83-16.27,0-4.94,2.49-9.63,6.99-13.82,.71-.67,1.46-1.32,2.29-1.98,1.73-1.38,3.72-2.72,5.89-3.97,.44-.25,.88-.49,1.38-.76,2.01-1.08,4.18-2.1,6.49-3.07,.72-.3,1.48-.6,2.24-.88,1.13-.44,2.29-.85,3.49-1.25l.32-.11c.07-.02,.12-.04,.19-.07,.49-.16,1.02-.32,1.54-.48l1.16-.37,.95-.26c1.66-.49,3.39-.95,5.15-1.36,.74-.18,1.48-.35,2.22-.51,.64-.14,1.27-.28,1.92-.41,.65-.14,1.31-.26,1.96-.39,.78-.14,1.59-.28,2.38-.42,1.61-.28,3.25-.53,4.91-.74,.56-.09,1.13-.16,1.71-.21,.48-.07,.97-.12,1.45-.18,.88-.11,1.78-.19,2.68-.28,.25-.02,.48-.05,.72-.07,.76-.07,1.52-.12,2.29-.18,.16-.02,.3-.02,.46-.04,.69-.05,1.39-.09,2.1-.14,.41-.02,.83-.04,1.24-.07,.95-.04,1.91-.07,2.88-.11,1.71-.05,3.44-.09,5.17-.09,7.41,0,14.57,.51,21.31,1.46,2.58,.35,5.08,.78,7.53,1.24,1.22,.25,2.42,.49,3.62,.76,.88,.19,1.76,.41,2.63,.62,.09,.02,.18,.05,.26,.07,.35,.09,.69,.18,1.02,.26s.67,.16,1.01,.26c.09,.02,.19,.04,.28,.07,.74,.19,1.46,.41,2.17,.62,.81,.25,1.62,.49,2.4,.74,.65,.21,1.29,.42,1.92,.64,.53,.19,1.04,.37,1.55,.56,1.01,.37,2.01,.76,2.98,1.15,.6,.25,1.22,.49,1.8,.76,.6,.26,1.18,.51,1.75,.79,.58,.26,1.15,.53,1.69,.81,.55,.26,1.09,.55,1.62,.83v.02c.51,.26,1.01,.53,1.48,.81,.42,.25,.86,.49,1.29,.76,.76,.48,1.48,.94,2.19,1.43,1.73,1.18,3.28,2.43,4.68,3.72,.48,.42,.94,.9,1.36,1.34,1.13,1.2,2.12,2.45,2.91,3.72,.64,.97,1.15,1.98,1.55,2.98Zm-53.92,5.7c.07-.19,.09-.41,.09-.62,0-1.25-.9-2.35-2.26-2.98-.74-.34-1.62-.53-2.56-.53-2.66,0-4.82,1.57-4.82,3.51,0,.48,.14,.94,.39,1.34v.02c.11,.18,.21,.34,.35,.49,.85,.99,2.35,1.64,4.08,1.64,2.36,0,4.34-1.25,4.73-2.88Zm-23.29-.62c0-1.78-1.83-3.26-4.22-3.48-.19-.02-.41-.04-.6-.04-2.66,0-4.82,1.57-4.82,3.51,0,.56,.19,1.08,.51,1.55,.78,1.15,2.42,1.94,4.31,1.94,2.65,0,4.82-1.57,4.82-3.49Z"/><path class="i" d="M189.39,307.12v12.35c0,2.75-2.24,4.99-4.99,4.99h-15.07l.11-.26c.95-2.75,1.06-7.87,.83-13.85-.04-1.06-.09-2.13-.14-3.23h19.27Z"/><path class="g" d="M189.39,272.36v34.76h-19.27c-.16-3.03-.39-6.23-.64-9.39,0-.05-.02-.11-.02-.16-.3-4.94-.71-9.79-.92-13.89-.02-.58-.05-1.16-.07-1.71-.02-.49-.04-.99-.04-1.45-.02-.48-.02-.94-.02-1.38,0-.51,0-1.01,.02-1.45,0-.23,0-.46,.02-.67,.14-2.81,.56-4.5,1.52-4.5,2.82,0,7.16-.41,10.59-.81,.02,0,.05,0,.09-.02,.49-.05,.97-.11,1.41-.16,.23-.04,.46-.07,.69-.09,1.85-.21,3.11-.37,3.11-.37,0,0,.14,.07,.44,.21,.16,.07,.35,.14,.6,.25,.02,.02,.04,.02,.07,.04,.11,.02,.21,.05,.32,.11,.04,.02,.09,.04,.14,.05,.51,.18,1.15,.39,1.96,.62Z"/><path class="c" d="M183.97,124.1v28.18c-1.39-1.29-2.95-2.54-4.68-3.72-.71-.49-1.43-.95-2.19-1.43-.42-.26-.86-.51-1.29-.76-.48-.28-.97-.55-1.48-.83-.53-.28-1.08-.56-1.62-.83-.55-.28-1.11-.56-1.69-.81-.56-.28-1.15-.53-1.75-.79-.58-.26-1.2-.51-1.8-.76-.97-.39-1.98-.78-2.98-1.15-.51-.19-1.02-.37-1.55-.56-.64-.21-1.27-.42-1.92-.64-.78-.25-1.59-.49-2.4-.74-.71-.21-1.43-.42-2.17-.62-.09-.04-.19-.05-.28-.07-.34-.11-.67-.18-1.01-.26s-.67-.18-1.02-.26c-.09-.02-.18-.05-.26-.07-.86-.21-1.75-.42-2.63-.62-1.2-.26-2.4-.51-3.62-.76-2.43-.48-4.96-.88-7.53-1.24-6.74-.95-13.9-1.46-21.31-1.46-1.73,0-3.46,.04-5.17,.09-.97,.04-1.92,.07-2.88,.11-.41,.04-.83,.05-1.24,.07-.71,.05-1.41,.09-2.1,.14-.16,.02-.3,.02-.46,.04-.78,.05-1.54,.11-2.29,.18-.25,.02-.48,.05-.72,.07-.9,.09-1.8,.18-2.68,.28-.48,.05-.97,.11-1.45,.18-.58,.05-1.15,.12-1.71,.21-1.66,.21-3.3,.46-4.91,.74-.79,.14-1.61,.28-2.38,.42-.65,.12-1.31,.25-1.96,.39-.65,.12-1.29,.26-1.92,.41-.74,.16-1.48,.34-2.22,.51-1.76,.41-3.49,.86-5.15,1.36l-.95,.26-1.16,.37c-.51,.16-1.04,.32-1.54,.48-.07,.04-.12,.05-.19,.07l-.32,.11c.53-11.47,.11-27.63-5.89-32.61-4.82-4.01-7.82-6.95-9.6-8.91,0-.02,0-.04,.02-.05,.25-.46,.48-.92,.72-1.36,.04-.04,.05-.09,.07-.12,.04-.07,.07-.12,.11-.19l.16-.26c.21-.32,.41-.65,.6-.99,.3-.48,.6-.95,.92-1.45,.3-.44,.62-.9,.92-1.34,.16-.21,.3-.41,.46-.62,.05-.07,.09-.12,.14-.19,.35-.49,.71-.99,1.09-1.45,.46-.58,.9-1.15,1.39-1.69,.16-.23,.35-.42,.53-.64,.19-.21,.39-.41,.56-.62,.37-.41,.74-.81,1.13-1.2,.11-.12,.21-.23,.34-.34,.23-.25,.48-.49,.72-.72l.12-.12c.37-.37,.74-.74,1.13-1.06,.19-.19,.39-.37,.6-.56,.23-.19,.48-.42,.72-.64,.23-.19,.48-.41,.72-.6l.26-.21c.23-.19,.44-.37,.67-.55,3.26-2.59,6.81-4.8,10.62-6.56,.39-.19,.79-.37,1.18-.55,.99-.44,1.99-.85,3.02-1.22,3.97-1.46,8.17-2.49,12.54-2.96,1.98-.23,4.01-.34,6.07-.34h23.41c-3.72,5.31-11.95,18.6-.81,18.88,13.92,.34,35.06-6.6,35.91,4.87,.65,8.59,10.76,13.09,15.83,14.82,.26,.9,.51,1.8,.72,2.72,.28,1.16,.53,2.35,.71,3.55,.12,.62,.21,1.24,.28,1.85,.14,.95,.25,1.94,.32,2.91,.12,1.39,.18,2.82,.18,4.25Zm-34.23-3.92c.05-.42,.07-.88,.07-1.34,0-4.04-1.73-7.3-3.88-7.3s-3.88,3.26-3.88,7.3c0,.62,.04,1.22,.12,1.8,.42,3.16,1.96,5.49,3.76,5.49,1.91,0,3.48-2.56,3.81-5.95Zm-58.91-1.34c0-4.04-1.73-7.3-3.88-7.3s-3.88,3.26-3.88,7.3,1.75,7.29,3.88,7.29,3.88-3.26,3.88-7.29Z"/><path class="f" d="M181.35,271.62c.25-.04,.48-.05,.72-.07-.44,.05-.92,.11-1.41,.16,.23-.04,.46-.05,.69-.09Z"/><path class="c" d="M180.96,106.26c.3,.85,.56,1.69,.81,2.56-5.06-1.73-15.17-6.23-15.83-14.82-.85-11.47-21.98-4.53-35.91-4.87-11.13-.28-2.91-13.57,.81-18.88,1.8,.04,3.58,.14,5.35,.34,5.75,.64,11.24,2.19,16.3,4.52,.56,.26,1.13,.53,1.68,.81,3.74,1.85,7.2,4.13,10.37,6.78,.53,.44,1.09,.9,1.59,1.39t.04,.02c.37,.34,.72,.65,1.06,.99,.02,0,.02,.02,.02,.02,.69,.65,1.34,1.31,1.99,1.99s1.27,1.38,1.89,2.1c.6,.71,1.2,1.45,1.76,2.19,.3,.39,.58,.76,.85,1.15,.28,.37,.55,.76,.83,1.15,.25,.37,.49,.74,.72,1.11,.05,.05,.09,.11,.11,.16,.23,.37,.48,.74,.71,1.11,.49,.79,.97,1.62,1.41,2.45,.32,.6,.64,1.18,.92,1.8,.02,.04,.05,.09,.07,.14l.05,.11c.19,.41,.39,.81,.56,1.22,.02,.04,.04,.09,.05,.12,.04,.05,.07,.12,.09,.18,.16,.32,.32,.67,.46,1.01,.09,.19,.16,.39,.25,.58,.35,.85,.67,1.73,.99,2.59Z"/><path class="f" d="M181.35,271.62c-.23,.04-.46,.05-.69,.09h-.09c.26-.04,.51-.05,.78-.09Z"/><path class="f" d="M180.66,271.71s-.07,.02-.09,.02v-.02h.09Z"/><path class="f" d="M180.57,271.71v.02c-.11,0-.19,.02-.3,.02,.11-.02,.19-.04,.3-.04Z"/><path class="f" d="M179.12,101.78c-.18-.41-.37-.81-.56-1.22,.21,.39,.41,.79,.56,1.22Z"/><path class="f" d="M175.82,146.36c-.48-.28-.97-.55-1.48-.81v-.02c.51,.28,1.01,.55,1.48,.83Z"/><path class="f" d="M173.74,92.53c-.26-.39-.55-.76-.85-1.15,.04,.04,.05,.07,.09,.09,.26,.35,.53,.71,.76,1.06Z"/><path class="f" d="M172.72,144.7c-.55-.28-1.11-.55-1.69-.81,.58,.25,1.15,.53,1.69,.81Z"/><path class="f" d="M171.96,187.84c.28,9.28-19.3,23.15-44.92,41.29-16.06,11.36-26.54,16.09-33.47,18.09-1.11-1.59-2.12-3.32-2.98-5.17-14.13-30.17-18.54-44.32-19.39-51.73,4.48,1.76,9.51,3.3,14.91,4.5,9.81,2.24,20.91,3.49,32.68,3.49,1.16,0,2.31-.02,3.46-.04h.34c1.11-.04,2.22-.07,3.32-.12,1.16-.05,2.33-.11,3.48-.19,2.59-.16,5.13-.39,7.64-.69,.83-.11,1.64-.21,2.47-.32,2.01-.26,3.97-.56,5.91-.92,2.28-.39,4.48-.85,6.62-1.36,.97-.21,1.92-.46,2.88-.69,.76-.19,1.5-.41,2.24-.62,.62-.16,1.22-.34,1.8-.51,.14-.04,.28-.09,.41-.12,.46-.14,.94-.28,1.38-.44,.55-.16,1.08-.34,1.61-.53,.55-.18,1.11-.37,1.64-.56,1.5-.53,2.95-1.09,4.34-1.68,1.27-.51,2.49-1.09,3.67-1.68Z"/><path class="k" d="M170.26,310.35c.23,5.98,.12,11.1-.83,13.85l-.11,.26c-.34,.9-.76,1.5-1.32,1.76-.23,.11-.46,.16-.71,.16-7.9-.12-37.04,0-37.04,0,0,0-4.39-1.59-5.28-8.52-.02-.21-.05-.44-.07-.72-.12-1.45-.19-3.86-.25-6.86l13.44,.02,17.75,.04,14.12,.02h.28Z"/><path class="j" d="M169.15,73.78c0,.23-.02,.48-.04,.74-.21,2.35-1.31,5.54-2.58,8.61-.12,.32-.26,.64-.41,.95-.49-.49-1.06-.95-1.59-1.39-3.18-2.65-6.63-4.92-10.37-6.78,1.59-.94,3.26-2.06,4.76-3.28,1.83-1.48,3.42-3.12,4.27-4.8,2.96-5.95,2.96-8.91,2.96-8.91,0,0,2.98,8.91,2.98,14.86Z"/><path class="f" d="M168.55,283.69c.21,4.09,.62,8.95,.92,13.89-.35-4.94-.74-9.79-.92-13.89Z"/><path class="l" d="M149.82,118.84c0,.46-.02,.92-.07,1.34-.34,3.39-1.91,5.95-3.81,5.95-1.8,0-3.33-2.33-3.76-5.49-.09-.58-.12-1.18-.12-1.8,0-4.04,1.75-7.3,3.88-7.3s3.88,3.26,3.88,7.3Zm-2.24-4.16c0-.97-.67-1.76-1.48-1.76s-1.5,.79-1.5,1.76,.67,1.76,1.5,1.76,1.48-.79,1.48-1.76Z"/><path class="h" d="M146.09,112.91c.81,0,1.48,.79,1.48,1.76s-.67,1.76-1.48,1.76-1.5-.79-1.5-1.76,.67-1.76,1.5-1.76Z"/><path class="f" d="M140.09,135.35c2.58,.35,5.1,.76,7.53,1.24-2.45-.46-4.96-.88-7.53-1.24Z"/><path class="f" d="M139.48,196.95c2.01-.26,3.99-.58,5.91-.92-1.94,.35-3.9,.65-5.91,.92Z"/><path class="e" d="M135.96,165.4c0,.21-.02,.42-.09,.62-.39,1.62-2.36,2.88-4.73,2.88-1.73,0-3.23-.65-4.08-1.64-.14-.16-.25-.32-.35-.49v-.02c-.25-.41-.39-.86-.39-1.34,0-1.94,2.15-3.51,4.82-3.51,.94,0,1.82,.19,2.56,.53,1.36,.64,2.26,1.73,2.26,2.98Z"/><path class="f" d="M129.37,197.95c2.59-.18,5.13-.41,7.64-.69-2.51,.3-5.05,.53-7.64,.69Z"/><path class="e" d="M108.37,161.93c2.38,.21,4.22,1.69,4.22,3.48,0,1.92-2.17,3.49-4.82,3.49-1.89,0-3.53-.79-4.31-1.94-.32-.48-.51-.99-.51-1.55,0-1.94,2.15-3.51,4.82-3.51,.19,0,.41,.02,.6,.04Z"/><path class="l" d="M86.95,111.53c2.15,0,3.88,3.26,3.88,7.3s-1.73,7.29-3.88,7.29-3.88-3.26-3.88-7.29,1.75-7.3,3.88-7.3Zm1.5,3.14c0-.97-.67-1.76-1.48-1.76s-1.5,.79-1.5,1.76,.67,1.76,1.5,1.76,1.48-.79,1.48-1.76Z"/><path class="h" d="M86.97,112.91c.81,0,1.48,.79,1.48,1.76s-.67,1.76-1.48,1.76-1.5-.79-1.5-1.76,.67-1.76,1.5-1.76Z"/><path class="j" d="M78.13,70.03c1.68,1.96,4.13,3.79,6.49,5.28-3.81,1.76-7.36,3.97-10.62,6.56-.23,.18-.44,.35-.67,.55l-.26,.21c-.02-.05-.05-.12-.07-.18-1.29-3.19-2.33-6.46-2.33-8.68,0-.6,.04-1.24,.09-1.89,.48-5.77,2.88-12.97,2.88-12.97,0,0,0,2.96,2.98,8.91,.37,.74,.9,1.48,1.52,2.21Z"/><path class="c" d="M69.48,107.76c6,4.98,6.42,21.14,5.89,32.61-1.2,.41-2.36,.81-3.49,1.25-.76,.28-1.52,.58-2.24,.88-2.31,.97-4.48,1.99-6.49,3.07-.49,.26-.94,.51-1.38,.76-2.17,1.25-4.16,2.59-5.89,3.97-.83,.65-1.59,1.31-2.29,1.98v-28.18c0-6.76,1.24-13.22,3.51-19.18,.11-.26,.23-.55,.34-.81v-.02l.32-.79v-.02c.11-.25,.19-.48,.32-.71,.14-.34,.28-.67,.44-.99l.12-.25c.12-.26,.23-.53,.37-.79,.12-.26,.25-.51,.39-.78,.16-.3,.32-.62,.49-.92,1.78,1.96,4.78,4.91,9.6,8.91Z"/><path class="k" d="M71.95,82.35c.23,.53,.09,1.15-.34,1.52-.21,.19-.41,.37-.6,.56-.39,.32-.76,.69-1.13,1.06l-.12,.12c-.25,.23-.49,.48-.72,.72-.12,.11-.23,.21-.34,.34-.39,.39-.76,.79-1.13,1.2-.18,.21-.37,.41-.56,.62-.18,.21-.37,.41-.53,.64-.49,.55-.94,1.11-1.39,1.69-.39,.46-.74,.95-1.09,1.45-.05,.07-.09,.12-.14,.19-.16,.21-.3,.41-.46,.62-.3,.44-.62,.9-.92,1.34-.32,.49-.62,.97-.92,1.45-.19,.34-.39,.67-.6,.99l-.16,.26c-.04,.07-.07,.12-.11,.19-.02,.04-.04,.09-.07,.12-.25,.44-.48,.9-.72,1.36-.02,.02-.02,.04-.02,.05-.18,.3-.34,.62-.49,.92-.09,.14-.16,.28-.25,.44l-.14,.34c-.14,.26-.25,.53-.37,.79l-.12,.25c-.16,.32-.3,.65-.44,.99-.12,.23-.21,.46-.32,.71v.02c-.39,.79-1.39,1.02-2.08,.44-1.45-1.24-2.89-2.58-4.23-3.97h-.02c-1.16-1.22-2.26-2.49-3.18-3.76-.21-.26-.39-.51-.56-.78v-.02c-.85-1.27-1.54-2.56-1.96-3.83-.48-1.45-.95-2.79-1.45-4.01-.41-1.08-.83-2.05-1.22-2.95l-.3-.71c-.6-1.29-1.13-2.36-1.59-3.23-.55-1.02,.37-2.19,1.5-1.92,4.73,1.18,13.99,3.05,21.68,1.94,1.83-.26,3.51-.25,4.99-.04h.05c.46,.05,.88,.14,1.29,.23,.42,.11,.76,.41,.92,.81,.12,.28,.23,.56,.35,.83Z"/><path class="f" d="M59.39,99.77c-.14,.26-.26,.51-.39,.78l.14-.34c.09-.16,.16-.3,.25-.44Z"/></g></g><g id="b"/></svg>