<svg width="29" height="29" viewBox="0 0 29 29" fill="none" xmlns="http://www.w3.org/2000/svg">
<path d="M14.5001 8.61621C13.7275 8.61621 12.9624 8.76839 12.2486 9.06406C11.5348 9.35972 10.8862 9.79309 10.3399 10.3394C9.79358 10.8857 9.36021 11.5343 9.06455 12.2481C8.76888 12.9619 8.6167 13.727 8.6167 14.4996C8.6167 15.2722 8.76888 16.0373 9.06455 16.7511C9.36021 17.4649 9.79358 18.1134 10.3399 18.6598C10.8862 19.2061 11.5348 19.6394 12.2486 19.9351C12.9624 20.2308 13.7275 20.383 14.5001 20.383C16.0604 20.383 17.5569 19.7631 18.6602 18.6598C19.7636 17.5564 20.3834 16.06 20.3834 14.4996C20.3834 12.9392 19.7636 11.4428 18.6602 10.3394C17.5569 9.23606 16.0604 8.61621 14.5001 8.61621ZM10.4292 14.4996C10.4292 13.4199 10.8581 12.3845 11.6215 11.621C12.385 10.8576 13.4204 10.4287 14.5001 10.4287C15.5797 10.4287 16.6152 10.8576 17.3786 11.621C18.1421 12.3845 18.5709 13.4199 18.5709 14.4996C18.5709 15.5792 18.1421 16.6147 17.3786 17.3781C16.6152 18.1416 15.5797 18.5705 14.5001 18.5705C13.4204 18.5705 12.385 18.1416 11.6215 17.3781C10.8581 16.6147 10.4292 15.5792 10.4292 14.4996Z" fill="black"/>
<path d="M17.7554 2.43426C16.8003 -0.810117 12.2001 -0.810117 11.2449 2.43426L11.0746 3.01244C11.0079 3.23892 10.8913 3.4476 10.7335 3.62318C10.5757 3.79877 10.3805 3.9368 10.1624 4.02718C9.9443 4.11755 9.70872 4.15797 9.47296 4.14547C9.2372 4.13297 9.00722 4.06787 8.79988 3.95495L8.27063 3.66495C5.29813 2.0482 2.04832 5.29982 3.66688 8.27051L3.95507 8.79976C4.068 9.00709 4.13309 9.23707 4.14559 9.47284C4.15809 9.7086 4.11767 9.94417 4.0273 10.1623C3.93693 10.3804 3.79889 10.5755 3.6233 10.7334C3.44772 10.8912 3.23904 11.0077 3.01257 11.0744L2.43438 11.2448C-0.809995 12.2 -0.809995 16.8001 2.43438 17.7553L3.01257 17.9257C3.23904 17.9924 3.44772 18.1089 3.6233 18.2668C3.79889 18.4246 3.93693 18.6197 4.0273 18.8379C4.11767 19.056 4.15809 19.2915 4.14559 19.5273C4.13309 19.7631 4.068 19.993 3.95507 20.2004L3.66507 20.7296C2.04832 23.7021 5.29813 26.9538 8.27063 25.3334L8.79988 25.0452C9.00722 24.9323 9.2372 24.8672 9.47296 24.8547C9.70872 24.8422 9.9443 24.8826 10.1624 24.973C10.3805 25.0633 10.5757 25.2014 10.7335 25.377C10.8913 25.5525 11.0079 25.7612 11.0746 25.9877L11.2449 26.5659C12.2001 29.8103 16.8003 29.8103 17.7554 26.5659L17.9258 25.9877C17.9925 25.7612 18.1091 25.5525 18.2669 25.377C18.4247 25.2014 18.6199 25.0633 18.838 24.973C19.0561 24.8826 19.2917 24.8422 19.5274 24.8547C19.7632 24.8672 19.9932 24.9323 20.2005 25.0452L20.7298 25.3352C23.7023 26.9538 26.9539 23.7003 25.3335 20.7296L25.0453 20.2004C24.9324 19.993 24.8673 19.7631 24.8548 19.5273C24.8423 19.2915 24.8827 19.056 24.9731 18.8379C25.0635 18.6197 25.2015 18.4246 25.3771 18.2668C25.5527 18.1089 25.7613 17.9924 25.9878 17.9257L26.566 17.7553C29.8104 16.8001 29.8104 12.2 26.566 11.2448L25.9878 11.0744C25.7613 11.0077 25.5527 10.8912 25.3771 10.7334C25.2015 10.5755 25.0635 10.3804 24.9731 10.1623C24.8827 9.94417 24.8423 9.7086 24.8548 9.47284C24.8673 9.23707 24.9324 9.00709 25.0453 8.79976L25.3353 8.27051C26.9539 5.29801 23.7004 2.0482 20.7298 3.66676L20.2005 3.95495C19.9932 4.06787 19.7632 4.13297 19.5274 4.14547C19.2917 4.15797 19.0561 4.11755 18.838 4.02718C18.6199 3.9368 18.4247 3.79877 18.2669 3.62318C18.1091 3.4476 17.9925 3.23892 17.9258 3.01244L17.7554 2.43426ZM12.9831 2.9472C13.429 1.43376 15.5714 1.43376 16.0173 2.9472L16.1876 3.52538C16.3309 4.01129 16.581 4.45898 16.9197 4.83564C17.2585 5.2123 17.6772 5.50837 18.1453 5.70216C18.6133 5.89594 19.1188 5.98253 19.6246 5.95556C20.1305 5.9286 20.6239 5.78877 21.0687 5.54632L21.5961 5.25632C22.9809 4.50413 24.4961 6.01757 23.7421 7.40413L23.4539 7.93338C23.2119 8.37822 23.0724 8.87158 23.0457 9.37732C23.019 9.88306 23.1058 10.3884 23.2998 10.8562C23.4937 11.324 23.7899 11.7425 24.1666 12.0811C24.5432 12.4196 24.9909 12.6696 25.4767 12.8126L26.0531 12.983C27.5665 13.4289 27.5665 15.5713 26.0531 16.0171L25.4749 16.1875C24.989 16.3307 24.5413 16.5809 24.1646 16.9196C23.788 17.2584 23.4919 17.6771 23.2981 18.1451C23.1043 18.6132 23.0177 19.1187 23.0447 19.6245C23.0717 20.1304 23.2115 20.6238 23.4539 21.0686L23.7439 21.596C24.4961 22.9808 22.9827 24.496 21.5961 23.742L21.0687 23.4538C20.6238 23.2114 20.1303 23.0716 19.6243 23.0448C19.1183 23.0179 18.6128 23.1047 18.1447 23.2986C17.6767 23.4926 17.258 23.7889 16.9193 24.1658C16.5806 24.5426 16.3306 24.9905 16.1876 25.4766L16.0173 26.0529C15.5714 27.5664 13.429 27.5664 12.9831 26.0529L12.8128 25.4748C12.6695 24.9891 12.4194 24.5417 12.0807 24.1652C11.7421 23.7887 11.3236 23.4928 10.8558 23.299C10.388 23.1052 9.88274 23.0186 9.3771 23.0454C8.87146 23.0722 8.37822 23.2117 7.9335 23.4538L7.40425 23.7438C6.0195 24.496 4.50425 22.9826 5.25825 21.596L5.54644 21.0686C5.78923 20.6237 5.92933 20.1301 5.95648 19.6241C5.98362 19.118 5.89711 18.6123 5.7033 18.144C5.50949 17.6757 5.21329 17.2568 4.83645 16.9179C4.4596 16.579 4.01166 16.3289 3.5255 16.1857L2.94732 16.0153C1.43388 15.5694 1.43388 13.4271 2.94732 12.9812L3.5255 12.8108C4.0109 12.6675 4.45811 12.4174 4.83439 12.0789C5.21067 11.7404 5.5065 11.3221 5.70024 10.8545C5.89398 10.3869 5.98071 9.88195 5.9541 9.37653C5.92749 8.87111 5.78821 8.37803 5.54644 7.93338L5.25644 7.40413C4.50425 6.01938 6.01769 4.50413 7.40425 5.25813L7.9335 5.54632C8.37822 5.78843 8.87146 5.92798 9.3771 5.95477C9.88274 5.98156 10.388 5.8949 10.8558 5.70114C11.3236 5.50738 11.7421 5.21142 12.0807 4.83495C12.4194 4.45848 12.6695 4.01103 12.8128 3.52538L12.9831 2.9472Z" fill="black"/>
</svg>
