<svg width="65" height="65" viewBox="0 0 65 65" fill="none" xmlns="http://www.w3.org/2000/svg">
<path d="M51.4583 29.792H13.5417C10.5501 29.792 8.125 32.2171 8.125 35.2087V54.167C8.125 57.1585 10.5501 59.5837 13.5417 59.5837H51.4583C54.4499 59.5837 56.875 57.1585 56.875 54.167V35.2087C56.875 32.2171 54.4499 29.792 51.4583 29.792Z" fill="#008280"/>
<path d="M18.9585 29.792V18.9587C18.9585 15.3672 20.3852 11.9228 22.9248 9.38325C25.4643 6.8437 28.9087 5.41699 32.5002 5.41699C36.0916 5.41699 39.536 6.8437 42.0756 9.38325C44.6151 11.9228 46.0418 15.3672 46.0418 18.9587V29.792" stroke="#008280" stroke-width="4" stroke-linecap="round" stroke-linejoin="round"/>
</svg>
