<?xml version="1.0" encoding="UTF-8"?><svg xmlns="http://www.w3.org/2000/svg" viewBox="0 0 552 144"><defs><style>.c{fill:#333;}</style></defs><g id="a"/><g id="b"><path class="c" d="M457.83,84.81c-7.83,1.65-17.78,3.18-27.72,3.18-21.58,0-64.74-35.97-93.52-43.16-24.22-6.05-41.54,13.81-46.42,20.26-4.87-6.43-22.18-26.32-46.42-20.26-28.78,7.2-71.94,43.16-93.52,43.16-11.63,0-23.26-2.09-31.52-4.02-4.19-.98-7.25,3.94-4.49,7.24,10.69,12.77,34.44,32.75,78.49,32.75,64.74,0,67.37-1.75,86.33-14.39,5.29-3.53,8.69-7.88,10.89-12.44,2.13,4.55,5.41,8.92,10.69,12.44,18.95,12.64,28.77,14.39,93.52,14.39,39.22,0,59.96-15.84,70.22-28.33,4.02-4.9-.33-12.12-6.53-10.82Z"/></g></svg>