<?xml version="1.0" encoding="UTF-8"?><svg xmlns="http://www.w3.org/2000/svg" viewBox="0 0 176 205"><defs><style>.c{fill:#b5e0e7;}.d{fill:#d0726f;}</style></defs><g id="a"/><g id="b"><g><polygon class="d" points="142.06 165.28 146.7 178.42 118.92 179.05 56.37 116.5 67.06 90.28 142.06 165.28"/><polygon class="c" points="76.19 67.96 78.39 62.54 120.63 104.78 124.78 116.55 142.06 165.28 67.06 90.28 76.19 67.96"/><polygon class="d" points="97.58 39.74 120.63 104.78 78.39 62.54 80.88 56.44 93.92 43.4 94.75 45.74 97.04 40.27 97.58 39.74"/><polygon class="c" points="118.92 179.05 80.73 179.93 45.04 144.23 56.37 116.5 118.92 179.05"/><polygon class="d" points="97.43 39.35 97.58 39.74 97.04 40.27 97.43 39.35"/><polygon class="c" points="97.04 40.27 94.75 45.74 93.92 43.4 97.04 40.27"/><polygon class="c" points="91.13 35.83 89.03 36.42 92.99 26.75 97.43 39.35 97.04 40.27 93.92 43.4 91.13 35.83"/><polygon class="d" points="93.92 43.4 80.88 56.44 89.03 36.42 91.13 35.83 93.92 43.4"/><polygon class="c" points="92.99 26.75 89.03 36.42 80.98 38.66 86.45 29.68 77.85 23.48 88.35 22.16 87.81 11.61 95.38 18.93 103.34 11.95 102.32 22.45 112.72 24.31 103.83 30.07 108.91 39.35 98.85 36.02 97.43 39.35 92.99 26.75"/><polygon class="d" points="80.73 179.93 59.54 180.42 38.74 159.62 45.04 144.23 80.73 179.93"/><polygon class="d" points="59.54 180.42 30 181.1 38.74 159.62 59.54 180.42"/></g></g></svg>