<?xml version="1.0" encoding="UTF-8"?><svg xmlns="http://www.w3.org/2000/svg" viewBox="0 0 543 246"><defs><style>.c{fill:#edd234;}.d{fill:#3b3b44;}</style></defs><g id="a"/><g id="b"><g><path class="c" d="M511.19,107.49c5.27-5.14,2.36-14.09-4.92-15.15l-62.39-9.07c-2.89-.42-5.39-2.24-6.69-4.86l-27.9-56.54c-3.26-6.6-12.67-6.6-15.93,0l-27.9,56.54c-1.29,2.62-3.79,4.44-6.69,4.86l-62.39,9.07c-7.28,1.06-10.19,10.01-4.92,15.15l24.42,23.8h-103.77l24.42-23.8c5.27-5.14,2.36-14.09-4.92-15.15l-62.39-9.07c-2.89-.42-5.39-2.24-6.69-4.86l-27.9-56.54c-3.26-6.6-12.67-6.6-15.93,0l-27.9,56.54c-1.29,2.62-3.79,4.44-6.69,4.86l-62.39,9.07c-7.28,1.06-10.19,10.01-4.92,15.15l45.15,44.01c2.09,2.04,3.05,4.98,2.55,7.86l-10.66,62.14c-1.24,7.26,6.37,12.79,12.88,9.36l55.8-29.34c2.59-1.36,5.68-1.36,8.26,0l55.8,29.34c6.52,3.42,14.13-2.11,12.89-9.36l-10.66-62.14c-.49-2.88,.46-5.82,2.55-7.86l6.28-6.12h132.67l6.28,6.12c2.09,2.04,3.05,4.98,2.55,7.86l-10.66,62.14c-1.24,7.26,6.37,12.79,12.88,9.36l55.8-29.34c2.59-1.36,5.68-1.36,8.26,0l55.8,29.34c6.51,3.42,14.13-2.11,12.89-9.36l-10.66-62.14c-.49-2.88,.46-5.82,2.55-7.86l45.15-44.01Z"/><path class="d" d="M408.39,57.26l19.14,38.79c.89,1.8,2.6,3.04,4.59,3.33l42.81,6.22c5,.73,6.99,6.87,3.38,10.39l-30.98,30.19c-1.44,1.4-2.09,3.42-1.75,5.39l7.31,42.63c.85,4.98-4.37,8.77-8.84,6.42l-38.29-20.13c-1.78-.93-3.9-.93-5.67,0l-38.29,20.13c-4.47,2.35-9.69-1.45-8.84-6.42l7.31-42.63c.34-1.98-.32-3.99-1.75-5.39l-30.98-30.19c-3.62-3.52-1.62-9.67,3.38-10.39l42.81-6.22c1.98-.29,3.7-1.53,4.59-3.33l19.14-38.79c2.23-4.53,8.69-4.53,10.93,0Z"/><path class="d" d="M131.44,57.26l19.14,38.79c.89,1.8,2.6,3.04,4.59,3.33l42.81,6.22c5,.73,6.99,6.87,3.38,10.39l-30.98,30.19c-1.44,1.4-2.09,3.42-1.75,5.39l7.31,42.63c.85,4.98-4.37,8.77-8.84,6.42l-38.29-20.13c-1.78-.93-3.9-.93-5.67,0l-38.29,20.13c-4.47,2.35-9.69-1.45-8.84-6.42l7.31-42.63c.34-1.98-.32-3.99-1.75-5.39l-30.98-30.19c-3.62-3.52-1.62-9.67,3.38-10.39l42.81-6.22c1.98-.29,3.7-1.53,4.59-3.33l19.14-38.79c2.23-4.53,8.69-4.53,10.93,0Z"/></g></g></svg>