<svg width="309" height="125" viewBox="0 0 309 125" fill="none" xmlns="http://www.w3.org/2000/svg">
<rect x="0.5" y="0.5" width="308" height="124" rx="9.5" fill="#ECECEC" stroke="#D1D1D1"/>
<path fill-rule="evenodd" clip-rule="evenodd" d="M308 74.875V48.6321L233.632 123H259.875L308 74.875ZM286.632 123H298C303.523 123 308 118.523 308 113V101.632L286.632 123ZM308 11V21.8748L206.875 123H180.632L301.86 1.77208C305.466 3.28236 308 6.84529 308 11ZM275.875 1H249.632L127.632 123H153.875L275.875 1ZM196.631 1H222.874L100.874 123H74.6313L196.631 1ZM169.874 1H143.631L21.6311 123H47.874L169.874 1ZM90.6308 1H116.874L1.56158 116.312C1.19782 115.276 1 114.161 1 113V90.6308L90.6308 1ZM14.8735 1H11C5.47715 1 1 5.47716 1 11V14.8735L14.8735 1ZM1 41.6308V63.8735L63.8735 1H41.6308L1 41.6308Z" fill="white" fill-opacity="0.4"/>
</svg>
