<?xml version="1.0" encoding="UTF-8"?><svg xmlns="http://www.w3.org/2000/svg" viewBox="0 0 265 235"><defs><style>.c{fill:#333;}.d{fill:#214449;}.e{fill:#76c7d4;}</style></defs><g id="a"/><g id="b"><g><polygon class="c" points="240.29 195.11 240.29 204.89 212.95 211.25 170.29 227.25 170.68 215.55 211.56 201.33 240.29 195.11"/><polygon class="d" points="144.01 82.23 179.51 161.82 133.28 171.11 94.24 165.78 83.57 156.89 101.35 80.45 64.02 7.57 138.68 66.23 144.01 82.23"/><polygon class="c" points="170.68 215.55 170.29 227.25 35.58 213.47 35.58 204.89 170.68 215.55"/><path class="e" d="M132.46,189.78c-14.22,1.78-40.89-5.33-45.17-5.87-2.29-.28-5.85-3.93-8.66-7.25l.25-.96,4.69-18.81,10.67,8.89,39.04,5.33,46.24-9.3,4.5,10.1v8.67s-37.33,7.41-51.55,9.19Z"/><path class="d" d="M77.94,175.84c.21,.27,.44,.53,.69,.82,2.81,3.32,6.36,6.97,8.66,7.25,4.28,.53,30.95,7.64,45.17,5.87,14.22-1.78,51.55-9.19,51.55-9.19v-8.67l40-.8,16.28,24-28.73,6.22-40.89,14.22-135.1-10.67v-21.33l-13.79-6.22,21.05,1.88,8.75,.78,26.36-4.16Z"/><path class="c" d="M78.88,175.7l-.25,.96c-.25-.28-.48-.55-.69-.82l.94-.14Z"/><polygon class="c" points="35.58 183.56 35.58 189.6 21.78 182.51 21.78 177.33 35.58 183.56"/></g></g></svg>